<svg xmlns="http://www.w3.org/2000/svg" width="75" height="85" viewBox="0 0 75 85">
  <g id="Grupo_1106539" data-name="Grupo 1106539" transform="translate(-342.102 -8152.058)">
    <path id="Rectángulo_403250" data-name="Rectángulo 403250" d="M37.5,0h0A37.5,37.5,0,0,1,75,37.5V80a0,0,0,0,1,0,0H0a0,0,0,0,1,0,0V37.5A37.5,37.5,0,0,1,37.5,0Z" transform="translate(342.102 8157.058)" fill="#eacf5a"/>
    <g id="derechos-humanos" transform="translate(286.938 8152.058)">
      <g id="Grupo_1101769" data-name="Grupo 1101769" transform="translate(61.995 1.245)">
        <path id="Trazado_912294" data-name="Trazado 912294" d="M81.531,72.744H69.91a1.66,1.66,0,0,1-1.66-1.66V9.16A1.66,1.66,0,0,1,69.91,7.5h44.16a1.66,1.66,0,0,1,1.66,1.66V16.1Z" transform="translate(-68.25 -7.5)" fill="#e4dfe3"/>
        <path id="Trazado_912295" data-name="Trazado 912295" d="M163.253,67.5H174.07a1.66,1.66,0,0,1,1.66,1.66v61.924a1.66,1.66,0,0,1-1.66,1.66H129.91a1.66,1.66,0,0,1-1.66-1.66v-9.627Z" transform="translate(-118.289 -57.539)" fill="#f3eae6"/>
        <path id="Trazado_912296" data-name="Trazado 912296" d="M144.07,102.744H99.91a1.66,1.66,0,0,1-1.66-1.66V39.16a1.66,1.66,0,0,1,1.66-1.66h44.16a1.66,1.66,0,0,1,1.66,1.66v61.924A1.66,1.66,0,0,1,144.07,102.744Z" transform="translate(-93.27 -32.52)" fill="#faf7f7"/>
        <path id="Trazado_912297" data-name="Trazado 912297" d="M309.2,326.051a14.617,14.617,0,0,1-8.6-5.527,3.316,3.316,0,0,0-5.317,0,14.617,14.617,0,0,1-8.6,5.527,2.494,2.494,0,0,0-1.943,2.428v8.277a13.2,13.2,0,0,0,26.4,0v-8.277a2.494,2.494,0,0,0-1.943-2.428Z" transform="translate(-248.808 -267.444)" fill="#9ff497"/>
        <path id="Trazado_912298" data-name="Trazado 912298" d="M364.939,328.479v8.278a13.2,13.2,0,0,1-15.689,12.963,13.2,13.2,0,0,0,10.708-12.963v-8.278a2.494,2.494,0,0,0-1.942-2.427,14.618,14.618,0,0,1-8.6-5.527c-.053-.071-.108-.139-.168-.206a3.313,3.313,0,0,1,5.148.206,14.619,14.619,0,0,0,8.6,5.527A2.494,2.494,0,0,1,364.939,328.479Z" transform="translate(-302.599 -267.445)" fill="#6ce79a"/>
        <path id="Trazado_912299" data-name="Trazado 912299" d="M216.23,92.461a4.98,4.98,0,1,1,4.98-4.98A4.98,4.98,0,0,1,216.23,92.461Z" transform="translate(-187.51 -70.049)" fill="#d4d0eb"/>
      </g>
      <g id="Grupo_1101770" data-name="Grupo 1101770" transform="translate(60.75 0)">
        <path id="Trazado_912300" data-name="Trazado 912300" d="M124.334,65.991a1.245,1.245,0,0,0,1.245-1.245V62.28a3.724,3.724,0,0,0-2.909-3.642,14.58,14.58,0,0,1-1.988-.61V12.866a2.909,2.909,0,0,0-2.905-2.905H115.7V7.886A2.909,2.909,0,0,0,112.8,4.98h-2.075V2.905A2.909,2.909,0,0,0,107.816,0H63.655A2.909,2.909,0,0,0,60.75,2.905v7.471a1.245,1.245,0,1,0,2.49,0V2.905a.416.416,0,0,1,.415-.415h44.16a.416.416,0,0,1,.415.415V4.98H68.636A2.909,2.909,0,0,0,65.73,7.886V65.244H63.655a.416.416,0,0,1-.415-.415V16.187a1.245,1.245,0,1,0-2.49,0V64.829a2.909,2.909,0,0,0,2.905,2.905H65.73V69.81a2.909,2.909,0,0,0,2.905,2.905h2.075V74.79A2.909,2.909,0,0,0,73.616,77.7H98.584a14.441,14.441,0,0,0,27-7.139,1.245,1.245,0,0,0-2.49,0,11.953,11.953,0,1,1-23.906,0V62.28a1.245,1.245,0,0,1,.977-1.215,15.848,15.848,0,0,0,9.317-6,2.07,2.07,0,0,1,3.319,0,15.847,15.847,0,0,0,9.317,6,1.245,1.245,0,0,1,.976,1.215v2.466a1.245,1.245,0,0,0,1.245,1.245ZM73.616,75.205a.416.416,0,0,1-.415-.415V72.715H96.854a14.334,14.334,0,0,0,.606,2.49Zm37.52-23.46a4.518,4.518,0,0,0-3.657,1.836A13.389,13.389,0,0,1,99.6,58.638a3.723,3.723,0,0,0-2.909,3.642v7.945H68.636a.416.416,0,0,1-.415-.415V7.886a.416.416,0,0,1,.415-.415H112.8a.416.416,0,0,1,.415.415V52.24A4.55,4.55,0,0,0,111.136,51.745ZM115.7,54.67V12.451h2.075a.416.416,0,0,1,.415.415v43.9A13.047,13.047,0,0,1,115.7,54.67Z" transform="translate(-60.75 0)"/>
        <path id="Trazado_912301" data-name="Trazado 912301" d="M209.976,87.451a6.226,6.226,0,1,0-6.226-6.226A6.233,6.233,0,0,0,209.976,87.451Zm0-9.961a3.735,3.735,0,1,1-3.735,3.735A3.739,3.739,0,0,1,209.976,77.49Z" transform="translate(-180.01 -62.549)"/>
        <path id="Trazado_912302" data-name="Trazado 912302" d="M303.794,120H295a1.245,1.245,0,0,0,0,2.49h8.8a1.245,1.245,0,0,0,0-2.49Z" transform="translate(-255.068 -100.078)"/>
        <path id="Trazado_912303" data-name="Trazado 912303" d="M303.794,90H295a1.245,1.245,0,0,0,0,2.49h8.8a1.245,1.245,0,0,0,0-2.49Z" transform="translate(-255.068 -75.059)"/>
        <path id="Trazado_912304" data-name="Trazado 912304" d="M122,122.49h8.8a1.245,1.245,0,1,0,0-2.49H122a1.245,1.245,0,0,0,0,2.49Z" transform="translate(-110.789 -100.078)"/>
        <path id="Trazado_912305" data-name="Trazado 912305" d="M122,92.49h8.8a1.245,1.245,0,1,0,0-2.49H122a1.245,1.245,0,0,0,0,2.49Z" transform="translate(-110.789 -75.059)"/>
        <path id="Trazado_912306" data-name="Trazado 912306" d="M142,250.49h30.879a1.245,1.245,0,1,0,0-2.49H142a1.245,1.245,0,0,0,0,2.49Z" transform="translate(-127.469 -206.828)"/>
        <path id="Trazado_912307" data-name="Trazado 912307" d="M142,220.49h30.879a1.245,1.245,0,1,0,0-2.49H142a1.245,1.245,0,0,0,0,2.49Z" transform="translate(-127.469 -181.808)"/>
        <path id="Trazado_912308" data-name="Trazado 912308" d="M142.913,378H122a1.245,1.245,0,1,0,0,2.49h20.918a1.245,1.245,0,0,0,0-2.49Z" transform="translate(-110.789 -315.246)"/>
        <path id="Trazado_912309" data-name="Trazado 912309" d="M159.515,278H122a1.245,1.245,0,1,0,0,2.49h37.52a1.245,1.245,0,1,0,0-2.49Z" transform="translate(-110.789 -231.848)"/>
        <path id="Trazado_912310" data-name="Trazado 912310" d="M159.515,189H122a1.245,1.245,0,1,0,0,2.49h37.52a1.245,1.245,0,1,0,0-2.49Z" transform="translate(-110.789 -157.623)"/>
        <path id="Trazado_912311" data-name="Trazado 912311" d="M243.74,336.735v-2.49a1.245,1.245,0,0,0-2.49,0v2.49a1.245,1.245,0,0,0,2.49,0Z" transform="translate(-211.284 -277.717)"/>
        <path id="Trazado_912312" data-name="Trazado 912312" d="M213.74,336.735v-2.49a1.245,1.245,0,0,0-2.49,0v2.49a1.245,1.245,0,0,0,2.49,0Z" transform="translate(-186.265 -277.717)"/>
        <path id="Trazado_912313" data-name="Trazado 912313" d="M183.74,336.735v-2.49a1.245,1.245,0,0,0-2.49,0v2.49a1.245,1.245,0,0,0,2.49,0Z" transform="translate(-161.245 -277.717)"/>
        <path id="Trazado_912314" data-name="Trazado 912314" d="M153.74,336.735v-2.49a1.245,1.245,0,0,0-2.49,0v2.49a1.245,1.245,0,0,0,2.49,0Z" transform="translate(-136.226 -277.717)"/>
        <path id="Trazado_912315" data-name="Trazado 912315" d="M122.5,337.98a1.245,1.245,0,0,0,1.245-1.245v-2.49a1.245,1.245,0,0,0-2.49,0v2.49A1.245,1.245,0,0,0,122.5,337.98Z" transform="translate(-111.206 -277.717)"/>
        <path id="Trazado_912316" data-name="Trazado 912316" d="M336.181,392.129l-5.974,6.686-2.6-2.609a1.245,1.245,0,1,0-1.765,1.756l3.527,3.545a1.245,1.245,0,0,0,.883.367h.033a1.246,1.246,0,0,0,.9-.415l6.854-7.671a1.245,1.245,0,0,0-1.857-1.659Z" transform="translate(-281.533 -326.683)"/>
      </g>
    </g>
  </g>
</svg>
