<svg xmlns="http://www.w3.org/2000/svg" width="75" height="85" viewBox="0 0 75 85">
  <g id="Grupo_1106536" data-name="Grupo 1106536" transform="translate(-1182.439 -2109.663)">
    <path id="Rectángulo_402870" data-name="Rectángulo 402870" d="M37.5,0h0A37.5,37.5,0,0,1,75,37.5V80a0,0,0,0,1,0,0H0a0,0,0,0,1,0,0V37.5A37.5,37.5,0,0,1,37.5,0Z" transform="translate(1182.439 2114.663)" fill="#eacf5a"/>
    <g id="decision" transform="translate(1189.224 2109.663)">
      <path id="Trazado_912188" data-name="Trazado 912188" d="M155.3,14.884v6.185l-4.637,4.637h-5.495l-4.637-4.637V14.884a7.385,7.385,0,0,1,14.769,0Zm0,0" transform="translate(-117.204 -6.255)" fill="#ffdaaa"/>
      <path id="Trazado_912189" data-name="Trazado 912189" d="M98.992,120.208V139.97l2.273,2.273h4.023V166.6h5.851l2.13-2.13h.01l2.13,2.13h5.85V142.243h4.023l2.273-2.273V120.208l-3.04-3.04H102.033Zm0,0" transform="translate(-82.558 -97.716)" fill="#787680"/>
      <path id="Trazado_912190" data-name="Trazado 912190" d="M167.562,132.467h-1.957l-6.672-15.3h15.3Zm0,0" transform="translate(-132.548 -97.716)" fill="#57565c"/>
      <path id="Trazado_912191" data-name="Trazado 912191" d="M147.562,132.467h-1.957l-6.672-15.3h15.3Zm0,0" transform="translate(-115.869 -97.716)" fill="#fff"/>
      <path id="Trazado_912192" data-name="Trazado 912192" d="M142.254,117.168h-3.32l6.672,15.3h1.957l.682-1.564Zm0,0" transform="translate(-115.869 -97.716)" fill="#d8d7da"/>
      <path id="Trazado_912193" data-name="Trazado 912193" d="M170,132.467h1.956l1.816-4.166L172.7,117.168h-3.453L168.18,128.3Zm0,0" transform="translate(-140.259 -97.716)" fill="#ff7956"/>
      <path id="Trazado_912194" data-name="Trazado 912194" d="M61.5,329.876l-8.385-4.842a4.949,4.949,0,0,0,0-5.386l8.386-4.842,1.717,2.974,6.885-11.928H56.334l1.717,2.973-8.518,4.918v10.218h-5.85l-2.13-2.131h-.01l-2.13,2.131H33.562V313.744l-8.519-4.918,1.717-2.974H12.988l6.885,11.928,1.717-2.973,8.386,4.842a4.944,4.944,0,0,0,0,5.386l-8.386,4.842L19.874,326.9l-6.886,11.926H26.76l-1.717-2.973,11.4-6.583a19.608,19.608,0,0,0,10.2,0l11.4,6.583-1.717,2.973H70.106L63.22,326.9Zm0,0" transform="translate(-10.832 -255.076)" fill="#d7fc7e"/>
      <path id="Trazado_912195" data-name="Trazado 912195" d="M233.121,349.16h4.1a4.848,4.848,0,0,0,.281-1.62,5.1,5.1,0,0,0-.8-2.693l1.4-.805v-7.975l-4.98,2.875Zm0,0" transform="translate(-194.42 -280.275)" fill="#55e072"/>
      <path id="Trazado_912196" data-name="Trazado 912196" d="M145.516,21.069V14.884a7.388,7.388,0,0,1,4.895-6.954,7.39,7.39,0,0,0-9.875,6.954v6.185l4.637,4.637h4.98Zm0,0" transform="translate(-117.204 -6.255)" fill="#ffbb85"/>
      <path id="Trazado_912197" data-name="Trazado 912197" d="M110.271,142.243V166.6h-4.98V142.243h-4.023L99,139.97V120.208l3.04-3.04h4.98l-3.04,3.04V139.97l2.272,2.273Zm0,0" transform="translate(-82.561 -97.716)" fill="#57565c"/>
      <g id="Grupo_1101705" data-name="Grupo 1101705" transform="translate(2.156 50.776)">
        <path id="Trazado_912198" data-name="Trazado 912198" d="M88.55,374.862l8.386-4.842a5.582,5.582,0,0,1-.516-1.073h-.879v-5.118l-6.991-4.036L87.3,361.949l4.651,2.685a4.948,4.948,0,0,0,0,5.386l-4.65,2.685Zm0,0" transform="translate(-74.967 -350.838)" fill="#55e072"/>
        <path id="Trazado_912199" data-name="Trazado 912199" d="M17.969,444.576l5.943-10.293-2.32,1.34-1.717-2.974-6.886,11.927Zm0,0" transform="translate(-12.988 -411.598)" fill="#55e072"/>
        <path id="Trazado_912200" data-name="Trazado 912200" d="M21.591,314.806l2.32,1.34-5.942-10.294h-4.98l6.886,11.928Zm0,0" transform="translate(-12.988 -305.852)" fill="#55e072"/>
      </g>
      <path id="Trazado_912201" data-name="Trazado 912201" d="M97.791,45.772V70.13H105.4l1.62-1.62,1.619,1.62h7.611V45.772h3.293l3-3V21.976l-3.77-3.77h-6l2.877-2.877V8.63a8.63,8.63,0,0,0-17.259,0v6.7l2.876,2.876h-6l-3.77,3.77V42.769l3,3ZM112.77,20.7,110.6,25.681l-.479-4.984ZM105.5,30.383l.929-9.686h1.191l.929,9.686-1.362,3.123h-.326ZM100.882,8.63a6.139,6.139,0,1,1,12.279,0V14.3l-3.908,3.908H104.79L100.882,14.3ZM103.924,20.7l-.478,4.984L101.273,20.7Zm-9.939,2.311L96.3,20.7h2.259L105.228,36h3.587l6.672-15.3h2.261l2.311,2.311V41.738l-1.543,1.543h-2.262v-15.7h-2.49V67.64h-4.089l-1.4-1.4c0-22.154,0-19.286-.01-21h-2.49v21l-1.4,1.4h-4.089V27.583h-2.49v15.7H95.529l-1.543-1.543Zm0,0" transform="translate(-76.306)"/>
      <path id="Trazado_912202" data-name="Trazado 912202" d="M50.216,321.92l-6.3-3.636a6.073,6.073,0,0,0,0-4.395l6.3-3.637,2.173,3.763,9.041-15.664H43.346l2.172,3.763L41.4,304.493l1.245,2.157,6.275-3.624-1.261-2.184h9.458l-4.728,8.192-1.261-2.184-10.573,6.1.671,1.091a3.7,3.7,0,0,1,0,4.081l-.672,1.091,10.573,6.1,1.261-2.184,4.729,8.191H47.658l1.261-2.184-12.934-7.467a18.424,18.424,0,0,1-10.54,0l-12.934,7.467,1.261,2.184H4.313l4.729-8.191,1.261,2.184,10.574-6.1-.671-1.09a3.7,3.7,0,0,1,0-4.08l.671-1.091-10.574-6.1-1.261,2.184-4.729-8.192h9.459l-1.261,2.184,6.277,3.624,1.245-2.157-4.12-2.379,2.172-3.763H0l9.041,15.663,2.172-3.763,6.3,3.637a6.075,6.075,0,0,0,0,4.394l-6.3,3.636-2.172-3.763L0,333.819l18.086,0-2.172-3.763,9.88-5.7a20.955,20.955,0,0,0,9.843,0l9.88,5.7-2.172,3.763,18.085,0-9.043-15.662Zm0,0" transform="translate(0 -248.821)"/>
      <path id="Trazado_912203" data-name="Trazado 912203" d="M186.859,37.7,185.1,35.938l1.744-1.744v-.4h2.49v1.431Zm2.473-5.566h-2.49v-1.82a1.824,1.824,0,0,0-.043-.395l2.431-.538a4.316,4.316,0,0,1,.1.933Zm-2.991-3.074a1.808,1.808,0,0,0-1.322-.569V26a4.332,4.332,0,0,1,3.127,1.345Zm0,0" transform="translate(-154.304 -21.684)" fill="#fff"/>
      <path id="Trazado_912204" data-name="Trazado 912204" d="M206.107,303.6h-2.49v-8.965h2.49Zm0-10.625h-2.49v-2.49h2.49Zm0-4.15h-2.49v-2.49h2.49Zm0,0" transform="translate(-169.814 -238.797)" fill="#fff"/>
    </g>
  </g>
</svg>
