<svg xmlns="http://www.w3.org/2000/svg" width="85" height="83.478" viewBox="0 0 85 83.478">
  <g id="Grupo_1106538" data-name="Grupo 1106538" transform="translate(-705.102 -5275.522)">
    <path id="Rectángulo_402870" data-name="Rectángulo 402870" d="M37.5,0h0A37.5,37.5,0,0,1,75,37.5V80a0,0,0,0,1,0,0H0a0,0,0,0,1,0,0V37.5A37.5,37.5,0,0,1,37.5,0Z" transform="translate(710.102 5279)" fill="#43b869"/>
    <g id="bien" transform="translate(701.094 5267.003)">
      <path id="Trazado_912230" data-name="Trazado 912230" d="M354.5,396.889a13.549,13.549,0,0,1,13.492,12.318v4.484H341.005v-4.484A13.549,13.549,0,0,1,354.5,396.889Z" transform="translate(-280.161 -322.869)" fill="#7cb5ef" fill-rule="evenodd"/>
      <path id="Trazado_912231" data-name="Trazado 912231" d="M364.681,413.744H341.006V409.26a13.549,13.549,0,0,1,12.971-12.307,14.026,14.026,0,0,1,10.7,12.307Z" transform="translate(-280.161 -322.923)" fill="#b6dbff" fill-rule="evenodd"/>
      <circle id="Elipse_11530" data-name="Elipse 11530" cx="6.453" cy="6.453" r="6.453" transform="translate(67.884 61.071)" fill="#fdb0a0"/>
      <path id="Trazado_912232" data-name="Trazado 912232" d="M387.907,333.528a6.454,6.454,0,1,1,5.16-6.323A6.455,6.455,0,0,1,387.907,333.528Z" transform="translate(-314.863 -259.681)" fill="#ffcec0" fill-rule="evenodd"/>
      <path id="Trazado_912233" data-name="Trazado 912233" d="M407.994,396.949l-1.087,10.874,2.387,3.416,2.387-3.416-1.087-10.872q-.646-.062-1.308-.062t-1.29.061Z" transform="translate(-334.948 -322.868)" fill="#e8333c" fill-rule="evenodd"/>
      <path id="Trazado_912234" data-name="Trazado 912234" d="M407.994,396.964l-1.087,10.874,1.6,2.288,1.6-2.288-.927-9.268-.166-1.664q-.513.01-1.016.058Z" transform="translate(-334.948 -322.883)" fill="#fb545c" fill-rule="evenodd"/>
      <path id="Trazado_912235" data-name="Trazado 912235" d="M24.436,396.889a13.549,13.549,0,0,1,13.492,12.318v4.484H10.944v-4.484a13.549,13.549,0,0,1,13.492-12.318Z" transform="translate(-5.766 -322.869)" fill="#f29988" fill-rule="evenodd"/>
      <path id="Trazado_912236" data-name="Trazado 912236" d="M34.619,413.744H10.944V409.26a13.549,13.549,0,0,1,12.971-12.307,14.026,14.026,0,0,1,10.7,12.307Z" transform="translate(-5.766 -322.923)" fill="#fdb0a0" fill-rule="evenodd"/>
      <circle id="Elipse_11531" data-name="Elipse 11531" cx="6.453" cy="6.453" r="6.453" transform="translate(11.916 61.412) rotate(-2.865)" fill="#fdb0a0"/>
      <g id="Grupo_1101732" data-name="Grupo 1101732" transform="translate(12.218 17.128)">
        <path id="Trazado_912237" data-name="Trazado 912237" d="M57.845,333.528a6.454,6.454,0,0,1,0-12.646,6.454,6.454,0,0,1,0,12.646Z" transform="translate(-52.685 -276.809)" fill="#ffcec0" fill-rule="evenodd"/>
        <path id="Trazado_912238" data-name="Trazado 912238" d="M77.932,396.949l-1.087,10.874,2.387,3.416,2.387-3.416L80.531,396.95q-.646-.062-1.308-.062t-1.29.061Z" transform="translate(-72.77 -339.996)" fill="#e8333c" fill-rule="evenodd"/>
        <path id="Trazado_912239" data-name="Trazado 912239" d="M77.932,396.964l-1.087,10.874,1.6,2.288,1.6-2.288-.927-9.268-.166-1.664Q78.436,396.916,77.932,396.964Z" transform="translate(-72.77 -340.011)" fill="#fb545c" fill-rule="evenodd"/>
        <path id="Trazado_912240" data-name="Trazado 912240" d="M194.962,74.834h6.782v22.08l-3.076.288c-4.157.326-9.4,1.135-13.458.4-3.012-.549-3.785-1.45-8.093-1.45-.125,0-.967,0-1.7-.005v-19.4c11.476-.748,13.728-5.743,12.875-15.866a1.178,1.178,0,0,1,1.041-1.269c7.7-.865,6.1,11.535,5.63,15.228Z" transform="translate(-154.717 -59.563)" fill="#ffcec0" fill-rule="evenodd"/>
        <path id="Trazado_912241" data-name="Trazado 912241" d="M266.865,150.107c-.08,2.309-.619,6.649-6.345,6.7a9.328,9.328,0,0,1-5.4,4.547,1.045,1.045,0,1,1-.653-1.985,7.3,7.3,0,0,0,4.223-3.559,13.063,13.063,0,0,0,1.408-5.707h6.767Z" transform="translate(-219.839 -134.836)" fill="#fdb0a0" fill-rule="evenodd"/>
        <path id="Trazado_912242" data-name="Trazado 912242" d="M297.094,150.108h5.679a2.863,2.863,0,0,1,0,5.726h-5.679a2.863,2.863,0,0,1,0-5.726Z" transform="translate(-253.493 -134.837)" fill="#fdb0a0" fill-rule="evenodd"/>
        <path id="Trazado_912243" data-name="Trazado 912243" d="M297.094,150.108h5.679a2.871,2.871,0,0,1,2.863,2.863h-11.4A2.871,2.871,0,0,1,297.094,150.108Z" transform="translate(-253.493 -134.837)" fill="#ffcec0" fill-rule="evenodd"/>
        <path id="Trazado_912244" data-name="Trazado 912244" d="M149.4,174.687h2.34a1.6,1.6,0,0,0,1.59-1.59V153.755a1.6,1.6,0,0,0-1.59-1.59h-4.679a1.6,1.6,0,0,0-1.59,1.59V173.1a1.6,1.6,0,0,0,1.59,1.59Z" transform="translate(-129.825 -136.547)" fill="#eacf5a" fill-rule="evenodd"/>
      </g>
      <path id="Trazado_912245" data-name="Trazado 912245" d="M147.064,152.164h1.364a1.591,1.591,0,0,1,1.59,1.59V173.1a1.591,1.591,0,0,1-1.59,1.59h-1.364a1.591,1.591,0,0,1-1.59-1.59V153.754a1.591,1.591,0,0,1,1.59-1.59Z" transform="translate(-117.607 -119.418)" fill="#f8e48c"/>
      <rect id="Rectángulo_403230" data-name="Rectángulo 403230" width="13.295" height="5.726" rx="2.863" transform="translate(51.845 38.125)" fill="#fdb0a0"/>
      <path id="Trazado_912246" data-name="Trazado 912246" d="M290.506,184.059h7.569a2.871,2.871,0,0,1,2.863,2.863h-13.3a2.871,2.871,0,0,1,2.863-2.863Z" transform="translate(-235.798 -145.934)" fill="#ffcec0" fill-rule="evenodd"/>
      <rect id="Rectángulo_403231" data-name="Rectángulo 403231" width="12.246" height="5.726" rx="2.863" transform="translate(52.073 43.851)" fill="#fdb0a0"/>
      <path id="Trazado_912247" data-name="Trazado 912247" d="M291.862,218.009h6.52a2.871,2.871,0,0,1,2.863,2.863H289A2.871,2.871,0,0,1,291.862,218.009Z" transform="translate(-236.926 -174.158)" fill="#ffcec0" fill-rule="evenodd"/>
      <rect id="Rectángulo_403232" data-name="Rectángulo 403232" width="9.222" height="5.19" rx="2.595" transform="translate(53.573 49.577)" fill="#fdb0a0"/>
      <path id="Trazado_912248" data-name="Trazado 912248" d="M300.487,251.96h4.032a2.6,2.6,0,0,1,2.595,2.595h-9.222A2.6,2.6,0,0,1,300.487,251.96Z" transform="translate(-244.319 -202.383)" fill="#ffcec0" fill-rule="evenodd"/>
      <path id="Trazado_912249" data-name="Trazado 912249" d="M58.913,21.8h3.138a1.181,1.181,0,0,1,0,2.361H58.913a1.181,1.181,0,0,1,0-2.361Zm-3.8-5.161a1.174,1.174,0,0,1,0-1.668l2.219-2.22a1.18,1.18,0,0,1,1.666,1.67l-2.219,2.218a1.161,1.161,0,0,1-.829.347,1.18,1.18,0,0,1-.837-.347Zm-20.8,6.341a1.175,1.175,0,0,1,1.179-1.18h3.138a1.181,1.181,0,0,1,0,2.361H35.484A1.174,1.174,0,0,1,34.306,22.985Zm4.235-8.559a1.18,1.18,0,1,1,1.666-1.67l2.219,2.22a1.181,1.181,0,0,1-.837,2.015,1.16,1.16,0,0,1-.829-.347Zm9.048-1.589V9.7a1.179,1.179,0,1,1,2.357,0v3.137a1.179,1.179,0,1,1-2.357,0ZM63.66,71.7c-4.528-.334-8.7-3.317-11.113-7.807l-.106.651a1.18,1.18,0,0,1-2.333-.358l.667-4.324a1.186,1.186,0,0,1,1.675-.889L56.3,60.794A1.181,1.181,0,0,1,55.3,62.929l-.78-.369c2.016,3.9,5.528,6.5,9.316,6.785A1.18,1.18,0,0,1,63.75,71.7c-.033,0-.057,0-.089,0ZM42.9,64.186a1.18,1.18,0,0,1-2.333.358l-.1-.651c-2.423,4.49-6.585,7.473-11.121,7.807-.024,0-.057,0-.081,0a1.181,1.181,0,0,1-.089-2.358c3.8-.28,7.3-2.881,9.324-6.785l-.78.369a1.181,1.181,0,1,1-1.008-2.135l3.853-1.821a1.176,1.176,0,0,1,1.666.889Zm.024-10.18c2.894.528,6.568.21,9.893-.11a3.721,3.721,0,0,1-.423-1.72,3.787,3.787,0,0,1,.545-1.948,4.039,4.039,0,0,1-.959-6.26,4.085,4.085,0,0,1-1.171-1.925,10.063,10.063,0,0,1-3.26,1.737,1.249,1.249,0,0,1-.374.061,1.18,1.18,0,0,1-.366-2.3c3.748-1.236,5.048-3.845,4.487-9.011a.015.015,0,0,1-.008-.015V32.34a.254.254,0,0,1,.008-.078v-.015c.325-2.548,1.325-10.3-1.349-13.025a3.39,3.39,0,0,0-2.983-.882c.455,5.328-.008,8.856-1.5,11.435C43.866,32.521,41.135,34.2,36.907,35V52.638a17.259,17.259,0,0,1,3.6.761,21.388,21.388,0,0,0,2.414.607ZM61.506,33.578a1.683,1.683,0,0,1,0,3.366H55.824a1.683,1.683,0,0,1,0-3.366Zm-1.3,20.013H56.173a1.415,1.415,0,0,1,0-2.83h4.032a1.415,1.415,0,0,1,0,2.83Zm-5.268-8.558h6.528a1.683,1.683,0,0,1,0,3.366H54.938a1.683,1.683,0,0,1,0-3.366Zm7.341-5.728a1.683,1.683,0,1,1,0,3.366H54.71a1.683,1.683,0,0,1,0-3.366ZM56.222,55.952h3.983a3.784,3.784,0,0,0,3.244-5.712,4.044,4.044,0,0,0,1.219-5.986,4.041,4.041,0,0,0,.024-6.51,4.043,4.043,0,0,0-3.187-6.527H53.8c.431-3.722.894-10.536-2.17-13.651A5.676,5.676,0,0,0,46.7,15.994a2.35,2.35,0,0,0-2.089,2.54c.406,4.82.041,7.922-1.2,10.057S39.931,32.036,36.37,32.7a2.767,2.767,0,0,0-2.236-1.138H29.452a2.775,2.775,0,0,0-2.772,2.771v9.646a1.183,1.183,0,0,0,2.366,0V34.335a.414.414,0,0,1,.406-.41h4.682a.414.414,0,0,1,.406.41V53.682a.414.414,0,0,1-.406.41H29.452a.414.414,0,0,1-.406-.41V48.6a1.183,1.183,0,0,0-2.366,0v5.083a2.775,2.775,0,0,0,2.772,2.771h4.682a2.773,2.773,0,0,0,2.447-1.474,15.065,15.065,0,0,1,3.252.682,20.494,20.494,0,0,0,6.739.988c2.325,0,4.756-.236,6.991-.454.935-.091,1.813-.177,2.658-.243ZM19.852,84.633,18.681,86.3l-1.171-1.671.943-9.426c.073,0,.146-.005.219-.005s.154,0,.236.005l.943,9.426ZM18.673,62.258a5.269,5.269,0,1,1-5.268,5.269A5.275,5.275,0,0,1,18.673,62.258ZM28.632,76.72A14.628,14.628,0,0,0,23.3,73.586a7.631,7.631,0,1,0-9.251,0,14.781,14.781,0,0,0-6.2,4,1.179,1.179,0,1,0,1.731,1.6,12.408,12.408,0,0,1,6.479-3.7l-.935,9.349a1.19,1.19,0,0,0,.2.793l2.39,3.416a1.18,1.18,0,0,0,1.935,0l2.382-3.416a1.2,1.2,0,0,0,.211-.793l-.935-9.352a12.284,12.284,0,0,1,9.674,10.905v3.248H6.365V86.387a12.411,12.411,0,0,1,.845-3.469,1.18,1.18,0,1,0-2.187-.887,14.61,14.61,0,0,0-1.016,4.2v4.589A1.18,1.18,0,0,0,5.187,92H32.16a1.18,1.18,0,0,0,1.179-1.181V86.227a14.694,14.694,0,0,0-4.707-9.507Zm46.882,7.913L74.351,86.3,73.18,84.633l.943-9.426c.073,0,.146-.005.219-.005s.154,0,.228.005l.943,9.426ZM74.343,62.258a5.269,5.269,0,1,1-5.276,5.269A5.275,5.275,0,0,1,74.343,62.258ZM89,86.227A14.712,14.712,0,0,0,78.968,73.586a7.629,7.629,0,1,0-9.259,0A14.742,14.742,0,0,0,59.677,86.227c0,.036-.008.071-.008.106v4.483A1.182,1.182,0,0,0,60.856,92H79.6a1.181,1.181,0,1,0,0-2.361H62.035V86.388a12.268,12.268,0,0,1,9.69-10.91l-.935,9.357a1.146,1.146,0,0,0,.2.793l2.39,3.416a1.18,1.18,0,0,0,1.935,0L77.7,85.627a1.2,1.2,0,0,0,.211-.793l-.943-9.352A12.283,12.283,0,0,1,86.65,86.388v3.248H84.22a1.181,1.181,0,0,0,0,2.361h3.609a1.18,1.18,0,0,0,1.179-1.181V86.333A.472.472,0,0,0,89,86.227Z" fill-rule="evenodd"/>
    </g>
  </g>
</svg>
