<svg xmlns="http://www.w3.org/2000/svg" width="84.942" height="85" viewBox="0 0 84.942 85">
  <g id="Grupo_1106540" data-name="Grupo 1106540" transform="translate(-755.939 -8152.058)">
    <path id="Rectángulo_403247" data-name="Rectángulo 403247" d="M37.5,0h0A37.5,37.5,0,0,1,75,37.5V80a0,0,0,0,1,0,0H0a0,0,0,0,1,0,0V37.5A37.5,37.5,0,0,1,37.5,0Z" transform="translate(761.551 8157.058)" fill="#eacf5a"/>
    <g id="derechos-humanos" transform="translate(754.939 8151.058)">
      <path id="Trazado_912254" data-name="Trazado 912254" d="M6,2a5.48,5.48,0,0,1,5.48,5.48V78.722a5.48,5.48,0,1,0,10.96,0v-13.7h41.1V7.48A5.48,5.48,0,0,0,58.061,2Z" transform="translate(1.85 0.37)" fill="#eaf6f4"/>
      <path id="Trazado_912255" data-name="Trazado 912255" d="M34.921,38.921A21.947,21.947,0,0,1,13,17h2.74A19.181,19.181,0,0,0,46.429,32.344l1.48-1.129,1.662,2.178L48.083,34.53a21.748,21.748,0,0,1-13.162,4.391Z" transform="translate(4.44 5.921)" fill="#4c6cb5"/>
      <g id="Grupo_1101765" data-name="Grupo 1101765" transform="translate(2.37 2.37)">
        <path id="Trazado_912256" data-name="Trazado 912256" d="M15,36H45.141v2.74H15Z" transform="translate(2.811 10.581)" fill="#c0e6e0"/>
        <path id="Trazado_912257" data-name="Trazado 912257" d="M15,40H46.511v2.74H15Z" transform="translate(2.811 12.061)" fill="#c0e6e0"/>
        <path id="Trazado_912258" data-name="Trazado 912258" d="M12.96,21.181V7.48A5.48,5.48,0,0,0,2,7.48v13.7Z" transform="translate(-2 -2)" fill="#c0e6e0"/>
        <path id="Trazado_912259" data-name="Trazado 912259" d="M53.731,48H19.48V61.7A5.48,5.48,0,0,1,14,67.181H53.731Z" transform="translate(2.44 15.022)" fill="#c0e6e0"/>
      </g>
      <path id="Trazado_912260" data-name="Trazado 912260" d="M44.85,81.242V46.194A10.96,10.96,0,0,1,38,36.031V18.905a3.425,3.425,0,1,1,6.85,0v-2.74a3.425,3.425,0,1,1,6.85,0v-2.74a3.425,3.425,0,0,1,6.85,0v2.74a3.425,3.425,0,1,1,6.85,0V19.59a5.48,5.48,0,0,1,5.48,5.48v10.96A10.96,10.96,0,0,1,64.031,46.2V81.242Z" transform="translate(13.691 3.33)" fill="#f2b9a1"/>
      <path id="Trazado_912261" data-name="Trazado 912261" d="M44.74,16.5v9.59A2.055,2.055,0,0,0,46.8,28.145v2.74a4.8,4.8,0,0,1-4.8-4.8V16.5Z" transform="translate(15.172 5.736)" fill="#fbe1ca"/>
      <path id="Trazado_912262" data-name="Trazado 912262" d="M50,40.661h2.74a6.858,6.858,0,0,1,6.85-6.85,1.37,1.37,0,0,0,1.37-1.37V24.22a1.37,1.37,0,0,0-1.37-1.37H54.8a2.055,2.055,0,0,1,0-4.11H60.96V16H54.8a4.784,4.784,0,0,0-2.055,9.109v1.166a4.8,4.8,0,0,0,4.8,4.8,4.746,4.746,0,0,0,.685-.055v.152A9.605,9.605,0,0,0,50,40.661Zm8.22-15.07v2.618a2.044,2.044,0,0,1-2.74-1.933V25.59Z" transform="translate(18.132 5.551)" fill="#fbe1ca"/>
      <path id="Trazado_912263" data-name="Trazado 912263" d="M49.74,26.83A2.055,2.055,0,0,0,51.8,28.885v2.74a4.8,4.8,0,0,1-4.8-4.8V14.5h2.74Z" transform="translate(17.022 4.996)" fill="#fbe1ca"/>
      <path id="Trazado_912264" data-name="Trazado 912264" d="M80.462,21.688V19.5a4.8,4.8,0,0,0-4.8-4.8,4.744,4.744,0,0,0-2.3.614,4.732,4.732,0,0,0-6.6-2.873V7.85A6.858,6.858,0,0,0,59.912,1H7.85A6.858,6.858,0,0,0,1,7.85v13.7a1.37,1.37,0,0,0,1.37,1.37h9.59V79.092a6.858,6.858,0,0,0,6.85,6.85H77.722a1.37,1.37,0,0,0,1.37-1.37V50.41a12.278,12.278,0,0,0,6.85-11.049V28.4a6.863,6.863,0,0,0-5.48-6.713Zm-4.8-4.247A2.055,2.055,0,0,1,77.722,19.5v2.055h-4.11V19.5A2.055,2.055,0,0,1,75.667,17.44Zm-6.85-2.74a2.055,2.055,0,0,1,2.055,2.055v5.276a4.766,4.766,0,0,0,0,8.631v1.163a2.055,2.055,0,1,1-4.11,0V16.755A2.055,2.055,0,0,1,68.817,14.7Zm7.535,19.059a2.044,2.044,0,0,1-2.74-1.933v-.685h2.74ZM25.661,22.921c0-1.789,2.8-3.722,7.124-4.746a41.441,41.441,0,0,0,0,9.492C28.464,26.643,25.661,24.71,25.661,22.921Zm9.59,0a37.061,37.061,0,0,1,.363-5.246,30.454,30.454,0,0,1,3.747-.234,30.866,30.866,0,0,1,3.742.228,37.347,37.347,0,0,1,.369,5.252,37.1,37.1,0,0,1-.363,5.249,30.825,30.825,0,0,1-3.747.232,30.454,30.454,0,0,1-3.747-.234,37.062,37.062,0,0,1-.363-5.246Zm10.686-4.74a16.407,16.407,0,0,1,4.92,1.895,4.732,4.732,0,0,0-.536,2.161v3.836a17.2,17.2,0,0,1-4.384,1.615,41.525,41.525,0,0,0,0-9.5Zm-.459-2.9a20.583,20.583,0,0,0-1.77-5.343,13.721,13.721,0,0,1,8.257,7.645,20.749,20.749,0,0,0-6.484-2.3Zm-2.9-.411c-1.047-.1-2.117-.164-3.213-.164s-2.176.053-3.21.148c.87-3.537,2.2-5.628,3.21-5.628s2.347,2.1,3.215,5.65Zm-9.331.384a20.319,20.319,0,0,0-6.473,2.272A13.759,13.759,0,0,1,35,9.937a20.629,20.629,0,0,0-1.759,5.312Zm0,15.333A20.629,20.629,0,0,0,35,35.894a13.759,13.759,0,0,1-8.235-7.583,20.319,20.319,0,0,0,6.476,2.282Zm2.906.411c1.034.095,2.1.148,3.21.148s2.167-.062,3.213-.159c-.866,3.544-2.2,5.639-3.21,5.639s-2.34-2.091-3.21-5.628Zm9.329-.419a22.858,22.858,0,0,0,4.844-1.458v2a13.713,13.713,0,0,1-6.6,4.77,20.709,20.709,0,0,0,1.756-5.31Zm7.585.567V22.236a2.055,2.055,0,0,1,4.11,0v9.59a2.055,2.055,0,1,1-4.11,0Zm6.85-8.905V19.5a2.055,2.055,0,1,1,4.11,0v12.33a2.055,2.055,0,1,1-4.11,0ZM11.96,20.181H3.74V7.85a4.11,4.11,0,1,1,8.22,0ZM14.7,79.092V7.85a6.779,6.779,0,0,0-1.406-4.11H59.912a4.11,4.11,0,0,1,4.11,4.11v7.331a4.732,4.732,0,0,0-6.6,2.877,4.744,4.744,0,0,0-2.3-.618c-.085,0-.163.021-.247.025a16.46,16.46,0,1,0-4.549,17.691v3.489A19.008,19.008,0,0,1,39.361,42.1,19.2,19.2,0,0,1,20.181,22.921H17.44A21.947,21.947,0,0,0,39.361,44.841a21.726,21.726,0,0,0,11.218-3.1,12.245,12.245,0,0,0,6.593,8.668V64.022H24.291a1.37,1.37,0,0,0-1.37,1.37v13.7a4.11,4.11,0,1,1-8.22,0Zm42.471-12.33V83.2H24.255a6.779,6.779,0,0,0,1.406-4.11V66.762ZM83.2,39.361a9.556,9.556,0,0,1-5.994,8.893,1.37,1.37,0,0,0-.856,1.27V83.2H59.912V49.525a1.37,1.37,0,0,0-.856-1.27,9.559,9.559,0,0,1-5.994-8.894V36.14a4.721,4.721,0,0,0,5.48-.969,4.772,4.772,0,0,0,6.85,0,4.772,4.772,0,0,0,6.85,0,4.7,4.7,0,0,0,4.11,1.395v.152a9.605,9.605,0,0,0-8.22,9.493h2.74a6.858,6.858,0,0,1,6.85-6.85,1.37,1.37,0,0,0,1.37-1.37v-8.22a1.37,1.37,0,0,0-1.37-1.37h-4.8a2.055,2.055,0,0,1,0-4.11h6.165A4.11,4.11,0,0,1,83.2,28.4Z"/>
      <path id="Trazado_912265" data-name="Trazado 912265" d="M15,36H45.141v2.74H15Z" transform="translate(5.181 12.951)"/>
      <path id="Trazado_912266" data-name="Trazado 912266" d="M15,40H46.511v2.74H15Z" transform="translate(5.181 14.431)"/>
    </g>
  </g>
</svg>
