<svg xmlns="http://www.w3.org/2000/svg" width="88.45" height="85" viewBox="0 0 88.45 85">
  <g id="Grupo_1106541" data-name="Grupo 1106541" transform="translate(-1175.715 -8152.058)">
    <path id="Rectángulo_403245" data-name="Rectángulo 403245" d="M37.5,0h0A37.5,37.5,0,0,1,75,37.5V80a0,0,0,0,1,0,0H0a0,0,0,0,1,0,0V37.5A37.5,37.5,0,0,1,37.5,0Z" transform="translate(1182.439 8157.058)" fill="#eacf5a"/>
    <g id="derechos-humanos-2" transform="translate(1172.71 8139.187)">
      <path id="Trazado_912287" data-name="Trazado 912287" d="M369.473,302.551a13.932,13.932,0,1,1-27.863,0Z" transform="translate(-279.415 -239.042)" fill="#ffd987" fill-rule="evenodd"/>
      <circle id="Elipse_11532" data-name="Elipse 11532" cx="4.069" cy="4.069" r="4.069" transform="translate(71.24 54.688) rotate(-76.7)" fill="#ffcec0"/>
      <path id="Trazado_912288" data-name="Trazado 912288" d="M391.433,265.711a8.032,8.032,0,0,0-16.058,0Z" transform="translate(-307.278 -202.202)" fill="#85caff" fill-rule="evenodd"/>
      <path id="Trazado_912289" data-name="Trazado 912289" d="M38.868,302.551a13.932,13.932,0,1,1-27.863,0Z" transform="translate(-6.602 -239.042)" fill="#ffd987" fill-rule="evenodd"/>
      <circle id="Elipse_11533" data-name="Elipse 11533" cx="4.069" cy="4.069" r="4.069" transform="translate(12.576 51.633) rotate(-45)" fill="#ffcec0"/>
      <g id="Grupo_1101768" data-name="Grupo 1101768" transform="translate(3.005 12.871)">
        <path id="Trazado_912290" data-name="Trazado 912290" d="M60.828,265.711a8.032,8.032,0,0,0-16.058,0Z" transform="translate(-37.469 -215.073)" fill="#88f288" fill-rule="evenodd"/>
        <path id="Trazado_912291" data-name="Trazado 912291" d="M192.967,112.709l-.137,9.036h17.583l-.1-4.706a10.55,10.55,0,0,1,1.2-5.243c2.73-5.367,5.637-6.586,6.521-13.487.369-2.883.089-5.528-.956-7.29a4.409,4.409,0,0,0-3.538-2.1V85.3a2.967,2.967,0,1,0-5.935,0v-.879a3.109,3.109,0,0,0-6.219,0v.707a2.929,2.929,0,1,0-5.858,0v1.307a2.65,2.65,0,0,0-5.3,0v4.893a2.629,2.629,0,0,0,.407,1.406h0c-2.187,17.785,2.428,14.172,2.341,19.976Z" transform="translate(-157.343 -69.347)" fill="#ffcec0" fill-rule="evenodd"/>
        <path id="Trazado_912292" data-name="Trazado 912292" d="M196.54,283.8a3.019,3.019,0,0,0-3.01,3.01v33.232h21.842V286.811a3.019,3.019,0,0,0-3.01-3.01Z" transform="translate(-160.225 -236.441)" fill="#85caff" fill-rule="evenodd"/>
        <path id="Trazado_912293" data-name="Trazado 912293" d="M56.751,95.075V63.241a1.614,1.614,0,0,0-1.61-1.612H39.321A1.616,1.616,0,0,0,37.7,63.241V95.075Zm34.7-31.359a1.578,1.578,0,0,0-.132-.793L78.31,34.7h5.065a1.4,1.4,0,1,0,0-2.8H66.654a1.4,1.4,0,1,0,0,2.8h7.282L60.922,62.923a1.368,1.368,0,0,0-.126.586,15.33,15.33,0,0,0,30.659.207ZM38.647,51.665c-.994-1.656-2.217-3.692-1.3-12.895a4.045,4.045,0,0,0,3.894-.938,4.321,4.321,0,0,0,5.664-.016,4.509,4.509,0,0,0,3.885,2.231h1.686a13.89,13.89,0,0,0-4.711,8.335,1.4,1.4,0,0,0,2.765.448c.657-4.056,3.051-6.077,4.964-7.7l.489-.412a2,2,0,0,0,.834-2.292c-.194-.537-.725-1.177-2.124-1.177h-3.9a1.718,1.718,0,0,1,0-3.435h7.526a3.371,3.371,0,0,1,3.2,1.466A10.605,10.605,0,0,1,62.3,41.7a16.11,16.11,0,0,1-3.523,8.46,35.132,35.132,0,0,0-2.874,4.6,11.978,11.978,0,0,0-1.264,4.075H39.928l.042-2.5a7.616,7.616,0,0,0-1.323-4.662ZM37.214,34.874a1.256,1.256,0,1,0,2.512,0v-4.9a1.256,1.256,0,1,0-2.512,0Zm5.31-4.9v4.577a1.538,1.538,0,1,0,3.076,0V28.66a1.538,1.538,0,1,0-3.076,0ZM48.4,27.951V31.71a4.468,4.468,0,0,1,2.394-.693h1.045V27.951a1.719,1.719,0,0,0-3.439,0Zm6.237.882v2.185h3.144V28.833a1.572,1.572,0,1,0-3.144,0Zm16.494,67.64a1.4,1.4,0,0,1-1.4,1.4H24.724a1.4,1.4,0,1,1,0-2.8h10.19V63.241a4.4,4.4,0,0,1,2.208-3.82l.051-3.136a4.948,4.948,0,0,0-.919-3.178c-1.281-2.129-2.874-4.778-1.475-16.554a4.125,4.125,0,0,1-.362-1.679v-4.9a4.054,4.054,0,0,1,5.959-3.579,4.323,4.323,0,0,1,6.212-1.251,4.513,4.513,0,0,1,7.139.1A4.324,4.324,0,0,1,56.2,24.46a4.379,4.379,0,0,1,4.374,4.373v2.483a5.575,5.575,0,0,1,3.354,2.538c1.163,1.961,1.568,4.873,1.138,8.2a18.785,18.785,0,0,1-4.012,9.716,32.517,32.517,0,0,0-2.663,4.257,9.037,9.037,0,0,0-1,3.427,4.412,4.412,0,0,1,2.158,3.789V95.075H69.73a1.4,1.4,0,0,1,1.4,1.4ZM30.784,64.907H5.879a12.53,12.53,0,0,0,24.9,0Zm-.708-2.8L18.336,36.643,6.587,62.11H9.048a9.522,9.522,0,0,1,5.192-6.852,5.465,5.465,0,1,1,8.184,0,9.55,9.55,0,0,1,5.2,6.851h2.453Zm-18.171,0H24.758a6.627,6.627,0,0,0-12.853,0Zm6.431-7.8A2.67,2.67,0,1,1,21,51.636,2.673,2.673,0,0,1,18.336,54.306Zm0,24.532A15.348,15.348,0,0,0,33.666,63.508a1.372,1.372,0,0,0-.135-.586L20.519,34.7H31.559a1.4,1.4,0,0,0,0-2.8H11.079a1.4,1.4,0,1,0,0,2.8h5.065L3.131,62.923a1.365,1.365,0,0,0-.126.586A15.348,15.348,0,0,0,18.336,78.839ZM88.584,64.907a12.535,12.535,0,0,1-24.913,0Zm-.716-2.8H85.415a9.55,9.55,0,0,0-5.2-6.851,5.466,5.466,0,0,0-4.088-9.09,5.465,5.465,0,0,0-4.1,9.089,9.543,9.543,0,0,0-5.192,6.852H64.378L76.127,36.643Zm-18.171,0a6.628,6.628,0,0,1,12.853,0H69.7Zm6.431-7.8a2.67,2.67,0,1,1,2.672-2.67A2.673,2.673,0,0,1,76.127,54.307ZM27.733,24.322l3.338,2.136A1.4,1.4,0,1,0,32.579,24.1l-3.346-2.135a1.4,1.4,0,1,0-1.5,2.357Zm28.52-3.638a1.4,1.4,0,0,0,1.964-.228l2.2-2.782a1.4,1.4,0,1,0-2.191-1.737l-2.2,2.782a1.4,1.4,0,0,0,.228,1.965Zm7.83,5.993a1.412,1.412,0,0,0,.758-.22l3.337-2.136a1.4,1.4,0,1,0-1.5-2.357L63.333,24.1a1.4,1.4,0,0,0,.75,2.577ZM37.695,20.456a1.41,1.41,0,0,0,1.1.53,1.367,1.367,0,0,0,.86-.3,1.4,1.4,0,0,0,.228-1.965l-2.2-2.782a1.4,1.4,0,1,0-2.191,1.737l2.2,2.782Zm8.866-2.974V14.269a1.4,1.4,0,0,1,2.8,0v3.213a1.4,1.4,0,0,1-2.8,0Z" transform="translate(-3.005 -12.871)" fill-rule="evenodd"/>
      </g>
    </g>
  </g>
</svg>
