<svg xmlns="http://www.w3.org/2000/svg" xmlns:xlink="http://www.w3.org/1999/xlink" width="609.999" height="589.013" viewBox="0 0 609.999 589.013">
  <defs>
    <clipPath id="clip-path">
      <rect id="Rect치ngulo_403342" data-name="Rect치ngulo 403342" width="609.999" height="589.013" transform="translate(0 -80.026)" fill="none"/>
    </clipPath>
    <clipPath id="clip-path-2">
      <rect id="Rect치ngulo_403341" data-name="Rect치ngulo 403341" width="254.301" height="297.137" fill="#066043"/>
    </clipPath>
  </defs>
  <g id="Grupo_1106526" data-name="Grupo 1106526" transform="translate(-495 -2602)">
    <g id="Grupo_1106504" data-name="Grupo 1106504" transform="translate(495 2682.025)">
      <g id="Grupo_1106510" data-name="Grupo 1106510">
        <g id="Grupo_1106502" data-name="Grupo 1106502" transform="translate(0 0.001)">
          <g id="Grupo_1106501" data-name="Grupo 1106501" clip-path="url(#clip-path)">
            <path id="Trazado_912810" data-name="Trazado 912810" d="M1536.457,731.714l-1.349,4.964c-.223.792-.435,1.658-.729,2.622l-1.1,3.166-1.259,3.589c-.457,1.253-1.057,2.495-1.618,3.829-.586,1.321-1.153,2.714-1.82,4.119l-2.23,4.27-1.163,2.222-1.348,2.19-2.794,4.5c-2.123,2.9-4.166,6-6.664,8.831-2.319,2.969-5.056,5.648-7.674,8.413-2.836,2.553-5.563,5.214-8.577,7.447-2.87,2.407-6,4.37-8.917,6.39-1.514.932-3.041,1.786-4.512,2.654l-2.189,1.274-2.216,1.1-4.248,2.086c-1.392.629-2.778,1.145-4.084,1.689-1.317.517-2.555,1.073-3.774,1.492l-3.482,1.128-3.057.989c-.955.271-1.848.464-2.645.667l-5.02,1.23a.454.454,0,0,1-.24-.875l.033-.01,4.9-1.48c.776-.243,1.646-.478,2.573-.795l2.963-1.136,3.364-1.289c1.175-.474,2.365-1.087,3.629-1.663,1.253-.6,2.582-1.177,3.911-1.864l4.046-2.261,2.1-1.181,2.069-1.358c1.389-.922,2.829-1.83,4.25-2.812,2.737-2.12,5.661-4.172,8.313-6.652,2.8-2.306,5.291-5.022,7.884-7.61,2.376-2.8,4.862-5.494,6.927-8.456,2.244-2.821,4.031-5.892,5.9-8.748l2.424-4.413,1.168-2.137.987-2.164,1.892-4.139c.558-1.358,1.02-2.7,1.506-3.973.458-1.277.971-2.49,1.326-3.66l.969-3.321.857-2.91c.233-.935.406-1.842.584-2.635l1.084-5.028a3.626,3.626,0,0,1,7.09,1.529c-.013.059-.03.129-.046.187" transform="translate(-926.586 -463.564)" fill="#ef674f"/>
            <path id="Trazado_912811" data-name="Trazado 912811" d="M1428.526,944.341l5.8,6.709-.227.212-12.993-2.8-13.2-.666,12.262-4.936,11.37-6.881.276.085Z" transform="translate(-897.565 -596.708)" fill="#ef674f"/>
            <path id="Trazado_912812" data-name="Trazado 912812" d="M1085.945,1063.083l-.832,5.884c-.14.936-.262,1.974-.454,3.1-.221,1.124-.46,2.339-.716,3.638s-.529,2.686-.817,4.145c-.309,1.454-.732,2.955-1.12,4.539-.411,1.576-.793,3.234-1.274,4.924l-1.616,5.2q-.418,1.34-.847,2.715l-1.011,2.732-2.1,5.639c-1.642,3.739-3.2,7.679-5.191,11.488-1.821,3.9-4.05,7.66-6.181,11.483-2.347,3.687-4.587,7.461-7.16,10.925-2.419,3.579-5.129,6.852-7.671,10.092-1.313,1.583-2.68,3.077-3.979,4.575l-1.942,2.21c-.654.715-1.338,1.384-1.993,2.065l-3.848,3.942c-1.258,1.258-2.557,2.386-3.76,3.518-1.22,1.112-2.366,2.209-3.5,3.2l-3.294,2.731-2.9,2.4c-.909.726-1.784,1.34-2.554,1.923l-4.877,3.619a3.627,3.627,0,1,1-4.323-5.824q.062-.047.126-.089l.169-.113,4.822-3.244c.763-.524,1.631-1.072,2.533-1.727l2.885-2.173,3.286-2.472c1.135-.9,2.281-1.9,3.5-2.916,1.207-1.034,2.512-2.061,3.778-3.216l3.884-3.626c.662-.627,1.355-1.243,2.018-1.9l1.973-2.046c1.321-1.388,2.714-2.772,4.056-4.245,2.6-3.019,5.385-6.072,7.891-9.437,2.661-3.25,5-6.816,7.465-10.306,2.246-3.627,4.6-7.2,6.557-10.931,2.13-3.639,3.827-7.424,5.615-11.023l2.323-5.442,1.121-2.644.958-2.632,1.833-5.053c.553-1.645,1-3.262,1.484-4.8.456-1.545.945-3.016,1.317-4.435.35-1.424.682-2.776.995-4.045l.877-3.563c.244-1.11.415-2.145.6-3.072.7-3.716,1.1-5.839,1.1-5.839a.4.4,0,0,1,.789.13" transform="translate(-644.225 -677.447)" fill="#16a085"/>
            <path id="Trazado_912813" data-name="Trazado 912813" d="M1201.813,1037.4l7.113,5.293.195-.241-3.734-12.755q-.812-6.559-1.625-13.118-2.015,6.295-4.031,12.589l-6.035,11.841.1.269Z" transform="translate(-761.004 -648.088)" fill="#066043"/>
            <path id="Trazado_912814" data-name="Trazado 912814" d="M592.911,861.647l-3,1.725L587.5,864.6l.493,2.943c.406,2.494.826,5.51,1.145,8.279.725,5.959,1.116,12.15,1.116,12.208l.044.725-.667.319a25.1,25.1,0,0,1-2.465,1.029l-5.278,2.073-5.423,1.841c-.754.261-1.406.464-1.856.58l-1.392.391-.449-.594c-.043-.058-3.712-5.046-6.989-10.062-1.928-2.914-3.61-5.7-4.451-7.09l-1.508-2.566-2.6.594-3.451.623-1.551.275c-.58.1-1.261.232-1.943.3l-2.61.319c-.333,1.841-1.218,6.539-2.334,11.121-1.363,5.829-3.117,11.788-3.132,11.846l-.217.711-.725.058c-.044,0-1.1.1-2.668.116l-5.655.145-5.727-.145c-1.551-.014-2.61-.116-2.653-.116l-.725-.058-.218-.711c-.014-.058-1.769-6.017-3.132-11.86-1.116-4.567-2-9.265-2.334-11.106l-2.639-.333c-.652-.058-1.334-.189-1.914-.29l-1.551-.275-3.407-.609L506,874.667l-1.508,2.581c-.827,1.378-2.508,4.147-4.451,7.09-3.277,5.017-6.945,10-6.989,10.063l-.45.594L491.2,894.6c-.435-.116-1.087-.319-1.841-.58l-5.379-1.827-5.336-2.088c-1.464-.551-2.421-1-2.465-1.029l-.652-.3.044-.74c0-.058.391-6.249,1.116-12.208.319-2.755.739-5.771,1.145-8.279l.493-2.943-2.363-1.218-3.045-1.74-1.3-.74c-.522-.3-1.145-.653-1.754-1.058l-2.218-1.421-2.305,1.9c-1.885,1.522-4.292,3.378-6.6,5.1-4.814,3.61-9.99,7.047-10.033,7.076l-.652.435-2.653-2.073c-.42-.333-.87-.681-1.348-1.058-.971-.739-2.073-1.595-3.132-2.523l-4.277-3.726-2.465-2.334.3-.7c.029-.058,2.494-5.727,5.191-11.063,2.146-4.248,4.466-8.395,5.394-10l-.188-.188c-.319-.319-.971-1-1.653-1.827l-2.247-2.6-.71-.826-2.972-3.77c-.072-.087-.13-.174-.188-.246-1.725.623-6.191,2.189-10.758,3.552-2.74.826-5.785,1.7-8.105,2.291l-4.466,1.116-3.233-5.06-1.928-3.335c-.928-1.609-1.8-3.117-2.407-4.379l-1.522-2.958,3.19-3.306c1.754-1.8,3.944-3.944,6.032-5.887,3.451-3.262,7.018-6.336,8.439-7.54l-1-2.508-.87-2.2c-.246-.624-.406-1.044-.406-1.044l1.029-.362-1.029.348-1.421-4.176c-.174-.507-.333-.986-.449-1.392l-.072-.261c-1.87-.014-6.583-.073-11.324-.362-3.6-.189-6.8-.479-8.4-.638l-4.567-.479-.754-3.277c-.29-1.145-.551-2.61-.826-4.161l-.783-4.451-.783-6,.7-.348c.058-.029,5.524-2.769,11.135-5.133,4.35-1.87,8.758-3.538,10.5-4.176,0-.1-.014-.2-.014-.3l-.145-5.858,1.087-.029-1.087-.029.145-5.843c0-.116.014-.218.014-.319-1.74-.638-6.148-2.305-10.512-4.176-5.6-2.363-11.063-5.1-11.121-5.133l-.7-.348.768-5.945.8-4.495c.275-1.566.536-3.03.841-4.2l.739-3.248,4.567-.479c1.609-.159,4.828-.449,8.4-.638,4.741-.276,9.453-.348,11.324-.348l.058-.261c.13-.42.29-.9.478-1.406l1.406-4.176,1.029.348-1.029-.362s.159-.42.406-1.058l1.87-4.7c-1.421-1.2-4.988-4.277-8.439-7.54-2.088-1.943-4.277-4.089-6.032-5.887l-3.19-3.306,1.537-2.987c.595-1.232,1.464-2.74,2.392-4.35l1.9-3.291,3.262-5.1,4.451,1.116c2.32.594,5.365,1.45,8.134,2.291,4.553,1.363,9.018,2.929,10.744,3.552.058-.073.116-.16.188-.247l3.683-4.6,2.262-2.61c.667-.812,1.319-1.493,1.653-1.827l.174-.174c-.928-1.609-3.248-5.756-5.394-10-2.7-5.336-5.162-11-5.191-11.063l-.3-.7,2.421-2.305,4.321-3.755c1.058-.913,2.16-1.769,3.132-2.523.478-.377.928-.725,1.334-1.058l2.668-2.073.652.435c.043.029,5.22,3.465,10.033,7.076,2.32,1.725,4.727,3.581,6.583,5.1l2.32,1.9,2.247-1.435c.565-.377,1.174-.725,1.7-1.029l1.334-.754,3-1.725,2.407-1.232-.493-2.943c-.406-2.508-.826-5.524-1.145-8.279-.725-5.959-1.116-12.15-1.116-12.208l-.044-.74.667-.3a25.67,25.67,0,0,1,2.45-1.03l5.292-2.073,5.423-1.841c.754-.261,1.406-.464,1.856-.58l1.392-.391.45.594c.043.058,3.712,5.046,6.989,10.062,1.943,2.943,3.625,5.7,4.451,7.09L506,640.693l2.6-.594,3.451-.624,1.551-.275c.58-.1,1.261-.232,1.943-.3l2.61-.319c.333-1.841,1.218-6.539,2.334-11.121,1.363-5.829,3.117-11.788,3.132-11.846l.218-.7.725-.073c.044,0,1.087-.1,2.668-.116l5.655-.145,5.727.145c1.566.015,2.61.116,2.653.116l.725.073.217.7c.014.058,1.769,6.017,3.132,11.86,1.116,4.567,2,9.265,2.334,11.106l2.639.333c.652.058,1.334.188,1.914.29l1.551.275,3.407.609,2.639.609,1.508-2.566c.841-1.406,2.523-4.19,4.451-7.09,3.277-5.017,6.945-10,6.989-10.062l.449-.594,1.406.391c.435.116,1.087.319,1.841.58l6.466,2.247,4.249,1.667a25.671,25.671,0,0,1,2.45,1.03l.667.319-.044.725c0,.058-.391,6.249-1.116,12.208-.319,2.769-.739,5.785-1.145,8.279l-.493,2.943,2.363,1.218,3.045,1.74,1.334.754c.522.29,1.131.653,1.725,1.044l2.218,1.421,2.305-1.9c1.87-1.508,4.263-3.364,6.6-5.1,4.814-3.61,9.99-7.047,10.033-7.076l.652-.435.624.479,2.03,1.595c.42.333.87.682,1.348,1.058.972.754,2.073,1.595,3.132,2.523l4.278,3.726,2.464,2.334-.3.7c-.029.058-2.494,5.727-5.19,11.063-2.146,4.248-4.466,8.4-5.394,10l.188.189c.537.551,1.145,1.218,1.653,1.827l2.247,2.6.711.826,2.972,3.77c.072.087.13.174.189.247,1.725-.623,6.191-2.189,10.758-3.552,2.755-.841,5.8-1.7,8.105-2.291l4.465-1.116,3.234,5.06,1.914,3.32c.928,1.609,1.812,3.132,2.421,4.393l1.522,2.958-3.189,3.306c-1.754,1.8-3.959,3.944-6.032,5.887-3.451,3.262-7.018,6.336-8.439,7.54l.116.247,1.754,4.466c.261.624.406,1.044.406,1.044l-1,.348,1-.333,1.406,4.147c.174.522.348,1.015.464,1.421l.072.276c1.871,0,6.583.072,11.324.348,3.567.188,6.786.478,8.381.638l4.582.479.754,3.277c.29,1.145.551,2.61.827,4.161l.783,4.451.768,6-.681.348c-.058.029-5.524,2.769-11.135,5.133-4.35,1.87-8.758,3.538-10.5,4.176a2.444,2.444,0,0,0,.015.319l.145,5.843-1.087.029,1.087.029-.145,5.843c0,.116-.015.218-.015.319,1.74.638,6.148,2.305,10.5,4.176,5.611,2.363,11.077,5.1,11.135,5.133l.681.348-.754,5.945-.8,4.509c-.276,1.551-.536,3.016-.841,4.19l-.74,3.248-4.567.479c-1.6.159-4.8.449-8.4.638-4.741.29-9.453.348-11.324.362l-.058.246c-.13.42-.3.9-.478,1.421l-1.406,4.161-1.029-.348,1.029.362s-.145.42-.406,1.058l-1.871,4.7c1.421,1.2,4.988,4.277,8.439,7.54,2.073,1.943,4.277,4.089,6.032,5.887l3.189,3.306-1.537,2.987c-.594,1.232-1.479,2.755-2.407,4.364l-2.32,3.944-2.828,4.437-4.451-1.1c-2.349-.609-5.379-1.479-8.134-2.305-4.553-1.363-9.019-2.929-10.744-3.552-.058.073-.116.159-.189.246l-3.683,4.6-2.262,2.61c-.667.812-1.319,1.493-1.652,1.827l-.174.174c.928,1.609,3.248,5.756,5.394,10,2.7,5.336,5.162,11,5.19,11.063l.3.7-2.421,2.305-4.321,3.755c-1.058.928-2.16,1.783-3.132,2.537-.478.362-.928.71-1.334,1.044-1.232.957-2.044,1.595-2.044,1.595l-.624.478-.652-.435c-.043-.029-5.22-3.465-10.033-7.076-2.32-1.725-4.727-3.6-6.583-5.1l-2.32-1.9-2.247,1.435c-.58.391-1.2.754-1.74,1.044Zm30.3-179.7-2.262-2.61c-.493-.58-1.044-1.2-1.551-1.711l-1.334-1.392.406-.7c.043-.058,3.03-5.234,5.741-10.613,2.117-4.19,4.089-8.584,4.829-10.251l-1.3-1.247-4.263-3.7c-1-.884-2.073-1.711-3.03-2.45-.493-.377-.957-.74-1.363-1.073-.565-.449-1.044-.826-1.406-1.087-1.522,1.029-5.51,3.741-9.28,6.568-2.305,1.725-4.683,3.567-6.525,5.046l-3.523,2.914-3.581-2.305c-.565-.377-1.131-.7-1.609-.971l-1.319-.754-3-1.711-3.755-1.914.768-4.524c.391-2.45.812-5.437,1.131-8.178.565-4.683.928-9.511,1.058-11.338-.406-.159-.957-.406-1.638-.652l-5.307-2.073-5.336-1.812c-.681-.246-1.261-.42-1.682-.536-1.073,1.479-3.9,5.408-6.481,9.352-1.9,2.885-3.567,5.626-4.393,7.018l-2.32,3.929-4.147-.957-3.349-.594-1.551-.276c-.522-.1-1.145-.217-1.769-.275l-4.263-.551-.145-.783c0-.058-1.029-6.017-2.436-11.759-1.073-4.611-2.392-9.265-2.9-11.019-.435-.029-1.029-.058-1.754-.058l-5.684-.145-5.611.145c-.725,0-1.334.029-1.769.058-.508,1.754-1.827,6.409-2.9,11-1.406,5.756-2.436,11.715-2.436,11.773l-.145.783-4.234.536c-.652.073-1.276.188-1.8.29l-1.551.276-3.407.609-4.089.942-2.32-3.944c-.826-1.363-2.479-4.089-4.393-7-2.581-3.944-5.408-7.873-6.481-9.352-.435.116-1,.29-1.682.536l-5.394,1.827-5.249,2.044c-.667.261-1.232.493-1.638.667.131,1.827.493,6.655,1.058,11.338.319,2.726.725,5.713,1.131,8.192l.768,4.509-3.8,1.928-2.958,1.7-1.334.768c-.478.261-1.044.58-1.58.942l-3.6,2.32-3.538-2.914c-1.827-1.493-4.2-3.335-6.51-5.046-3.77-2.827-7.757-5.539-9.279-6.568l-1.421,1.1c-.391.319-.855.681-1.348,1.058-.957.739-2.03,1.566-3.03,2.45l-4.292,3.726-1.276,1.218c.74,1.667,2.711,6.061,4.828,10.251,2.711,5.379,5.7,10.555,5.727,10.613l.421.7-1.319,1.377c-.522.536-1.087,1.146-1.551,1.711l-2.276,2.624-.71.826-2.9,3.7c-.391.493-.652.826-.652.841l-.478.638-.768-.276c-.058-.014-5.64-2.059-11.382-3.77-2.74-.841-5.742-1.682-8.033-2.276l-2.929-.739-2.871,4.582-1.392,2.421c-.9,1.566-1.754,3.045-2.334,4.234l-.826,1.624,2.1,2.189c1.725,1.769,3.9,3.886,5.945,5.814,4.364,4.118,8.931,7.946,8.975,7.989l.638.522-.783,1.74-1.725,4.379c-.232.58-.362.957-.362.971l-1.421,4.176c-.159.478-.319.928-.435,1.3l-.507,1.812h-.826c-.029,0-6.017,0-12.02.348-3.538.188-6.713.479-8.294.638l-3,.319-.406,1.754c-.29,1.131-.551,2.552-.812,4.074l-1.131,7.018-.217,1.783c1.624.812,5.93,2.885,10.309,4.727,5.51,2.378,11.121,4.408,11.179,4.437l.8.29-.1.855c0,.015-.043.406-.058.986l-.145,5.814.145,5.829c.015.565.058.957.058.971l.1.855-.8.29c-.058.029-5.669,2.059-11.164,4.422-4.393,1.856-8.7,3.929-10.323,4.741l.565,4.408.783,4.408c.261,1.508.522,2.929.8,4.031l.42,1.783,3.016.319c1.566.159,4.727.449,8.279.638,6,.348,11.976.377,12.02.348h.826l.522,1.827c.1.362.261.812.42,1.29l1.421,4.19c.015.043.145.406.362.943L425,805.114l-.638.522c-.044.044-4.611,3.871-8.975,7.989-2.059,1.928-4.219,4.045-5.945,5.829l-2.1,2.175.812,1.609c.594,1.2,1.45,2.682,2.349,4.248l1.9,3.291,2.363,3.712,2.943-.74c2.291-.594,5.292-1.45,8.018-2.276,5.742-1.711,11.324-3.755,11.382-3.77l.768-.275.478.638c0,.014.261.348.638.841l3.625,4.524,2.262,2.61c.478.58,1.044,1.189,1.551,1.711l1.334,1.392-.421.7c-.029.058-3.016,5.234-5.727,10.613-2.117,4.19-4.089,8.583-4.828,10.251l1.319,1.247,4.248,3.7c1,.885,2.073,1.711,3.03,2.45.493.377.957.74,1.363,1.073l1.406,1.087c1.522-1.029,5.51-3.741,9.279-6.568,2.291-1.711,4.669-3.552,6.525-5.046l3.523-2.914,3.581,2.305c.565.377,1.145.71,1.624.971l1.3.754,3,1.711,3.755,1.928-.768,4.509c-.406,2.465-.812,5.437-1.131,8.178-.565,4.683-.928,9.511-1.058,11.338.406.159.957.406,1.638.652l5.307,2.073,5.336,1.812c.681.247,1.261.42,1.682.536,1.073-1.479,3.9-5.408,6.481-9.352,1.914-2.914,3.581-5.655,4.393-7.018l2.305-3.944,4.147.971,3.364.594,1.551.276c.522.1,1.145.217,1.769.276l4.263.536.145.8c0,.058,1.029,6.017,2.436,11.759,1.073,4.611,2.392,9.265,2.9,11.019.435.029,1.029.058,1.754.058l5.684.145,5.611-.145c.725,0,1.334-.029,1.769-.058.508-1.754,1.827-6.409,2.9-11,1.406-5.756,2.436-11.715,2.436-11.773l.145-.8,4.234-.522c.652-.073,1.276-.189,1.8-.29l1.551-.276,3.407-.609,4.089-.957,2.32,3.958c.826,1.363,2.494,4.118,4.393,7,2.581,3.944,5.408,7.873,6.481,9.352.42-.116,1-.29,1.682-.536l5.394-1.827,5.234-2.044c.682-.261,1.247-.493,1.653-.667-.13-1.827-.493-6.655-1.058-11.338-.319-2.755-.74-5.727-1.131-8.192l-.768-4.495,3.8-1.943,2.958-1.7,1.29-.739c.493-.276,1.073-.609,1.624-.971l3.6-2.32,3.538,2.914c1.827,1.493,4.2,3.335,6.51,5.046,3.77,2.827,7.757,5.539,9.28,6.568.362-.275.841-.652,1.421-1.1.392-.319.856-.667,1.348-1.058.942-.739,2.03-1.566,3.03-2.45l4.291-3.726,1.276-1.218c-.74-1.667-2.711-6.061-4.829-10.251-2.711-5.379-5.7-10.555-5.741-10.613l-.406-.7,1.319-1.377c.522-.536,1.087-1.145,1.552-1.711l2.276-2.624,3.61-4.524c.391-.493.652-.826.652-.841l.479-.638.768.275c.058.014,5.64,2.059,11.382,3.77,2.726.826,5.727,1.682,8.032,2.276l2.914.74,2.407-3.755,1.856-3.233c.914-1.566,1.769-3.059,2.349-4.248l.827-1.624-2.1-2.189c-1.725-1.769-3.9-3.886-5.944-5.814-4.364-4.118-8.932-7.946-8.975-7.989l-.638-.522.783-1.74L643.338,799c.218-.551.348-.914.362-.957l1.406-4.176c.174-.479.334-.943.449-1.319l.507-1.812h.827s6,0,12-.348c3.567-.188,6.728-.478,8.308-.638l3-.319.406-1.754c.29-1.131.551-2.552.812-4.06l.8-4.451.551-4.364c-1.624-.812-5.93-2.885-10.309-4.727-5.509-2.378-11.12-4.408-11.179-4.437l-.8-.29.1-.855c0-.015.043-.406.058-.986l.145-5.814-.145-5.829c-.015-.566-.058-.957-.058-.971l-.1-.855.8-.29c.058-.029,5.67-2.059,11.165-4.422,4.393-1.856,8.7-3.929,10.323-4.741l-.566-4.408-.783-4.408c-.261-1.508-.522-2.929-.8-4.031l-.421-1.783-3.015-.319c-1.566-.159-4.756-.45-8.279-.638-6-.348-12.005-.333-12.02-.348h-.827l-.522-1.827c-.1-.362-.261-.826-.435-1.319l-1.406-4.161c-.014-.029-.145-.406-.362-.942l-2.508-6.133.638-.522c.044-.043,4.611-3.871,8.961-7.989,2.059-1.928,4.233-4.045,5.959-5.829l2.1-2.175-.827-1.609c-.58-1.2-1.435-2.7-2.349-4.263l-3.291-5.466-.957-1.522-2.943.739c-2.277.594-5.278,1.435-8.018,2.276-5.742,1.711-11.324,3.755-11.382,3.77l-.768.276-.479-.638c0-.015-.261-.348-.638-.841Z" transform="translate(-249.073 -391.808)" fill="#f1f2f2"/>
            <path id="Trazado_912815" data-name="Trazado 912815" d="M676.363,740l.565,4.408c-1.624.812-5.93,2.885-10.323,4.741-5.5,2.363-11.106,4.393-11.165,4.422l-.8.29.1.855c0,.014.044.406.058.971l.145,5.829-.145,5.814c-.014.58-.058.971-.058.986l-.1.855.8.29c.058.029,5.67,2.059,11.179,4.437,4.379,1.841,8.685,3.915,10.309,4.727l-.551,4.364-.8,4.451c-.261,1.508-.522,2.929-.812,4.06l-.406,1.754-3,.319c-1.58.159-4.741.449-8.308.638-6,.348-12,.348-12,.348h-.827l-.507,1.812c-.116.377-.276.841-.45,1.319l-1.406,4.176c-.014.043-.145.406-.362.957L645.77,807.2l-.783,1.74.638.522c.044.044,4.611,3.871,8.975,7.989,2.044,1.928,4.219,4.045,5.945,5.814l2.1,2.189-.827,1.624c-.58,1.189-1.435,2.682-2.349,4.248l-1.856,3.233-2.407,3.755-2.914-.74c-2.305-.594-5.307-1.45-8.033-2.276-5.742-1.711-11.324-3.755-11.382-3.77l-.768-.275-.478.638c0,.014-.261.348-.653.841l-3.61,4.524-2.276,2.624c-.464.566-1.029,1.174-1.551,1.711l-1.319,1.377.406.7c.043.058,3.03,5.234,5.742,10.613,2.117,4.19,4.088,8.583,4.828,10.251l-1.276,1.218-4.291,3.726c-1,.884-2.088,1.711-3.03,2.45-.493.392-.957.74-1.348,1.058-.58.449-1.058.826-1.421,1.1-1.522-1.029-5.51-3.741-9.28-6.568-2.305-1.711-4.683-3.552-6.51-5.046l-3.538-2.914-3.6,2.32c-.551.362-1.131.7-1.624.971l-1.29.739-2.958,1.7-3.8,1.943.768,4.495c.391,2.465.812,5.437,1.131,8.192.565,4.683.928,9.511,1.058,11.338-.406.174-.971.406-1.653.667l-5.234,2.044-5.394,1.827c-.681.246-1.261.42-1.682.536-1.073-1.479-3.9-5.408-6.481-9.352-1.9-2.885-3.567-5.64-4.393-7l-2.32-3.958-4.089.957-3.407.609-1.551.276c-.522.1-1.145.217-1.8.29l-4.234.522-.145.8c0,.058-1.029,6.017-2.436,11.773-1.073,4.6-2.392,9.25-2.9,11-.435.029-1.044.058-1.769.058l-5.611.145-5.684-.145c-.725,0-1.319-.029-1.754-.058-.508-1.754-1.827-6.409-2.9-11.019-1.406-5.742-2.436-11.7-2.436-11.759l-.145-.8-4.263-.536c-.623-.058-1.247-.174-1.769-.276l-1.551-.276-3.364-.594-4.147-.971-2.305,3.944c-.812,1.363-2.479,4.1-4.393,7.018-2.581,3.944-5.408,7.873-6.481,9.352-.42-.116-1-.29-1.682-.536l-5.336-1.812-5.307-2.073c-.681-.246-1.232-.493-1.638-.652.13-1.827.493-6.655,1.058-11.338.319-2.74.725-5.713,1.131-8.178l.768-4.509-3.755-1.928-3-1.711-1.3-.754c-.479-.261-1.058-.594-1.624-.971l-3.581-2.305-3.523,2.914c-1.856,1.493-4.234,3.335-6.525,5.046-3.77,2.827-7.757,5.539-9.279,6.568L450.9,873c-.406-.333-.87-.7-1.363-1.073-.957-.74-2.03-1.566-3.03-2.45l-4.248-3.7-1.319-1.247c.739-1.667,2.711-6.061,4.828-10.251,2.711-5.379,5.7-10.555,5.727-10.613l.42-.7-1.334-1.392c-.507-.522-1.073-1.131-1.551-1.711l-2.262-2.61-3.625-4.524c-.377-.493-.638-.826-.638-.841l-.478-.638-.768.275c-.058.014-5.64,2.059-11.382,3.77-2.726.826-5.727,1.682-8.018,2.276l-2.943.74-2.363-3.712-1.9-3.291c-.9-1.566-1.754-3.045-2.349-4.248l-.812-1.609,2.1-2.175c1.725-1.783,3.886-3.9,5.945-5.829,4.364-4.118,8.931-7.946,8.975-7.989l.638-.522-2.508-6.133c-.217-.536-.348-.9-.362-.943l-1.421-4.19c-.159-.478-.319-.928-.42-1.29l-.522-1.827h-.826c-.043.029-6.017,0-12.02-.348-3.552-.188-6.713-.478-8.279-.638l-3.016-.319-.421-1.783c-.275-1.1-.536-2.523-.8-4.031l-.783-4.408-.565-4.408c1.624-.812,5.93-2.885,10.323-4.741,5.5-2.363,11.106-4.393,11.164-4.422l.8-.29-.1-.855c0-.015-.044-.406-.058-.971l-.145-5.829.145-5.814c.014-.58.058-.971.058-.986l.1-.855-.8-.29c-.058-.029-5.669-2.059-11.179-4.437-4.379-1.841-8.685-3.915-10.309-4.727l.217-1.783,1.131-7.018c.261-1.522.522-2.943.812-4.074l.406-1.754,3-.319c1.58-.159,4.756-.45,8.294-.638,6-.348,11.991-.348,12.02-.348h.826l.507-1.812c.116-.377.275-.826.435-1.3l1.421-4.176c0-.014.13-.391.362-.971l1.725-4.379.783-1.74-.638-.522c-.044-.043-4.611-3.871-8.975-7.989-2.044-1.928-4.219-4.045-5.945-5.814l-2.1-2.189.826-1.624c.58-1.189,1.435-2.668,2.334-4.234l1.392-2.421,2.871-4.582,2.929.739c2.291.595,5.292,1.435,8.033,2.276,5.742,1.711,11.324,3.755,11.382,3.77l.768.276.478-.638c0-.015.261-.348.652-.841l2.9-3.7.71-.826,2.276-2.624c.464-.565,1.029-1.174,1.551-1.711l1.319-1.377-.42-.7c-.029-.058-3.016-5.234-5.727-10.613-2.117-4.19-4.089-8.584-4.828-10.251l1.276-1.218,4.292-3.726c1-.884,2.073-1.711,3.03-2.45.493-.377.957-.74,1.348-1.058l1.421-1.1c1.522,1.029,5.51,3.741,9.279,6.568,2.305,1.711,4.683,3.552,6.51,5.046l3.538,2.914,3.6-2.32c.536-.362,1.1-.681,1.58-.942l1.334-.768,2.958-1.7,3.8-1.928-.768-4.509c-.406-2.479-.812-5.466-1.131-8.192-.565-4.683-.928-9.512-1.058-11.338.406-.174.971-.406,1.638-.667l5.249-2.044,5.394-1.827c.681-.247,1.247-.421,1.682-.536,1.073,1.479,3.9,5.408,6.481,9.352,1.914,2.914,3.567,5.64,4.393,7L509.1,647l4.089-.943,3.407-.609,1.551-.276c.522-.1,1.145-.217,1.8-.29l4.234-.536.145-.783c0-.058,1.029-6.017,2.436-11.773,1.073-4.6,2.392-9.251,2.9-11,.435-.029,1.044-.058,1.769-.058l5.611-.145,5.684.145c.725,0,1.319.029,1.754.058.508,1.754,1.827,6.409,2.9,11.019,1.406,5.742,2.436,11.7,2.436,11.759l.145.783,4.263.551c.623.058,1.247.174,1.769.276l1.551.276,3.349.594,4.147.957,2.32-3.929c.826-1.392,2.494-4.132,4.393-7.018,2.581-3.944,5.408-7.873,6.481-9.352.42.116,1,.29,1.682.536l5.336,1.812,5.307,2.073c.681.247,1.232.493,1.638.653-.13,1.827-.493,6.655-1.058,11.338-.319,2.74-.739,5.727-1.131,8.177l-.768,4.524,3.755,1.914,3,1.711,1.319.754c.478.276,1.044.594,1.609.971l3.581,2.305,3.523-2.914c1.841-1.479,4.219-3.32,6.525-5.046,3.77-2.827,7.757-5.539,9.28-6.568.362.261.841.638,1.406,1.087.406.333.87.7,1.363,1.073.957.74,2.03,1.566,3.03,2.45l4.263,3.7,1.3,1.247c-.74,1.667-2.711,6.061-4.828,10.251-2.711,5.379-5.7,10.555-5.742,10.613l-.406.7,1.334,1.392c.507.507,1.058,1.131,1.551,1.711l2.262,2.61L631,690.292c.377.493.638.826.638.841l.478.638.768-.276c.058-.014,5.64-2.059,11.382-3.77,2.74-.841,5.741-1.682,8.018-2.276l2.943-.739.957,1.522,3.291,5.466c.914,1.566,1.769,3.059,2.349,4.263l.827,1.609-2.1,2.175c-1.725,1.783-3.9,3.9-5.959,5.829-4.35,4.118-8.917,7.946-8.961,7.989l-.638.522,2.508,6.133c.218.536.348.913.362.942l1.406,4.161c.174.493.333.957.435,1.319l.522,1.827h.827c.014.015,6.017,0,12.02.348,3.523.188,6.713.479,8.279.638l3.016.319.42,1.783c.275,1.1.537,2.523.8,4.031Z" transform="translate(-253.229 -395.633)" fill="#8ed5a5"/>
            <path id="Trazado_912816" data-name="Trazado 912816" d="M725.477,984.541a32.735,32.735,0,1,1,32.735-32.735,32.772,32.772,0,0,1-32.735,32.735" transform="translate(-441.637 -585.927)" fill="#f1f2f2"/>
            <path id="Trazado_912817" data-name="Trazado 912817" d="M1095.629,367.574l2.291-2.465c1.087-1.2,2.32-2.32,2.334-2.334l.609-.565-2.059-4.089c-.71-1.421-2.088-4.306-3.436-7.511-1.029-2.436-2.145-5.263-3.074-7.772-.449-1.232-.8-2.233-1.015-2.856l1.537-1.218c1.087-.9,2.581-1.957,4.175-3.074l.551-.406c1.16-.826,2.392-1.595,3.466-2.276.536-.333,1.029-.652,1.45-.928.682-.42,1.247-.754,1.653-.986l2.349,1.986c1.175,1,3.552,3.074,6.162,5.6,1.914,1.827,4.045,3.973,5.829,5.858,1.508,1.609,2.508,2.74,2.508,2.74l.537.609,3.769-1.711,3.161-1.261,3.175-1.116c1.522-.551,3.117-.971,3.131-.971l.8-.217.087-4.582c.044-1.609.159-4.843.449-8.25.377-4.683,1.073-9.5,1.349-11.309l2.741-.493c.58-.1,1.2-.217,1.841-.319l3.175-.406c1.523-.217,3.06-.333,4.423-.435.507-.029.986-.072,1.421-.1.783-.073,1.435-.1,1.885-.131.7,1.682,2.523,6.191,4,10.671,1.929,5.7,3.379,11.469,3.393,11.527l.188.8,4.191.232c1.638.087,3.276.333,3.291.333l.16-1.073-.145,1.073,1.044.13c.218.029.464.058.725.087.464.058,1,.116,1.551.232l4.118.739.376-.7c.029-.058,2.8-5.307,6.017-10.367,1.74-2.784,3.48-5.292,4.625-6.9l1.812-2.494c.45.116,1.073.3,1.8.536.508.174,1.073.362,1.682.565,1.2.406,2.581.855,3.9,1.392l.652.247c1.8.71,3.509,1.377,4.8,2l1.769.8c-.058.667-.159,1.711-.3,3.03-.29,2.653-.7,5.669-1.116,8.279-.406,2.552-.972,5.51-1.537,8.105l-1.03,4.48.725.391c.015,0,1.465.783,2.842,1.711l1.551,1,1.233.841,2.726,1.943,3.306,2.61.667-.464s1.233-.855,3.089-2.059c1.3-.841,3.929-2.508,7.061-4.306,3.06-1.783,5.9-3.248,7.308-3.958l2.77-1.363c.333.319.8.768,1.333,1.319.363.391.783.826,1.218,1.276.885.913,1.885,1.943,2.813,3.045,1.508,1.725,2.842,3.262,3.785,4.509l1.189,1.522c-.362.565-.943,1.45-1.682,2.552-1.464,2.189-3.219,4.669-4.814,6.8-2.03,2.74-4.089,5.234-5.118,6.481l-2.987,3.48.464.7s.927,1.377,1.711,2.842l1.145,1.972.479.942.971-.493-.957.507s.783,1.493,1.494,2.972l1.725,3.828.8-.1c.015,0,1.493-.189,3.7-.377,2.595-.246,5.6-.449,8.25-.551,3.466-.145,6.7-.13,8.308-.1l3.088.073c.145.435.348,1.058.565,1.8.145.507.319,1.087.493,1.7.348,1.218.754,2.61,1.073,4l.3,1.29c.377,1.653.74,3.2.943,4.466l.334,1.914c-.566.333-1.493.841-2.653,1.464-2.349,1.276-5.061,2.639-7.468,3.784-2.508,1.189-5.249,2.407-7.525,3.335l-4.248,1.682.16,2.2c.043.565.1,1.232.1,1.943l.087,3.378-.087,3.393c0,.681-.058,1.348-.1,1.914l-.16,2.2,4.234,1.682c2.29.928,5.031,2.146,7.554,3.335,2.392,1.145,5.1,2.523,7.453,3.784,1.16.624,2.088,1.131,2.653,1.464l-.348,1.928c-.189,1.247-.551,2.8-.928,4.451l-.3,1.29c-.319,1.392-.725,2.784-1.073,4-.174.609-.348,1.189-.478,1.667-.232.754-.435,1.392-.58,1.827l-3.074.072c-1.624.029-4.857.044-8.323-.1-2.653-.1-5.655-.3-8.25-.551-2.2-.188-3.683-.377-3.7-.377l-.8-.1-1.711,3.8c-.725,1.508-1.508,2.987-1.508,3l.957.507-.971-.493-1.624,2.943c-.783,1.421-1.711,2.813-1.711,2.827l-.464.681,2.972,3.48c1.044,1.247,3.118,3.755,5.133,6.481,1.58,2.117,3.349,4.6,4.814,6.8.739,1.1,1.319,2,1.682,2.552l-1.2,1.537c-.942,1.247-2.32,2.842-3.77,4.509-.927,1.087-1.928,2.117-2.812,3.03-.435.464-.856.884-1.189,1.261-.551.551-1.03,1.015-1.363,1.334l-2.755-1.363c-1.421-.71-4.263-2.175-7.323-3.958-3.132-1.8-5.756-3.465-7.061-4.306-1.856-1.2-3.089-2.059-3.089-2.059l-.667-.464-3.262,2.581-2.755,1.972-2.828,1.856c-1.348.913-2.8,1.7-2.813,1.7l-.725.406,1.03,4.466c.565,2.581,1.131,5.539,1.537,8.12s.826,5.611,1.116,8.265c.145,1.319.247,2.363.3,3.03l-1.783.812c-1.276.609-2.987,1.276-4.785,1.986l-.652.246c-1.32.536-2.7.986-3.9,1.392l-1.653.551c-.74.247-1.377.435-1.827.551l-1.8-2.479c-1.16-1.624-2.9-4.132-4.64-6.916-3.219-5.06-5.988-10.309-6.017-10.352l-.376-.71-4.147.739c-.521.116-1.058.174-1.522.232-.261.029-.507.058-.711.087l-1.058.131.13,1.015-.145-1.015c-.014,0-1.652.246-3.305.333l-2.277.174-1.9.058-.188.8c-.014.058-1.464,5.829-3.393,11.541-1.479,4.466-3.306,8.975-4,10.657-.45-.029-1.1-.058-1.885-.13-.435-.029-.928-.073-1.435-.1-1.363-.1-2.9-.217-4.437-.435l-3.132-.406c-.653-.1-1.291-.217-1.856-.319l-2.741-.493c-.276-1.812-.971-6.626-1.349-11.309-.29-3.407-.406-6.641-.449-8.25l-.087-4.582-.8-.2c-.014-.015-1.609-.435-3.161-.986l-2.16-.739-.986-.377-3.1-1.232-3.827-1.74-.537.609s-1,1.131-2.523,2.74c-1.783,1.9-3.9,4.031-5.814,5.872s-4.161,3.871-6.162,5.582l-2.349,1.986c-.406-.232-.957-.565-1.624-.957q-.674-.457-1.479-.957c-1.087-.681-2.305-1.45-3.466-2.276l-.536-.391c-1.595-1.116-3.088-2.189-4.2-3.1l-1.522-1.189c.218-.638.565-1.638,1.015-2.885.914-2.494,2.045-5.321,3.074-7.757,1.349-3.2,2.726-6.09,3.422-7.511l2.073-4.089-.609-.565c-.014,0-1.232-1.116-2.349-2.349l-1.58-1.653-.7-.8-.826.71.812-.725s-1.117-1.261-2.175-2.537l-2.6-3.291-.74.276c-.014.014-1.406.536-3.508,1.261-2.45.855-5.322,1.769-7.873,2.508-3.132.913-6.1,1.653-8.047,2.1l-3,.667-.246-.391c-.217-.319-.479-.725-.74-1.2s-.565-1-.9-1.551c-.638-1.1-1.363-2.334-2-3.625-.9-1.74-1.928-3.741-2.581-5.278l-.8-1.769c.478-.464,1.261-1.189,2.233-2.073,1.986-1.8,4.277-3.784,6.322-5.452,2.667-2.2,5.234-4.118,6.525-5.06l3.726-2.668-.276-.768c0-.029-.566-1.58-.986-3.175l-.87-3.219-.754-3.262-.725-4.132-.812-.1c-.014,0-1.507-.174-3.7-.507-2.567-.392-5.524-.928-8.12-1.464-2.755-.565-5.785-1.276-8.105-1.885l-2.958-.826-.145-1.9c-.058-1.145-.087-2.552-.116-4.045l-.044-1.812.044-1.856c.029-1.493.058-2.9.116-4.016l.145-1.928,2.943-.812c2.335-.623,5.365-1.334,8.12-1.9,2.6-.536,5.553-1.073,8.12-1.464,2.189-.333,3.683-.507,3.7-.507l.812-.1.725-4.089.754-3.306.87-3.248c.42-1.566.986-3.117.986-3.132l.276-.783-3.712-2.668c-1.305-.942-3.886-2.856-6.539-5.06-2.045-1.667-4.35-3.654-6.322-5.452-.971-.884-1.755-1.609-2.233-2.073l.8-1.783c.623-1.45,1.61-3.393,2.6-5.292.623-1.261,1.348-2.494,1.986-3.581.334-.565.638-1.087.9-1.566s.522-.884.74-1.2l.246-.392,3,.667c1.943.449,4.916,1.174,8.047,2.1,2.552.739,5.423,1.653,7.888,2.508,2.088.725,3.48,1.247,3.494,1.261l.74.275,2.581-3.277c1.073-1.29,2.19-2.552,2.19-2.552l-.812-.725Z" transform="translate(-670.421 -201.827)" fill="#eed97b"/>
            <path id="Trazado_912818" data-name="Trazado 912818" d="M1067.271,406.989c-2.566.391-5.524.928-8.12,1.464-2.755.565-5.785,1.276-8.12,1.9l-2.943.812-.145,1.928c-.058,1.116-.087,2.523-.116,4.016l-.043,1.856.043,1.812c.029,1.493.058,2.9.116,4.045l.145,1.9,2.958.826c2.32.609,5.351,1.319,8.105,1.885,2.6.536,5.553,1.073,8.12,1.464,2.189.333,3.683.507,3.7.507l.812.1.725,4.132.754,3.262.87,3.219c.42,1.595.986,3.146.986,3.175l.276.768-3.726,2.668c-1.29.942-3.857,2.856-6.525,5.06-2.045,1.667-4.335,3.654-6.322,5.452-.971.884-1.754,1.609-2.233,2.073l.8,1.769c.652,1.537,1.682,3.538,2.581,5.278.638,1.29,1.363,2.523,2,3.625.334.551.638,1.073.9,1.551s.522.884.739,1.2l.247.392,3-.667c1.943-.449,4.915-1.189,8.047-2.1,2.552-.739,5.423-1.653,7.873-2.508,2.1-.725,3.494-1.247,3.509-1.261l.739-.275,2.6,3.291c1.058,1.276,2.175,2.537,2.175,2.537l-.812.725.827-.711.7.8,1.58,1.653c1.117,1.232,2.334,2.349,2.349,2.349l.609.565-2.073,4.089c-.7,1.421-2.073,4.306-3.422,7.511-1.03,2.436-2.16,5.263-3.074,7.757-.449,1.247-.8,2.247-1.014,2.885l1.522,1.189c1.116.913,2.61,1.986,4.2,3.1l.537.391c1.16.826,2.378,1.595,3.465,2.276q.8.5,1.479.957c.667.391,1.218.725,1.624.957l2.349-1.986c2-1.711,4.248-3.755,6.162-5.582s4.031-3.973,5.814-5.872c1.522-1.609,2.523-2.74,2.523-2.74l.536-.609,3.828,1.74,3.1,1.232.986.377,2.16.74c1.551.551,3.146.971,3.161.986l.8.2.087,4.582c.044,1.609.16,4.843.449,8.25.377,4.683,1.073,9.5,1.349,11.309l2.74.493c.565.1,1.2.218,1.856.319l3.132.406c1.537.217,3.074.333,4.437.435.507.029,1,.073,1.435.1.783.072,1.435.1,1.885.13.7-1.682,2.523-6.191,4-10.657,1.928-5.713,3.378-11.483,3.393-11.541l.188-.8,1.9-.058,2.276-.174c1.653-.087,3.291-.333,3.306-.333l.145,1.015-.131-1.015,1.058-.13c.2-.029.45-.058.711-.087.464-.058,1-.116,1.522-.232l4.147-.739.377.71c.029.043,2.8,5.292,6.017,10.352,1.74,2.784,3.48,5.292,4.64,6.916l1.8,2.479c.449-.116,1.087-.3,1.827-.551l1.653-.551c1.2-.406,2.581-.855,3.9-1.392l.652-.246c1.8-.71,3.509-1.377,4.785-1.986l1.783-.812c-.058-.667-.16-1.711-.3-3.03-.29-2.653-.7-5.669-1.116-8.265s-.971-5.539-1.537-8.12l-1.03-4.466.725-.406c.015,0,1.464-.783,2.813-1.7l2.827-1.856,2.755-1.972,3.262-2.581.667.464s1.233.855,3.088,2.059c1.305.841,3.929,2.508,7.061,4.306,3.059,1.783,5.9,3.248,7.322,3.958l2.755,1.363c.333-.319.812-.783,1.363-1.334.333-.377.754-.8,1.189-1.261.885-.913,1.885-1.943,2.813-3.03,1.45-1.667,2.827-3.262,3.77-4.509l1.2-1.537c-.362-.551-.942-1.45-1.682-2.552-1.464-2.2-3.233-4.683-4.814-6.8-2.015-2.726-4.089-5.234-5.133-6.481l-2.972-3.48.464-.682c0-.014.928-1.406,1.711-2.827l1.624-2.943.971.493-.957-.507c0-.015.783-1.493,1.508-3l1.711-3.8.8.1c.015,0,1.493.188,3.7.377,2.6.246,5.6.449,8.25.551,3.465.145,6.7.13,8.323.1l3.074-.073c.145-.435.348-1.073.58-1.827.13-.478.3-1.058.478-1.667.348-1.218.754-2.61,1.073-4l.3-1.29c.377-1.653.74-3.2.928-4.451l.348-1.928c-.565-.333-1.494-.841-2.653-1.464-2.349-1.261-5.06-2.639-7.453-3.784-2.523-1.189-5.263-2.407-7.554-3.335l-4.234-1.682.159-2.2c.044-.565.1-1.232.1-1.914l.087-3.393-.087-3.378c0-.71-.058-1.377-.1-1.943l-.159-2.2,4.248-1.682c2.276-.928,5.017-2.146,7.525-3.335,2.407-1.145,5.118-2.508,7.467-3.784,1.16-.623,2.088-1.131,2.653-1.464l-.334-1.914c-.2-1.261-.565-2.813-.942-4.466l-.3-1.29c-.319-1.392-.725-2.784-1.073-4-.174-.609-.348-1.189-.493-1.7-.217-.739-.42-1.363-.565-1.8l-3.088-.072c-1.609-.029-4.843-.044-8.308.1-2.653.1-5.655.3-8.25.551-2.2.189-3.683.377-3.7.377l-.8.1-1.725-3.828c-.71-1.479-1.493-2.972-1.493-2.972l.957-.507-.971.493-.479-.942-1.145-1.972c-.783-1.464-1.711-2.842-1.711-2.842l-.464-.7,2.987-3.48c1.029-1.247,3.088-3.741,5.118-6.481,1.595-2.131,3.349-4.611,4.814-6.8.739-1.1,1.319-1.986,1.682-2.552l-1.189-1.522c-.943-1.247-2.276-2.784-3.784-4.509-.928-1.1-1.928-2.131-2.813-3.045-.435-.449-.855-.884-1.218-1.276-.536-.551-1-1-1.334-1.319l-2.769,1.363c-1.406.71-4.248,2.175-7.308,3.958-3.132,1.8-5.756,3.465-7.061,4.306-1.856,1.2-3.088,2.059-3.088,2.059l-.667.464-3.306-2.61-2.726-1.943-1.232-.841-1.552-1c-1.377-.928-2.827-1.711-2.842-1.711l-.725-.391,1.03-4.48c.565-2.6,1.131-5.553,1.537-8.105.42-2.61.826-5.626,1.116-8.279.145-1.319.246-2.363.3-3.03l-1.769-.8c-1.291-.623-3-1.29-4.8-2l-.652-.246c-1.319-.536-2.7-.986-3.9-1.392-.609-.2-1.174-.391-1.682-.565-.725-.232-1.348-.42-1.8-.536l-1.812,2.494c-1.145,1.609-2.885,4.118-4.625,6.9-3.219,5.06-5.988,10.309-6.017,10.367l-.377.7-4.118-.739c-.551-.116-1.088-.174-1.551-.232-.261-.029-.507-.058-.725-.087l-1.044-.131.145-1.073-.16,1.073c-.015,0-1.653-.246-3.291-.333l-4.19-.232-.188-.8c-.015-.058-1.464-5.829-3.393-11.527-1.479-4.48-3.306-8.99-4-10.671-.449.029-1.1.058-1.885.13-.435.029-.913.073-1.421.1-1.363.1-2.9.217-4.423.435l-3.175.406c-.638.1-1.261.217-1.841.319l-2.74.493c-.275,1.812-.971,6.626-1.349,11.309-.29,3.407-.406,6.641-.449,8.25l-.087,4.582-.8.217c-.015,0-1.609.42-3.132.971l-3.175,1.116-3.161,1.261-3.77,1.711-.536-.609s-1-1.131-2.508-2.74c-1.784-1.885-3.915-4.031-5.829-5.858-2.61-2.523-4.988-4.6-6.162-5.6l-2.349-1.986c-.406.232-.971.565-1.653.986-.421.275-.913.594-1.45.928-1.073.682-2.305,1.45-3.465,2.276l-.551.406c-1.595,1.116-3.088,2.175-4.176,3.074l-1.537,1.218c.217.623.565,1.624,1.014,2.856.928,2.508,2.045,5.336,3.074,7.772,1.348,3.2,2.725,6.09,3.436,7.511l2.059,4.089-.609.565c-.014.014-1.247,1.131-2.334,2.334l-2.291,2.465-.827-.711.812.725s-1.116,1.261-2.189,2.552l-2.581,3.277-.739-.276c-.014-.015-1.406-.536-3.494-1.261-2.465-.855-5.336-1.769-7.888-2.508-3.132-.928-6.1-1.653-8.047-2.1l-3-.667-.247.391c-.217.319-.478.725-.739,1.2s-.566,1-.9,1.566c-.638,1.087-1.363,2.32-1.986,3.581-.986,1.9-1.972,3.842-2.6,5.292l-.8,1.783c.479.464,1.261,1.189,2.233,2.073,1.972,1.8,4.277,3.784,6.322,5.452,2.653,2.2,5.234,4.118,6.539,5.06l3.712,2.668-.276.783c0,.015-.565,1.566-.986,3.132l-.87,3.248-.754,3.306-.725,4.089-.812.1c-.015,0-1.508.174-3.7.507m-6.307-43.686c.29-.536.58-.986.812-1.348l1.058-1.653,4.495,1c1.972.449,5,1.2,8.177,2.131,2.581.754,5.5,1.667,7.989,2.537,1.2.42,2.175.768,2.8,1l1.61-2.044c1.088-1.319,2.2-2.566,2.247-2.624l.7-.8,1.653-1.74c.667-.725,1.377-1.421,1.856-1.885l-1.334-2.639c-.71-1.464-2.117-4.379-3.48-7.641-1.044-2.45-2.175-5.321-3.1-7.859-.812-2.189-1.291-3.654-1.291-3.654l-.246-.725,2.726-2.146c1.131-.928,2.653-2.015,4.277-3.161l.566-.391c1.2-.855,2.45-1.653,3.552-2.349.522-.333,1.015-.638,1.45-.928,1.435-.87,2.407-1.406,2.407-1.406l.653-.362,3.509,2.943c1.2,1.029,3.61,3.132,6.264,5.7,1.943,1.856,4.089,4.016,5.9,5.93.87.928,1.58,1.7,2.03,2.2l2.363-1.073,3.2-1.276,1.494-.565,1.754-.594c.928-.333,1.87-.623,2.508-.8l.058-2.958c.044-1.653.16-4.93.464-8.4.479-5.988,1.464-12.165,1.479-12.237l.116-.754,4.263-.768c.594-.1,1.247-.217,1.928-.319l3.175-.406c1.58-.232,3.175-.348,4.567-.449.493-.044.971-.073,1.392-.116,1.653-.145,2.74-.145,2.8-.145h.71l.29.667c.014.058,2.45,5.814,4.35,11.5,1.522,4.524,2.74,9.091,3.219,10.9h.246l2.378.188c1.7.087,3.349.319,3.451.333l1.044.13c.218.043.45.058.682.087.536.073,1.131.145,1.711.261l2.537.449c.87-1.609,3.161-5.771,5.727-9.8,1.769-2.813,3.538-5.365,4.712-7.018l2.7-3.712.71.188s1.073.276,2.653.783c.522.189,1.073.362,1.667.565,1.247.406,2.639.87,4.031,1.421l.623.246c1.856.725,3.6,1.406,4.944,2.059l3.132,1.421-.058.754s-.116,1.537-.377,3.871c-.29,2.682-.71,5.742-1.131,8.381-.565,3.552-1.218,6.684-1.566,8.236l-.667,2.885c.594.333,1.45.841,2.276,1.406l2.856,1.885-.623.884.638-.884,2.755,1.972,2.088,1.638c.551-.362,1.421-.942,2.494-1.638,1.3-.841,3.987-2.537,7.148-4.364,3.1-1.8,5.988-3.291,7.424-4.016l4.118-2.03.551.493s.812.754,1.972,1.928c.391.406.8.826,1.218,1.276.913.928,1.928,2,2.9,3.132,1.522,1.74,2.885,3.306,3.857,4.611l2.131,2.711-.406.638s-.827,1.319-2.131,3.262c-1.494,2.218-3.277,4.727-4.886,6.887-2.059,2.769-4.147,5.307-5.205,6.583l-1.928,2.247c.362.565.885,1.421,1.363,2.291l1.653,2.987s.812,1.522,1.552,3.074l1.087,2.392c.653-.073,1.7-.188,2.958-.3,2.625-.246,5.669-.435,8.366-.551,3.335-.145,6.438-.145,8.438-.1l4.6.116.246.7s.377,1.044.87,2.624q.217.8.479,1.7c.362,1.247.768,2.668,1.1,4.118l.3,1.29c.392,1.7.769,3.291.972,4.611l.594,3.378-.652.391s-1.319.768-3.378,1.885c-2.378,1.276-5.133,2.668-7.554,3.813-2.552,1.218-5.336,2.45-7.656,3.393l-2.769,1.1.044.594c.043.609.1,1.348.1,2.088l.087,3.378-1.088.029,1.088.015-.087,3.407c0,.71-.058,1.45-.1,2.059l-.044.594,2.755,1.1c2.334.942,5.118,2.175,7.67,3.393,2.421,1.145,5.176,2.537,7.554,3.828,2.059,1.1,3.378,1.87,3.378,1.87l.652.391-.609,3.407c-.188,1.29-.565,2.885-.957,4.582l-.3,1.29c-.333,1.45-.739,2.871-1.1,4.118-.174.594-.334,1.16-.479,1.667-.493,1.609-.87,2.653-.87,2.653l-.246.7-4.582.116c-1.653.029-4.944.044-8.453-.1-2.682-.116-5.742-.3-8.366-.551-1.261-.116-2.305-.232-2.958-.3l-1.073,2.378c-.377.783-.768,1.551-1.073,2.131s-.493.957-.493.957l-.464.928-1.2,2.073c-.464.87-.986,1.711-1.348,2.276l1.928,2.247c1.073,1.276,3.161,3.828,5.205,6.583,1.609,2.146,3.393,4.669,4.886,6.9,1.3,1.928,2.131,3.248,2.131,3.248l.406.638-2.146,2.74c-.971,1.276-2.378,2.9-3.857,4.6-.957,1.116-1.972,2.189-2.885,3.117-.421.449-.827.87-1.189,1.247-1.189,1.2-2,1.957-2,1.957l-.551.493-4.1-2.015c-1.45-.739-4.335-2.218-7.438-4.031-3.161-1.827-5.843-3.523-7.148-4.364-1.073-.7-1.943-1.276-2.494-1.638l-2.044,1.609-2.8,2-.638-.884.623.884-2.885,1.9c-.812.565-1.667,1.058-2.247,1.392l.667,2.885c.58,2.639,1.16,5.64,1.566,8.25s.841,5.684,1.131,8.366c.261,2.334.377,3.871.377,3.871l.058.754-3.161,1.435c-1.319.638-3.059,1.319-4.915,2.044l-.638.246c-1.377.551-2.769,1.015-4.016,1.421-.594.2-1.146.377-1.638.551-1.609.522-2.682.8-2.682.8l-.71.188-2.7-3.7c-1.174-1.653-2.943-4.219-4.712-7.032-2.566-4.031-4.857-8.192-5.727-9.8l-2.566.449c-.551.116-1.146.189-1.682.261-.232.029-.464.044-.667.073l-1.073.145c-.145.014-1.769.246-3.451.333l-2.61.188c-.479,1.812-1.7,6.38-3.219,10.9-1.9,5.684-4.335,11.44-4.35,11.5l-.29.667h-.71c-.058,0-1.145,0-2.8-.145-.435-.044-.9-.073-1.406-.116-1.392-.1-2.972-.2-4.567-.449l-3.132-.391c-.71-.116-1.363-.232-1.957-.333l-4.263-.768-.116-.754c-.014-.073-1-6.249-1.479-12.252-.3-3.451-.42-6.728-.464-8.366l-.058-2.972c-.638-.174-1.595-.464-2.537-.812l-3.219-1.145-3.161-1.247-2.407-1.1c-.45.507-1.16,1.276-2.03,2.2-1.812,1.928-3.973,4.089-5.9,5.945-2.653,2.552-5.06,4.654-6.264,5.684l-3.509,2.943-.653-.362s-.971-.522-2.378-1.377c-.464-.319-.957-.623-1.493-.957-1.087-.7-2.334-1.493-3.553-2.349l-.536-.377c-1.624-1.16-3.146-2.233-4.306-3.19l-2.711-2.131.246-.725s.479-1.464,1.291-3.654c.913-2.537,2.059-5.394,3.1-7.859,1.363-3.262,2.769-6.177,3.48-7.627l1.334-2.653c-.493-.464-1.189-1.16-1.87-1.914l-2.32-2.494s-1.145-1.29-2.233-2.61l-1.639-2.073c-.623.232-1.595.58-2.8,1-2.494.87-5.408,1.783-7.989,2.537-3.175.928-6.191,1.682-8.177,2.131l-4.495,1-1.058-1.653c-.232-.362-.522-.812-.812-1.348-.261-.45-.551-.957-.87-1.508-.652-1.116-1.406-2.392-2.059-3.726-.928-1.769-1.972-3.813-2.653-5.394l-1.406-3.146.551-.536s1.1-1.073,2.842-2.639c2-1.827,4.321-3.842,6.394-5.524,2.7-2.233,5.307-4.176,6.626-5.133l2.406-1.725c-.2-.638-.507-1.58-.768-2.552l-.885-3.306,1.058-.247-1.058.232-.768-3.306-.464-2.61c-.667-.087-1.7-.217-2.958-.42-2.61-.391-5.611-.942-8.235-1.479-2.784-.565-5.872-1.29-8.236-1.928l-4.437-1.218-.261-3.451c-.058-1.189-.1-2.624-.131-4.132l-.044-1.87.044-1.914c.029-1.508.073-2.943.131-4.1l.261-3.48,4.422-1.218c2.378-.638,5.466-1.363,8.25-1.928,2.624-.536,5.626-1.087,8.235-1.479,1.261-.2,2.291-.333,2.958-.42l.464-2.566.768-3.349,1.058.232-1.058-.246.9-3.32c.246-.957.551-1.9.754-2.537l-2.392-1.711c-1.334-.971-3.944-2.914-6.641-5.147-2.073-1.7-4.408-3.712-6.394-5.524-1.74-1.566-2.842-2.639-2.842-2.639l-.551-.536,1.421-3.161c.609-1.421,1.493-3.19,2.639-5.394.652-1.319,1.391-2.6,2.059-3.712.319-.536.609-1.044.87-1.508" transform="translate(-666.596 -197.976)" fill="#f1f2f2"/>
            <path id="Trazado_912819" data-name="Trazado 912819" d="M1294.326,492.265a66.718,66.718,0,1,1-66.711-66.725,66.786,66.786,0,0,1,66.711,66.725" transform="translate(-740.09 -271.291)" fill="#fff"/>
            <path id="Trazado_912820" data-name="Trazado 912820" d="M1290.5,488.44a66.718,66.718,0,1,0-66.711,66.711A66.789,66.789,0,0,0,1290.5,488.44m2.175,0a68.893,68.893,0,1,1-68.886-68.9,68.958,68.958,0,0,1,68.886,68.9" transform="translate(-736.265 -267.466)" fill="#f1f2f2"/>
            <path id="Trazado_912821" data-name="Trazado 912821" d="M1281.7,582.314a35.962,35.962,0,1,1,35.963-35.962,36,36,0,0,1-35.963,35.962" transform="translate(-794.185 -325.384)" fill="#fff"/>
            <path id="Trazado_912822" data-name="Trazado 912822" d="M916.864,65.7l-1.121,1,1.822,2.023c.2.24.361.481.541.741l3.6,4.987,1.062-.4c.02,0,1.943-.681,4.906-1.642,3.084-.981,6.949-2.063,10.894-3,6.328-1.542,13-2.583,15.481-2.964l.04.08a17.586,17.586,0,0,1,1.161,2.283l3.5,7.57c.8,1.8,1.442,3.7,2.023,5.387.28.841.541,1.642.8,2.323l.881,2.583c-.721.541-1.882,1.422-3.384,2.463-3,2.163-6.509,4.506-9.613,6.429-6.989,4.366-14.239,7.91-14.3,7.951l-.981.481,1.322,9.733.28,9.833,1.041.32c.08.02,7.81,2.343,15.42,5.527,3.385,1.382,7.23,3.124,10.534,4.746,1.642.8,2.924,1.462,3.745,1.9l-.461,2.644c-.14.741-.28,1.562-.42,2.443-.28,1.762-.6,3.745-1.1,5.647l-2.223,8.091a22.087,22.087,0,0,1-.8,2.463l-.02.02c-2.483.04-9.252.1-15.741-.4-4.045-.28-8.031-.7-11.235-1.2-3.084-.441-5.087-.8-5.107-.8l-1.121-.22-2.744,5.507a6.736,6.736,0,0,1-.38.761l-1.482,2.363h-.02l-2.363,3.805a10.436,10.436,0,0,1-1.061,1.462c-.24.3-.461.581-.621.781l-1.542,2,.7.921c.06.08,5.027,6.569,9.372,13.678,3.365,5.487,6.388,11.455,7.49,13.7l-1.882,2.023c-.981,1.041-2.363,2.243-3.805,3.525-.761.641-1.522,1.322-2.243,1.963l-1.142,1.021c-.741.641-1.462,1.282-2.143,1.822l-5.347,3.905c-.741-.521-1.943-1.362-3.4-2.423-2.523-1.8-5.908-4.446-9.052-7.109-6.349-5.307-12-11.135-12.056-11.195l-.821-.861-2.143,1.282c-.421.22-.941.461-1.5.7-.38.18-.781.36-1.161.541l-3.985,1.842.16.38-.18-.38-.28.14-.32.16c-.12.04-.26.12-.5.2l-8.071,2.8.04,1.1c0,.02.08,2.083.02,5.087-.04,3.545-.24,7.65-.541,11.275-.48,6.469-1.542,13.137-1.963,15.661l-10.754,1.442-11.014.34c-.821-2.4-2.944-8.812-4.486-15.14-.881-3.5-1.742-7.51-2.363-11.035-.541-2.944-.821-5.007-.821-5.027l-.14-1.081-8.231-1.422-.26-.04c-.18-.02-.341-.08-.461-.1l-.641-.18-4.226-1.182c-.421-.12-.841-.24-1.242-.34-.6-.16-1.161-.3-1.542-.421l-2.383-.941-.681.981c-.04.06-4.666,6.729-10.073,13.017-2.664,3.124-5.568,6.308-7.77,8.491-1.262,1.282-2.3,2.3-2.964,2.944l-5.848-2.964c-.821-.441-1.622-.961-2.463-1.462l-1.262-.8c-.861-.541-1.722-1.081-2.543-1.6-1.662-1.021-3.2-1.983-4.366-2.864l-2.183-1.682c.741-2.4,2.744-8.772,5.167-14.72,3.124-7.73,6.969-14.96,7.009-15.02l.541-1.021-1.8-1.682c-.22-.24-.5-.481-.781-.741a9.162,9.162,0,0,1-1.322-1.322l-2.924-3.3-1.823-2.043c-.18-.22-.36-.481-.541-.721l-3.6-4.987-1.061.381c-.02,0-1.943.7-4.906,1.642-3.084,1-6.949,2.063-10.894,3-6.328,1.542-13,2.6-15.48,2.964l-.04-.08a18.332,18.332,0,0,1-1.161-2.263l-3.5-7.57c-.8-1.8-1.442-3.7-2-5.387-.3-.861-.561-1.662-.821-2.343l-.881-2.563c.721-.561,1.9-1.422,3.384-2.483,3-2.143,6.509-4.486,9.633-6.408,6.969-4.386,14.219-7.931,14.3-7.971l.961-.461-1.322-9.753-.28-9.833-1.042-.32c-.08-.02-7.81-2.323-15.42-5.507-3.364-1.4-7.209-3.124-10.534-4.766-1.642-.8-2.924-1.462-3.725-1.883l.441-2.664q.21-1.111.421-2.463c.28-1.742.6-3.725,1.1-5.627l2.243-8.071a18.3,18.3,0,0,1,.781-2.463l.02-.04c2.483-.04,9.252-.08,15.741.4,4.065.3,8.051.721,11.255,1.2,3.064.441,5.087.821,5.087.821l1.121.2,2.744-5.507a6.7,6.7,0,0,1,.38-.761l1.5-2.343-1.282-.8,1.282.781,2.363-3.785a10.587,10.587,0,0,1,1.061-1.482c.24-.28.461-.581.621-.781l1.542-2-.7-.921c-.04-.06-5.027-6.569-9.372-13.678-3.365-5.487-6.388-11.435-7.49-13.678l1.882-2.023a50.36,50.36,0,0,1,3.825-3.525c.741-.661,1.5-1.322,2.223-1.983l1.162-1.021c.721-.641,1.442-1.282,2.123-1.822l5.347-3.885c.761.5,1.943,1.342,3.4,2.4,2.523,1.8,5.908,4.466,9.052,7.109,6.348,5.307,12,11.155,12.056,11.215l.821.841,2.143-1.282c.421-.22.961-.441,1.522-.7.38-.18.761-.34,1.141-.521l4.005-1.862.28-.14c.1-.04.2-.08.32-.14a2.129,2.129,0,0,1,.5-.2l8.071-2.8-.04-1.1c0-.02-.06-2.1-.02-5.087.04-3.565.24-7.67.541-11.275.481-6.489,1.542-13.157,1.962-15.661L843.688,6.38l10.995-.36c.821,2.423,2.964,8.832,4.486,15.14.881,3.525,1.762,7.55,2.383,11.035.521,2.924.8,5.007.8,5.027l.14,1.1,8.491,1.442a2.179,2.179,0,0,1,.461.12c.12.04.24.06.28.08l.36.1,4.226,1.182c.421.1.841.22,1.242.32.581.16,1.161.3,1.542.441l2.383.921.681-.961c.04-.08,4.666-6.749,10.073-13.037,2.663-3.124,5.567-6.308,7.77-8.491,1.262-1.282,2.3-2.3,2.964-2.924l5.868,2.944c.8.441,1.622.961,2.443,1.482l1.262.781q1.292.841,2.583,1.622c1.622,1.021,3.184,1.963,4.326,2.864l2.183,1.662c-.721,2.4-2.724,8.772-5.147,14.74-3.144,7.71-6.989,14.94-7.029,15.02l-.541,1.021,1.8,1.682c.22.22.5.461.781.721a11.917,11.917,0,0,1,1.342,1.322l2.9,3.3Z" transform="translate(-510.101 -83.034)" fill="#f6a496"/>
            <path id="Trazado_912823" data-name="Trazado 912823" d="M1050.448,131.425l-.8,4.806q-.21,1.111-.42,2.4c-.3,1.822-.621,3.885-1.161,5.928l-2.223,8.071a20.033,20.033,0,0,1-.921,2.8l-.7,1.862-1,.04c-.1,0-8.791.24-17.062-.381-4.106-.3-8.191-.721-11.455-1.222-1.762-.26-3.184-.5-4.085-.641l-1.722,3.445c-.181.36-.34.7-.541,1.021l-1.5,2.383-2.343,3.745a13.266,13.266,0,0,1-1.3,1.822c-.2.26-.4.481-.54.7l-.18.22c1.542,2.083,5.387,7.35,8.851,13.017,4.306,7.009,8.051,14.8,8.091,14.88l.441.921-3.3,3.525a51.05,51.05,0,0,1-4.026,3.745c-.72.641-1.482,1.282-2.2,1.963l-1.161,1c-.761.681-1.542,1.362-2.3,1.963l-7.11,5.187-.86-.581s-1.782-1.2-4.366-3.064c-2.563-1.842-6.029-4.546-9.232-7.25-5.007-4.206-9.613-8.732-11.435-10.574l-.16.1c-.541.3-1.122.561-1.762.841-.36.16-.741.34-1.121.521l-3.985,1.842-.34.16-.821-1.162.521-.36-.461-.981-.16-.381,3.985-1.842c.381-.18.781-.36,1.161-.541.561-.24,1.082-.481,1.5-.7l2.143-1.282.821.861c.06.06,5.708,5.888,12.055,11.195,3.145,2.664,6.529,5.307,9.052,7.109,1.462,1.061,2.663,1.9,3.4,2.423l5.348-3.905c.681-.541,1.4-1.182,2.143-1.822l1.141-1.021c.721-.641,1.483-1.322,2.244-1.963,1.442-1.282,2.824-2.483,3.805-3.525l1.882-2.023c-1.1-2.243-4.125-8.211-7.49-13.7-4.345-7.109-9.312-13.6-9.372-13.678l-.7-.921,1.542-2c.16-.2.381-.481.621-.781a10.458,10.458,0,0,0,1.061-1.462l2.363-3.805h.02l1.482-2.363a6.737,6.737,0,0,0,.38-.761l2.744-5.507,1.121.22c.021,0,2.023.36,5.107.8,3.2.5,7.189.921,11.235,1.2,6.488.5,13.257.441,15.741.4l.019-.02a21.842,21.842,0,0,0,.8-2.463l2.223-8.091c.5-1.9.821-3.885,1.1-5.647.141-.881.281-1.7.421-2.443l.46-2.644c-.821-.441-2.1-1.1-3.744-1.9-3.3-1.622-7.15-3.364-10.535-4.746-7.61-3.184-15.34-5.507-15.42-5.527l-1.042-.32-.28-9.833-1.322-9.733.981-.481c.06-.04,7.31-3.585,14.3-7.951,3.1-1.923,6.608-4.266,9.612-6.429,1.5-1.041,2.664-1.923,3.384-2.463l-.881-2.583c-.26-.681-.52-1.482-.8-2.323-.581-1.682-1.222-3.585-2.023-5.387l-3.5-7.57a17.542,17.542,0,0,0-1.161-2.283l-.04-.08c-2.484.381-9.152,1.422-15.48,2.964-3.945.941-7.81,2.023-10.894,3-2.964.961-4.886,1.642-4.907,1.642l-1.062.4-3.6-4.987c-.18-.26-.34-.5-.541-.741L996.356,63.7l1.122-1-1.122.981-2.9-3.3a11.947,11.947,0,0,0-1.342-1.322c-.281-.26-.561-.5-.781-.721l-1.8-1.682.54-1.021c.041-.08,3.886-7.31,7.03-15.02,2.423-5.968,4.425-12.336,5.147-14.74l-2.183-1.662c-1.141-.9-2.7-1.842-4.326-2.864q-1.291-.781-2.583-1.622l-1.262-.781c-.822-.521-1.643-1.041-2.443-1.482l-5.868-2.944c-.661.621-1.7,1.642-2.964,2.924-2.2,2.183-5.106,5.367-7.77,8.491-5.407,6.288-10.033,12.957-10.073,13.037l-.681.961L959.707,39c-.38-.14-.961-.28-1.542-.441-.4-.1-.821-.22-1.242-.32L952.7,37.06l-.36-.1c-.04-.02-.16-.04-.28-.08a2.177,2.177,0,0,0-.461-.12l-8.491-1.442-.14-1.1c0-.02-.28-2.1-.8-5.027-.621-3.485-1.5-7.51-2.383-11.035-1.522-6.308-3.665-12.717-4.486-15.14l-10.995.36L913.526,4.817c-.421,2.5-1.482,9.172-1.963,15.661-.3,3.6-.5,7.71-.541,11.275-.04,2.984.02,5.067.02,5.087l.04,1.1-8.071,2.8a2.131,2.131,0,0,0-.5.2c-.12.06-.22.1-.32.14l-.28.14-.16-.36h-.02l-.461-1,.521-.36-.621-1.262a9.109,9.109,0,0,1,.941-.381l5.908-2.043c-.02-.921-.02-2.363,0-4.125.06-3.6.24-7.79.541-11.455.641-8.311,2.183-16.922,2.183-17l.18-.961.961-.24s.421-.1,1.2-.2L924.04.392,935.275.011c.761-.02,1.2,0,1.2,0l.961.08.34.921c.02.08,2.944,8.331,4.926,16.422.9,3.585,1.782,7.69,2.4,11.235.32,1.722.541,3.144.681,4.065l6.228,1.061a4.417,4.417,0,0,1,.921.2l.561.16,4.246,1.182c.4.12.8.22,1.182.32.661.18,1.3.34,1.8.521l.26.1c1.5-2.123,5.287-7.33,9.573-12.3,2.7-3.184,5.667-6.429,7.93-8.671,2.224-2.243,3.786-3.725,3.786-3.725l.761-.7,7.811,3.905c.9.5,1.762,1.041,2.643,1.6l1.261.781c.881.581,1.723,1.1,2.544,1.6a53.641,53.641,0,0,1,4.586,3.044l3.824,2.924-.28.981c-.04.08-2.443,8.371-5.567,16-2.483,6.148-5.427,11.976-6.609,14.279l.181.16a6.817,6.817,0,0,0,.681.641,13.8,13.8,0,0,1,1.622,1.622l2.864,3.264,1.863,2.063c.28.34.5.661.721.981l2.263,3.124c.861-.3,2.243-.761,3.925-1.3,3.144-1.021,7.089-2.123,11.115-3.084,8.051-1.963,16.682-3.144,16.762-3.144l1-.14,1.022,1.762a23.484,23.484,0,0,1,1.342,2.6l3.485,7.57c.881,1.943,1.541,3.905,2.143,5.668.28.821.52,1.582.781,2.263L1046.6,84.7l-.821.661c-.06.06-1.682,1.342-4.346,3.224-3.044,2.183-6.609,4.546-9.773,6.509-5.588,3.5-11.355,6.489-13.6,7.63l1.041,7.67-1.482.2,1.5-.04.22,7.75c2.4.761,8.572,2.764,14.66,5.307,3.445,1.422,7.35,3.184,10.714,4.826,2.923,1.422,4.726,2.423,4.806,2.483Z" transform="translate(-590.714 -80.028)" fill="#f1f2f2"/>
            <path id="Trazado_912824" data-name="Trazado 912824" d="M872.515,223.522c.06-3-.02-5.067-.02-5.087l-.04-1.1,8.071-2.8c.24-.08.38-.16.5-.2l.32-.16.281-.14.18.38.461.981-.521.36-.06-.08.66,1.342a5.134,5.134,0,0,1-.921.381l-5.908,2.043c.02.921.04,2.363,0,4.125-.04,3.6-.24,7.79-.541,11.475-.621,8.291-2.163,16.9-2.183,17l-.18.941-.941.24a8.372,8.372,0,0,1-1.2.2L859.5,254.884l-11.235.36c-.24.02-.461.02-.641.02-.36,0-.541-.02-.541-.02l-.981-.08-.34-.921c-.02-.08-2.944-8.311-4.927-16.422-1.222-4.866-2.023-9.112-2.4-11.215-.321-1.722-.541-3.164-.681-4.065l-6.028-1.041a6.139,6.139,0,0,1-1.121-.24l-.581-.16-4.225-1.182c-.4-.12-.8-.22-1.182-.32-.681-.18-1.3-.34-1.8-.5l-.26-.1c-1.5,2.1-5.287,7.33-9.573,12.3-2.7,3.184-5.668,6.429-7.911,8.651-2.243,2.263-3.805,3.725-3.805,3.725l-.761.721-7.79-3.925c-.921-.5-1.782-1.041-2.644-1.582l-1.282-.8c-.861-.561-1.7-1.081-2.523-1.582a53.956,53.956,0,0,1-4.606-3.064l-3.825-2.9.28-1c.04-.08,2.463-8.371,5.568-16,2.483-6.148,5.427-11.976,6.609-14.279l-.16-.16c-.24-.22-.46-.421-.7-.621a14.025,14.025,0,0,1-1.622-1.642l-2.864-3.244-1.862-2.083c-.28-.34-.481-.641-.721-.961l-2.263-3.124c-.861.3-2.223.761-3.925,1.3-3.144,1.021-7.109,2.1-11.115,3.064-8.051,1.963-16.682,3.144-16.762,3.164l-1,.14-1.021-1.782a20.371,20.371,0,0,1-1.342-2.6l-3.485-7.55c-.881-1.943-1.542-3.925-2.143-5.668-.26-.821-.521-1.6-.781-2.283l-1.582-4.646.821-.641c.08-.06,1.7-1.342,4.346-3.224,3.044-2.183,6.609-4.566,9.773-6.529,5.587-3.5,11.355-6.489,13.6-7.61l-1.041-7.69,1.482-.2-1.5.04-.22-7.75c-2.4-.741-8.571-2.744-14.659-5.307-3.425-1.4-7.33-3.164-10.714-4.826-2.9-1.422-4.726-2.423-4.806-2.463l-.921-.521.8-4.786c.14-.761.28-1.562.421-2.423.3-1.822.641-3.885,1.182-5.928l2.223-8.071a18.541,18.541,0,0,1,.9-2.8l.7-1.862,1-.02c.1-.02,8.791-.24,17.063.38,4.125.28,8.191.721,11.475,1.222,1.742.24,3.164.481,4.085.641l1.722-3.465a9.771,9.771,0,0,1,.521-1.021l1.522-2.383,2.323-3.745a14.665,14.665,0,0,1,1.3-1.822c.2-.24.4-.481.541-.681l.18-.24c-1.542-2.063-5.387-7.35-8.852-13.017-4.306-7.009-8.051-14.8-8.091-14.88L763.67,58l3.3-3.5A50.9,50.9,0,0,1,771,50.753c.721-.641,1.482-1.3,2.223-1.963l1.141-1.021c.781-.681,1.542-1.362,2.3-1.963l7.109-5.187.861.581s1.782,1.2,4.366,3.064c2.563,1.842,6.028,4.546,9.232,7.25,5.006,4.206,9.613,8.732,11.435,10.574l.16-.1c.541-.3,1.141-.561,1.762-.841.36-.16.741-.32,1.121-.5l3.985-1.862.34-.16.821,1.162-.521.36.46,1h.02l.16.36-4.005,1.862c-.38.18-.761.34-1.141.521-.561.26-1.1.481-1.522.7l-2.143,1.282-.821-.841c-.06-.06-5.708-5.908-12.056-11.215-3.144-2.644-6.529-5.307-9.052-7.109-1.462-1.061-2.644-1.9-3.4-2.4L778.49,48.19c-.681.541-1.4,1.182-2.123,1.822l-1.161,1.021c-.721.661-1.482,1.322-2.223,1.983a50.312,50.312,0,0,0-3.825,3.525l-1.882,2.023c1.1,2.243,4.125,8.191,7.49,13.678,4.346,7.109,9.332,13.618,9.372,13.678l.7.921-1.542,2c-.16.2-.38.5-.621.781a10.587,10.587,0,0,0-1.061,1.482l-2.363,3.785-1.282-.781,1.282.8-1.5,2.343a6.737,6.737,0,0,0-.38.761l-2.744,5.507-1.121-.2s-2.023-.381-5.087-.821c-3.2-.481-7.189-.9-11.255-1.2-6.489-.481-13.258-.441-15.741-.4l-.02.04a18.308,18.308,0,0,0-.781,2.463l-2.243,8.071c-.5,1.9-.821,3.885-1.1,5.627q-.211,1.352-.421,2.463l-.441,2.664c.8.421,2.083,1.081,3.725,1.882,3.324,1.642,7.169,3.364,10.534,4.766,7.61,3.184,15.34,5.487,15.42,5.507l1.041.32.28,9.833,1.322,9.753-.961.461c-.08.04-7.33,3.585-14.3,7.971-3.124,1.923-6.629,4.266-9.633,6.409-1.482,1.061-2.663,1.923-3.384,2.483l.881,2.563c.26.681.521,1.482.821,2.343.561,1.682,1.2,3.585,2,5.387l3.5,7.57a18.323,18.323,0,0,0,1.161,2.263l.04.08c2.483-.361,9.152-1.422,15.48-2.964,3.945-.941,7.81-2,10.894-3,2.964-.941,4.886-1.642,4.907-1.642l1.061-.381,3.6,4.987c.18.24.36.5.541.721l1.822,2.043,2.924,3.3a9.159,9.159,0,0,0,1.322,1.322c.28.26.561.5.781.741l1.8,1.682-.541,1.021c-.04.06-3.885,7.29-7.009,15.02-2.423,5.948-4.426,12.316-5.167,14.72l2.183,1.682c1.161.881,2.7,1.842,4.366,2.864.821.521,1.682,1.061,2.543,1.6l1.262.8c.841.5,1.642,1.021,2.463,1.462l5.848,2.964c.661-.641,1.7-1.662,2.964-2.944,2.2-2.183,5.107-5.367,7.77-8.491,5.407-6.288,10.033-12.957,10.073-13.017l.681-.981,2.383.941c.38.12.941.26,1.542.421.4.1.821.22,1.242.34l4.226,1.182.641.18c.12.02.28.08.461.1l.26.04,8.231,1.422.14,1.081c0,.02.28,2.083.821,5.027.621,3.525,1.482,7.53,2.363,11.035,1.542,6.328,3.665,12.737,4.486,15.14l11.015-.34,10.754-1.442c.421-2.523,1.482-9.192,1.963-15.661.3-3.625.5-7.73.541-11.275" transform="translate(-506.786 -100.31)" fill="#f1f2f2"/>
            <path id="Trazado_912825" data-name="Trazado 912825" d="M922.381,215.77a24.906,24.906,0,0,1-2.009-49.729c.687-.056,1.384-.085,2.067-.085a25.03,25.03,0,0,1,24.792,22.869,24.931,24.931,0,0,1-22.783,26.86c-.688.056-1.383.085-2.067.085" transform="translate(-572.176 -105.801)" fill="#f1f2f2"/>
            <path id="Trazado_912826" data-name="Trazado 912826" d="M896.082,234.854c-36.236,0-66.948-28.328-69.917-64.49a70.316,70.316,0,0,1,64.25-75.744c1.937-.157,3.9-.239,5.83-.239,36.236,0,66.946,28.328,69.912,64.49a70.306,70.306,0,0,1-64.246,75.744c-1.941.158-3.9.239-5.83.239" transform="translate(-553.143 -127.155)" fill="#fff"/>
            <path id="Trazado_912827" data-name="Trazado 912827" d="M966.178,162.262A67.2,67.2,0,0,1,904.8,234.618c-1.842.14-3.725.22-5.567.22-34.606,0-63.945-27.056-66.768-61.6A67.125,67.125,0,0,1,893.822,100.9c1.842-.16,3.725-.24,5.567-.24,34.606,0,63.945,27.056,66.788,61.6" transform="translate(-556.29 -130.29)" fill="#fff"/>
            <path id="Trazado_912828" data-name="Trazado 912828" d="M931.536,234.761a34.729,34.729,0,0,1-2.8-69.342c.958-.078,1.929-.118,2.883-.118a34.9,34.9,0,0,1,34.57,31.888,34.764,34.764,0,0,1-31.768,37.453c-.96.078-1.929.118-2.883.118" transform="translate(-588.555 -162.569)" fill="#fff"/>
            <path id="Trazado_912829" data-name="Trazado 912829" d="M743.128,374.484l-5.254-2.3c-.829-.377-1.776-.745-2.754-1.236L732,369.3l-3.546-1.868c-1.222-.709-2.472-1.524-3.794-2.335-1.3-.84-2.718-1.626-4.076-2.6l-4.187-3.038c-.709-.532-1.465-1.021-2.161-1.608l-2.115-1.777c-1.409-1.216-2.915-2.377-4.321-3.7l-4.223-4.088-1.071-1.038-1-1.118-2.018-2.25-2.032-2.264c-.681-.755-1.266-1.6-1.906-2.394-1.239-1.626-2.545-3.208-3.736-4.874l-3.412-5.1a26.731,26.731,0,0,1-1.6-2.6l-1.5-2.632-1.489-2.607c-.484-.87-.873-1.786-1.311-2.667-.843-1.779-1.707-3.521-2.5-5.257l-2.058-5.237c-.322-.859-.7-1.687-.967-2.544l-.788-2.538-1.512-4.856q-.557-2.4-1.073-4.628c-.316-1.488-.738-2.886-.925-4.262l-.6-3.888q-.284-1.828-.531-3.413c-.086-1.064-.165-2.041-.236-2.924-.281-3.525-.441-5.539-.441-5.539l-.021-.265a3.626,3.626,0,1,0-7.23.575c0,.053.011.119.018.171l.748,5.865c.121.931.256,1.962.4,3.084l.733,3.592.836,4.078c.271,1.439.782,2.9,1.192,4.455l1.369,4.817,1.834,5.033.957,2.62c.325.883.76,1.737,1.141,2.62l2.418,5.373c.916,1.777,1.9,3.553,2.874,5.365.5.9.952,1.827,1.5,2.709l1.679,2.641,1.692,2.657a28.349,28.349,0,0,0,1.786,2.614l3.787,5.109c1.315,1.663,2.743,3.238,4.1,4.85.7.79,1.343,1.624,2.083,2.37l2.2,2.233,2.185,2.212,1.084,1.1,1.152,1.015,4.53,3.981c1.5,1.284,3.1,2.4,4.6,3.573l2.244,1.707c.738.563,1.535,1.028,2.283,1.535l4.409,2.886c1.427.923,2.906,1.655,4.27,2.444,1.382.759,2.684,1.52,3.96,2.18l3.705,1.729,3.251,1.516c1.01.447,1.966.767,2.815,1.1l5.359,2.042a.413.413,0,0,0,.313-.764" transform="translate(-423.059 -172.169)" fill="#eacf5a"/>
            <path id="Trazado_912830" data-name="Trazado 912830" d="M861.19,540.273l-2.23-8.581.3-.09,10.415,8.255,11.545,6.438-13.181-1L854.8,546.438l-.21-.2Z" transform="translate(-544.815 -338.907)" fill="#eacf5a"/>
            <g id="Grupo_1106500" data-name="Grupo 1106500" transform="translate(0 170.196)" opacity="0.71">
              <g id="Grupo_1106499" data-name="Grupo 1106499">
                <g id="Grupo_1106498" data-name="Grupo 1106498" clip-path="url(#clip-path-2)">
                  <path id="Trazado_912831" data-name="Trazado 912831" d="M36.405,712.88l5.337-17.049c.874-2.677,1.712-5.724,2.859-8.875l3.853-10.04,4.341-11.323c1.656-3.891,3.574-7.869,5.467-12.06,1.966-4.129,3.773-8.586,6.062-12.871l7.1-13.142c1.242-2.216,2.367-4.571,3.744-6.745l4.155-6.587c2.838-4.375,5.518-9.03,8.608-13.378l9.51-12.991,2.4-3.277,2.6-3.068,5.223-6.156,5.233-6.173c1.739-2.063,3.7-3.842,5.547-5.779,3.763-3.748,7.4-7.678,11.246-11.266l11.755-10.234a59.736,59.736,0,0,1,5.975-4.767l6.055-4.476,5.974-4.422c1.99-1.436,4.108-2.6,6.131-3.892,4.086-2.5,8.066-5.052,12.038-7.4l12-6.077c1.966-.95,3.843-2.054,5.811-2.846l5.819-2.328,11.089-4.45,10.6-3.178c3.406-.936,6.572-2.168,9.738-2.737l8.91-1.8,7.8-1.588,6.719-.74,12.69-1.383.606-.066c4.561-.5,7.524-5.419,6.626-10.981s-5.3-9.644-9.838-9.164c-.121.013-.27.034-.388.053l-13.309,2.2-7.02,1.186-8.134,2.122-9.266,2.429c-3.284.793-6.573,2.258-10.1,3.444l-10.95,3.966-11.412,5.307-5.966,2.782c-2.015.946-3.938,2.2-5.947,3.312l-12.236,7.05c-4.042,2.675-8.08,5.563-12.213,8.4-2.047,1.468-4.185,2.8-6.193,4.408l-6.02,4.94-6.082,5a65.309,65.309,0,0,0-5.985,5.289l-11.72,11.273c-3.823,3.933-7.423,8.2-11.139,12.285-1.818,2.1-3.757,4.05-5.467,6.277l-5.137,6.66L96.4,574.585l-2.542,3.3-2.337,3.507-9.216,13.87c-2.984,4.631-5.551,9.557-8.27,14.19l-3.972,6.965c-1.315,2.3-2.376,4.771-3.554,7.1l-6.706,13.8c-2.155,4.49-3.826,9.138-5.658,13.444-1.759,4.372-3.539,8.5-5.068,12.556q-2.1,6.221-3.981,11.8l-3.51,10.422c-1.032,3.247-1.747,6.32-2.519,9.054-2.972,11.024-4.678,17.353-4.678,17.353a1.439,1.439,0,0,0,.676,1.69,1.015,1.015,0,0,0,1.335-.763" transform="translate(-21.891 -469.534)" fill="#066043"/>
                  <path id="Trazado_912832" data-name="Trazado 912832" d="M16.558,1071.932,38.328,1064l.268.936-20.009,34.241q-7.717,19.1-15.549,38.484.63-21.749,1.249-43.2L0,1052.146l.49-.686Z" transform="translate(0 -840.523)" fill="#066043"/>
                </g>
              </g>
            </g>
            <path id="Trazado_912833" data-name="Trazado 912833" d="M610.7,935.025a97.994,97.994,0,1,1,97.994-97.994A98.106,98.106,0,0,1,610.7,935.025" transform="translate(-326.86 -471.151)" fill="#fff"/>
            <path id="Trazado_912834" data-name="Trazado 912834" d="M614.515,745.02a95.825,95.825,0,1,1-95.825,95.825,95.938,95.938,0,0,1,95.825-95.825" transform="translate(-330.675 -474.966)" fill="#fff"/>
            <path id="Trazado_912835" data-name="Trazado 912835" d="M695.072,971.425A50.022,50.022,0,1,1,745.095,921.4a50.079,50.079,0,0,1-50.022,50.022" transform="translate(-411.232 -555.523)" fill="#fff"/>
          </g>
        </g>
      </g>
    </g>
    <path id="Trazado_912887" data-name="Trazado 912887" d="M6.295,17H3.658V4.2H6.295Zm4.658-9.51.079,1.063a3.342,3.342,0,0,1,2.733-1.239,2.536,2.536,0,0,1,2.522,1.45,3.265,3.265,0,0,1,2.856-1.45,2.836,2.836,0,0,1,2.3.9,4.141,4.141,0,0,1,.756,2.711V17H19.654V10.936a1.811,1.811,0,0,0-.316-1.182,1.4,1.4,0,0,0-1.116-.374,1.585,1.585,0,0,0-1.582,1.09L16.648,17h-2.54V10.944a1.789,1.789,0,0,0-.325-1.2,1.416,1.416,0,0,0-1.107-.369,1.646,1.646,0,0,0-1.564.9V17H8.571V7.49Zm21.762,4.843a5.7,5.7,0,0,1-1,3.52,3.2,3.2,0,0,1-2.694,1.323,2.963,2.963,0,0,1-2.329-1v4.482h-2.54V7.49H26.51l.088.932a2.985,2.985,0,0,1,2.408-1.107,3.22,3.22,0,0,1,2.733,1.3,5.858,5.858,0,0,1,.976,3.586Zm-2.54-.185A3.743,3.743,0,0,0,29.7,10.1a1.532,1.532,0,0,0-1.367-.721,1.663,1.663,0,0,0-1.644.914v3.894a1.692,1.692,0,0,0,1.661.94Q30.175,15.128,30.175,12.148ZM39.8,17a2.821,2.821,0,0,1-.255-.853,3.073,3.073,0,0,1-2.4,1.028,3.376,3.376,0,0,1-2.316-.809,2.6,2.6,0,0,1-.918-2.039,2.687,2.687,0,0,1,1.121-2.32,5.529,5.529,0,0,1,3.239-.817h1.169v-.545A1.567,1.567,0,0,0,39.1,9.591a1.331,1.331,0,0,0-1.068-.4,1.513,1.513,0,0,0-1.006.308,1.045,1.045,0,0,0-.365.844h-2.54a2.551,2.551,0,0,1,.51-1.529,3.37,3.37,0,0,1,1.441-1.1,5.253,5.253,0,0,1,2.092-.4,4.15,4.15,0,0,1,2.791.883,3.09,3.09,0,0,1,1.033,2.483V14.8a4.546,4.546,0,0,0,.378,2.048V17Zm-2.1-1.767a2.188,2.188,0,0,0,1.037-.25,1.645,1.645,0,0,0,.7-.672V12.676h-.949q-1.907,0-2.03,1.318l-.009.149a1.017,1.017,0,0,0,.334.782A1.3,1.3,0,0,0,37.7,15.233ZM49.282,9.872a6.9,6.9,0,0,0-.914-.07,1.86,1.86,0,0,0-1.89.976V17h-2.54V7.49h2.4l.07,1.134a2.354,2.354,0,0,1,2.118-1.31,2.662,2.662,0,0,1,.791.114Zm5.01,5.256a1.666,1.666,0,0,0,1.143-.387,1.355,1.355,0,0,0,.457-1.028h2.382a3.258,3.258,0,0,1-.527,1.771,3.48,3.48,0,0,1-1.419,1.248,4.442,4.442,0,0,1-1.991.444,4.129,4.129,0,0,1-3.217-1.3A5.13,5.13,0,0,1,49.941,12.3v-.167A5.071,5.071,0,0,1,51.11,8.624a4.08,4.08,0,0,1,3.208-1.31A4,4,0,0,1,57.179,8.33a3.594,3.594,0,0,1,1.094,2.7H55.892a1.745,1.745,0,0,0-.457-1.206,1.7,1.7,0,0,0-2.5.183,3.749,3.749,0,0,0-.453,2.1v.264a3.8,3.8,0,0,0,.448,2.113A1.549,1.549,0,0,0,54.292,15.128ZM62.4,17H59.855V7.49H62.4Zm-2.7-11.971a1.251,1.251,0,0,1,.382-.94,1.648,1.648,0,0,1,2.079,0,1.244,1.244,0,0,1,.387.94,1.247,1.247,0,0,1-.391.949,1.629,1.629,0,0,1-2.065,0A1.247,1.247,0,0,1,59.706,5.029ZM70.007,17a2.821,2.821,0,0,1-.255-.853,3.073,3.073,0,0,1-2.4,1.028,3.376,3.376,0,0,1-2.316-.809,2.6,2.6,0,0,1-.918-2.039,2.687,2.687,0,0,1,1.121-2.32,5.529,5.529,0,0,1,3.239-.817h1.169v-.545a1.567,1.567,0,0,0-.338-1.055,1.331,1.331,0,0,0-1.068-.4,1.513,1.513,0,0,0-1.006.308,1.045,1.045,0,0,0-.365.844h-2.54a2.551,2.551,0,0,1,.51-1.529,3.37,3.37,0,0,1,1.441-1.1,5.253,5.253,0,0,1,2.092-.4,4.15,4.15,0,0,1,2.791.883A3.09,3.09,0,0,1,72.2,10.681V14.8a4.546,4.546,0,0,0,.378,2.048V17Zm-2.1-1.767a2.188,2.188,0,0,0,1.037-.25,1.645,1.645,0,0,0,.7-.672V12.676H68.7q-1.907,0-2.03,1.318l-.009.149a1.017,1.017,0,0,0,.334.782A1.3,1.3,0,0,0,67.906,15.233ZM76.827,17H74.278V3.5h2.549ZM81.6,17H79.051V7.49H81.6ZM78.9,5.029a1.251,1.251,0,0,1,.382-.94,1.648,1.648,0,0,1,2.079,0,1.244,1.244,0,0,1,.387.94,1.247,1.247,0,0,1-.391.949,1.629,1.629,0,0,1-2.065,0A1.247,1.247,0,0,1,78.9,5.029ZM83.3,12.175a5.731,5.731,0,0,1,1-3.542,3.237,3.237,0,0,1,2.729-1.318,2.913,2.913,0,0,1,2.294,1.037V3.5h2.549V17H89.571l-.123-1.011A2.989,2.989,0,0,1,87,17.176a3.228,3.228,0,0,1-2.694-1.323A5.916,5.916,0,0,1,83.3,12.175Zm2.54.189a3.754,3.754,0,0,0,.466,2.051,1.517,1.517,0,0,0,1.354.713,1.7,1.7,0,0,0,1.661-.995V10.375a1.675,1.675,0,0,0-1.644-.995Q85.836,9.38,85.836,12.364ZM99.345,17a2.821,2.821,0,0,1-.255-.853,3.073,3.073,0,0,1-2.4,1.028,3.376,3.376,0,0,1-2.316-.809,2.6,2.6,0,0,1-.918-2.039,2.687,2.687,0,0,1,1.121-2.32,5.529,5.529,0,0,1,3.239-.817h1.169v-.545a1.567,1.567,0,0,0-.338-1.055,1.331,1.331,0,0,0-1.068-.4,1.513,1.513,0,0,0-1.006.308,1.045,1.045,0,0,0-.365.844h-2.54a2.551,2.551,0,0,1,.51-1.529,3.37,3.37,0,0,1,1.441-1.1,5.253,5.253,0,0,1,2.092-.4A4.15,4.15,0,0,1,100.5,8.2a3.09,3.09,0,0,1,1.033,2.483V14.8a4.546,4.546,0,0,0,.378,2.048V17Zm-2.1-1.767a2.188,2.188,0,0,0,1.037-.25,1.645,1.645,0,0,0,.7-.672V12.676h-.949q-1.907,0-2.03,1.318L96,14.144a1.017,1.017,0,0,0,.334.782A1.3,1.3,0,0,0,97.244,15.233Zm5.845-3.059a5.731,5.731,0,0,1,1-3.542,3.237,3.237,0,0,1,2.729-1.318,2.913,2.913,0,0,1,2.294,1.037V3.5h2.549V17h-2.294l-.123-1.011a2.989,2.989,0,0,1-2.443,1.187,3.228,3.228,0,0,1-2.694-1.323A5.916,5.916,0,0,1,103.089,12.175Zm2.54.189a3.754,3.754,0,0,0,.466,2.051,1.517,1.517,0,0,0,1.354.713,1.7,1.7,0,0,0,1.661-.995V10.375a1.675,1.675,0,0,0-1.644-.995Q105.629,9.38,105.629,12.364Z" transform="translate(927.551 2888.025)" fill="#12263f"/>
    <path id="Trazado_912888" data-name="Trazado 912888" d="M23.682,17H21.045V11.516H15.9V17H13.267V4.2H15.9V9.389h5.142V4.2h2.637Zm1.74-4.843a5.64,5.64,0,0,1,.545-2.522,3.989,3.989,0,0,1,1.569-1.714,4.577,4.577,0,0,1,2.377-.606,4.33,4.33,0,0,1,3.142,1.178,4.727,4.727,0,0,1,1.358,3.2l.018.65a4.97,4.97,0,0,1-1.222,3.511,4.247,4.247,0,0,1-3.278,1.323,4.268,4.268,0,0,1-3.283-1.318,5.058,5.058,0,0,1-1.226-3.586Zm2.54.18a3.555,3.555,0,0,0,.51,2.073,1.831,1.831,0,0,0,2.9.009,3.89,3.89,0,0,0,.519-2.267,3.519,3.519,0,0,0-.519-2.06,1.686,1.686,0,0,0-1.459-.731,1.658,1.658,0,0,0-1.441.726A3.955,3.955,0,0,0,27.962,12.338ZM38.333,7.49l.079,1.1a3.32,3.32,0,0,1,2.733-1.274A2.759,2.759,0,0,1,43.4,8.2a4.142,4.142,0,0,1,.756,2.654V17h-2.54V10.918a1.648,1.648,0,0,0-.352-1.173,1.574,1.574,0,0,0-1.169-.365,1.747,1.747,0,0,0-1.608.914V17h-2.54V7.49Zm12.12,9.686a4.668,4.668,0,0,1-3.406-1.283,4.561,4.561,0,0,1-1.314-3.419v-.246a5.745,5.745,0,0,1,.554-2.562,4.064,4.064,0,0,1,1.569-1.74,4.4,4.4,0,0,1,2.316-.611,3.947,3.947,0,0,1,3.072,1.23,5,5,0,0,1,1.121,3.489v1.037H48.309a2.36,2.36,0,0,0,.743,1.494,2.245,2.245,0,0,0,1.569.563,2.742,2.742,0,0,0,2.294-1.063l1.248,1.4a3.813,3.813,0,0,1-1.547,1.261A5.075,5.075,0,0,1,50.454,17.176Zm-.29-7.813a1.587,1.587,0,0,0-1.226.512,2.651,2.651,0,0,0-.6,1.466h3.533v-.2a1.891,1.891,0,0,0-.457-1.311A1.638,1.638,0,0,0,50.164,9.362Zm10.793,5.01a.818.818,0,0,0-.461-.734,5.241,5.241,0,0,0-1.481-.479q-3.393-.712-3.393-2.883a2.613,2.613,0,0,1,1.05-2.114,4.237,4.237,0,0,1,2.747-.848,4.56,4.56,0,0,1,2.9.853A2.687,2.687,0,0,1,63.4,10.382H60.86a1.229,1.229,0,0,0-.352-.9,1.488,1.488,0,0,0-1.1-.356,1.52,1.52,0,0,0-.993.29.916.916,0,0,0-.352.738.783.783,0,0,0,.4.681,4.114,4.114,0,0,0,1.349.448,11.019,11.019,0,0,1,1.6.426,2.628,2.628,0,0,1,2.013,2.558,2.481,2.481,0,0,1-1.116,2.1,4.815,4.815,0,0,1-2.883.8A5.029,5.029,0,0,1,57.3,16.75a3.561,3.561,0,0,1-1.455-1.169,2.716,2.716,0,0,1-.527-1.6h2.408a1.326,1.326,0,0,0,.5,1.037,1.987,1.987,0,0,0,1.248.36,1.839,1.839,0,0,0,1.1-.277A.861.861,0,0,0,60.957,14.372ZM68.1,5.152V7.49h1.626V9.354H68.1V14.1a1.133,1.133,0,0,0,.2.756,1.015,1.015,0,0,0,.773.229,4.051,4.051,0,0,0,.747-.062v1.925a5.229,5.229,0,0,1-1.538.229,2.425,2.425,0,0,1-2.725-2.7V9.354H64.173V7.49h1.389V5.152ZM73.824,17H71.275V7.49h2.549Zm-2.7-11.971a1.251,1.251,0,0,1,.382-.94,1.648,1.648,0,0,1,2.079,0,1.244,1.244,0,0,1,.387.94,1.247,1.247,0,0,1-.391.949,1.629,1.629,0,0,1-2.065,0A1.247,1.247,0,0,1,71.125,5.029Zm4.395,7.146a5.731,5.731,0,0,1,1-3.542,3.237,3.237,0,0,1,2.729-1.318,2.913,2.913,0,0,1,2.294,1.037V3.5h2.549V17H81.8l-.123-1.011a2.989,2.989,0,0,1-2.443,1.187,3.228,3.228,0,0,1-2.694-1.323A5.916,5.916,0,0,1,75.52,12.175Zm2.54.189a3.754,3.754,0,0,0,.466,2.051,1.517,1.517,0,0,0,1.354.713,1.7,1.7,0,0,0,1.661-.995V10.375A1.675,1.675,0,0,0,79.9,9.38Q78.06,9.38,78.06,12.364ZM91.569,17a2.821,2.821,0,0,1-.255-.853,3.073,3.073,0,0,1-2.4,1.028,3.376,3.376,0,0,1-2.316-.809,2.6,2.6,0,0,1-.918-2.039,2.687,2.687,0,0,1,1.121-2.32,5.529,5.529,0,0,1,3.239-.817h1.169v-.545a1.567,1.567,0,0,0-.338-1.055A1.331,1.331,0,0,0,89.8,9.2,1.513,1.513,0,0,0,88.8,9.5a1.045,1.045,0,0,0-.365.844h-2.54a2.551,2.551,0,0,1,.51-1.529,3.37,3.37,0,0,1,1.441-1.1,5.253,5.253,0,0,1,2.092-.4,4.15,4.15,0,0,1,2.791.883,3.09,3.09,0,0,1,1.033,2.483V14.8a4.546,4.546,0,0,0,.378,2.048V17Zm-2.1-1.767a2.188,2.188,0,0,0,1.037-.25,1.645,1.645,0,0,0,.7-.672V12.676h-.949q-1.907,0-2.03,1.318l-.009.149a1.017,1.017,0,0,0,.334.782A1.3,1.3,0,0,0,89.468,15.233Zm5.845-3.059a5.731,5.731,0,0,1,1-3.542A3.237,3.237,0,0,1,99.04,7.314a2.913,2.913,0,0,1,2.294,1.037V3.5h2.549V17h-2.294l-.123-1.011a2.989,2.989,0,0,1-2.443,1.187,3.228,3.228,0,0,1-2.694-1.323A5.916,5.916,0,0,1,95.313,12.175Zm2.54.189a3.754,3.754,0,0,0,.466,2.051,1.517,1.517,0,0,0,1.354.713,1.7,1.7,0,0,0,1.661-.995V10.375A1.675,1.675,0,0,0,99.69,9.38Q97.853,9.38,97.853,12.364Z" transform="translate(720.551 3033.025)" fill="#12263f"/>
    <path id="Trazado_912889" data-name="Trazado 912889" d="M7.567,12.491V17H4.931V4.2H9.923a5.776,5.776,0,0,1,2.536.527,3.886,3.886,0,0,1,1.683,1.5,4.178,4.178,0,0,1,.589,2.21,3.674,3.674,0,0,1-1.288,2.966,5.363,5.363,0,0,1-3.564,1.085Zm0-2.136H9.923a2.316,2.316,0,0,0,1.6-.492,1.79,1.79,0,0,0,.549-1.406,2.111,2.111,0,0,0-.554-1.521,2.068,2.068,0,0,0-1.529-.6H7.567Zm14.15-.483A6.9,6.9,0,0,0,20.8,9.8a1.86,1.86,0,0,0-1.89.976V17h-2.54V7.49h2.4l.07,1.134a2.354,2.354,0,0,1,2.118-1.31,2.662,2.662,0,0,1,.791.114Zm.51,2.285a5.64,5.64,0,0,1,.545-2.522,3.989,3.989,0,0,1,1.569-1.714,4.577,4.577,0,0,1,2.377-.606,4.33,4.33,0,0,1,3.142,1.178,4.727,4.727,0,0,1,1.358,3.2l.018.65a4.97,4.97,0,0,1-1.222,3.511,4.247,4.247,0,0,1-3.278,1.323,4.268,4.268,0,0,1-3.283-1.318,5.058,5.058,0,0,1-1.226-3.586Zm2.54.18a3.555,3.555,0,0,0,.51,2.073,1.831,1.831,0,0,0,2.9.009,3.89,3.89,0,0,0,.519-2.267,3.519,3.519,0,0,0-.519-2.06,1.686,1.686,0,0,0-1.459-.731,1.658,1.658,0,0,0-1.441.726A3.955,3.955,0,0,0,24.768,12.338ZM33.5,17V9.354H32.08V7.49H33.5V6.682A3.283,3.283,0,0,1,34.414,4.2a3.557,3.557,0,0,1,2.571-.883,5.938,5.938,0,0,1,1.292.176L38.25,5.46a3.238,3.238,0,0,0-.773-.079q-1.433,0-1.433,1.345V7.49h1.89V9.354h-1.89V17Zm9.923.176a4.668,4.668,0,0,1-3.406-1.283A4.561,4.561,0,0,1,38.7,12.474v-.246a5.745,5.745,0,0,1,.554-2.562,4.064,4.064,0,0,1,1.569-1.74,4.4,4.4,0,0,1,2.316-.611,3.947,3.947,0,0,1,3.072,1.23,5,5,0,0,1,1.121,3.489v1.037H41.273a2.36,2.36,0,0,0,.743,1.494,2.245,2.245,0,0,0,1.569.563,2.742,2.742,0,0,0,2.294-1.063l1.248,1.4a3.813,3.813,0,0,1-1.547,1.261A5.075,5.075,0,0,1,43.418,17.176Zm-.29-7.813a1.587,1.587,0,0,0-1.226.512,2.651,2.651,0,0,0-.6,1.466h3.533v-.2a1.891,1.891,0,0,0-.457-1.311A1.638,1.638,0,0,0,43.128,9.362Zm10.793,5.01a.818.818,0,0,0-.461-.734,5.241,5.241,0,0,0-1.481-.479q-3.393-.712-3.393-2.883a2.613,2.613,0,0,1,1.05-2.114,4.237,4.237,0,0,1,2.747-.848,4.56,4.56,0,0,1,2.9.853,2.687,2.687,0,0,1,1.085,2.215h-2.54a1.229,1.229,0,0,0-.352-.9,1.488,1.488,0,0,0-1.1-.356,1.52,1.52,0,0,0-.993.29.916.916,0,0,0-.352.738.783.783,0,0,0,.4.681,4.114,4.114,0,0,0,1.349.448,11.019,11.019,0,0,1,1.6.426,2.628,2.628,0,0,1,2.013,2.558,2.481,2.481,0,0,1-1.116,2.1,4.815,4.815,0,0,1-2.883.8,5.029,5.029,0,0,1-2.123-.426,3.561,3.561,0,0,1-1.455-1.169,2.716,2.716,0,0,1-.527-1.6H50.7a1.326,1.326,0,0,0,.5,1.037,1.987,1.987,0,0,0,1.248.36,1.839,1.839,0,0,0,1.1-.277A.861.861,0,0,0,53.921,14.372ZM60.706,17H58.157V7.49h2.549Zm-2.7-11.971a1.251,1.251,0,0,1,.382-.94,1.648,1.648,0,0,1,2.079,0,1.244,1.244,0,0,1,.387.94,1.247,1.247,0,0,1-.391.949,1.629,1.629,0,0,1-2.065,0A1.247,1.247,0,0,1,58.008,5.029ZM62.4,12.157a5.64,5.64,0,0,1,.545-2.522,3.989,3.989,0,0,1,1.569-1.714,4.577,4.577,0,0,1,2.377-.606,4.33,4.33,0,0,1,3.142,1.178,4.727,4.727,0,0,1,1.358,3.2l.018.65a4.97,4.97,0,0,1-1.222,3.511,4.735,4.735,0,0,1-6.561,0A5.058,5.058,0,0,1,62.4,12.271Zm2.54.18a3.555,3.555,0,0,0,.51,2.073,1.831,1.831,0,0,0,2.9.009,3.89,3.89,0,0,0,.519-2.267,3.519,3.519,0,0,0-.519-2.06,1.686,1.686,0,0,0-1.459-.731,1.658,1.658,0,0,0-1.441.726A3.955,3.955,0,0,0,64.942,12.338ZM75.313,7.49l.079,1.1a3.32,3.32,0,0,1,2.733-1.274,2.759,2.759,0,0,1,2.25.888,4.142,4.142,0,0,1,.756,2.654V17h-2.54V10.918a1.648,1.648,0,0,0-.352-1.173,1.574,1.574,0,0,0-1.169-.365,1.747,1.747,0,0,0-1.608.914V17h-2.54V7.49ZM88.567,17a2.821,2.821,0,0,1-.255-.853,3.073,3.073,0,0,1-2.4,1.028,3.376,3.376,0,0,1-2.316-.809,2.6,2.6,0,0,1-.918-2.039,2.687,2.687,0,0,1,1.121-2.32,5.529,5.529,0,0,1,3.239-.817h1.169v-.545a1.567,1.567,0,0,0-.338-1.055A1.331,1.331,0,0,0,86.8,9.2a1.513,1.513,0,0,0-1.006.308,1.045,1.045,0,0,0-.365.844H82.89a2.551,2.551,0,0,1,.51-1.529,3.37,3.37,0,0,1,1.441-1.1,5.253,5.253,0,0,1,2.092-.4,4.15,4.15,0,0,1,2.791.883,3.09,3.09,0,0,1,1.033,2.483V14.8a4.546,4.546,0,0,0,.378,2.048V17Zm-2.1-1.767a2.188,2.188,0,0,0,1.037-.25,1.645,1.645,0,0,0,.7-.672V12.676h-.949q-1.907,0-2.03,1.318l-.009.149a1.017,1.017,0,0,0,.334.782A1.3,1.3,0,0,0,86.467,15.233ZM95.388,17H92.839V3.5h2.549Zm4.772,0H97.611V7.49h2.549Zm-2.7-11.971a1.251,1.251,0,0,1,.382-.94,1.648,1.648,0,0,1,2.079,0,1.244,1.244,0,0,1,.387.94,1.247,1.247,0,0,1-.391.949,1.629,1.629,0,0,1-2.065,0A1.247,1.247,0,0,1,97.462,5.029Zm4.395,7.146a5.731,5.731,0,0,1,1-3.542,3.237,3.237,0,0,1,2.729-1.318,2.913,2.913,0,0,1,2.294,1.037V3.5h2.549V17h-2.294l-.123-1.011a2.989,2.989,0,0,1-2.443,1.187,3.228,3.228,0,0,1-2.694-1.323A5.916,5.916,0,0,1,101.856,12.175Zm2.54.189a3.754,3.754,0,0,0,.466,2.051,1.517,1.517,0,0,0,1.354.713,1.7,1.7,0,0,0,1.661-.995V10.375a1.675,1.675,0,0,0-1.644-.995Q104.4,9.38,104.4,12.364ZM117.905,17a2.821,2.821,0,0,1-.255-.853,3.073,3.073,0,0,1-2.4,1.028,3.376,3.376,0,0,1-2.316-.809,2.6,2.6,0,0,1-.918-2.039,2.687,2.687,0,0,1,1.121-2.32,5.529,5.529,0,0,1,3.239-.817h1.169v-.545a1.567,1.567,0,0,0-.338-1.055,1.331,1.331,0,0,0-1.068-.4,1.513,1.513,0,0,0-1.006.308,1.045,1.045,0,0,0-.365.844h-2.54a2.551,2.551,0,0,1,.51-1.529,3.37,3.37,0,0,1,1.441-1.1,5.253,5.253,0,0,1,2.092-.4,4.15,4.15,0,0,1,2.791.883,3.09,3.09,0,0,1,1.033,2.483V14.8a4.546,4.546,0,0,0,.378,2.048V17Zm-2.1-1.767a2.188,2.188,0,0,0,1.037-.25,1.645,1.645,0,0,0,.7-.672V12.676H116.6q-1.907,0-2.03,1.318l-.009.149a1.017,1.017,0,0,0,.334.782A1.3,1.3,0,0,0,115.8,15.233Zm5.845-3.059a5.731,5.731,0,0,1,1-3.542,3.237,3.237,0,0,1,2.729-1.318,2.913,2.913,0,0,1,2.294,1.037V3.5h2.549V17h-2.294l-.123-1.011a2.989,2.989,0,0,1-2.443,1.187,3.228,3.228,0,0,1-2.694-1.323A5.916,5.916,0,0,1,121.649,12.175Zm2.54.189a3.754,3.754,0,0,0,.466,2.051,1.517,1.517,0,0,0,1.354.713,1.7,1.7,0,0,0,1.661-.995V10.375a1.675,1.675,0,0,0-1.644-.995Q124.189,9.38,124.189,12.364Z" transform="translate(770.551 2703.025)" fill="#12263f"/>
  </g>
</svg>
