<svg xmlns="http://www.w3.org/2000/svg" xmlns:xlink="http://www.w3.org/1999/xlink" width="85" height="85" viewBox="0 0 85 85">
  <defs>
    <clipPath id="clip-path">
      <rect id="Rect치ngulo_402869" data-name="Rect치ngulo 402869" width="85" height="85" transform="translate(705.051 2163)" fill="#fff" stroke="#707070" stroke-width="1"/>
    </clipPath>
  </defs>
  <g id="Grupo_1106533" data-name="Grupo 1106533" transform="translate(-705.102 -1651)">
    <g id="Grupo_1100912" data-name="Grupo 1100912" transform="translate(0.051 -510)">
      <path id="Rect치ngulo_402870" data-name="Rect치ngulo 402870" d="M37.5,0h0A37.5,37.5,0,0,1,75,37.5V80a0,0,0,0,1,0,0H0a0,0,0,0,1,0,0V37.5A37.5,37.5,0,0,1,37.5,0Z" transform="translate(710.051 2166)" fill="#43b869"/>
      <g id="Enmascarar_grupo_1098687" data-name="Enmascarar grupo 1098687" transform="translate(0 -2)" clip-path="url(#clip-path)">
        <g id="etica" transform="translate(703.689 2161.92)">
          <g id="Grupo_1100910" data-name="Grupo 1100910">
            <g id="Grupo_1100891" data-name="Grupo 1100891">
              <path id="Trazado_911346" data-name="Trazado 911346" d="M43.581,13.619v5.448a13.417,13.417,0,0,0-9.37,3.922l-1.525,1.525H31.324a4.051,4.051,0,0,0-2.792,1.1l-.912-3.677a12.3,12.3,0,0,1-.381-3.078,12.677,12.677,0,0,1,3.01-8.2l.014-.014C32.74,12.42,37.779,13.619,43.581,13.619Z" fill="#656d78"/>
            </g>
            <g id="Grupo_1100892" data-name="Grupo 1100892">
              <path id="Trazado_911347" data-name="Trazado 911347" d="M62.647,20.428a9.013,9.013,0,0,1-1.512,4.985l-1.212,1.825.6,1.212a7.055,7.055,0,0,1,.763,3.2,7.151,7.151,0,0,1-6.455,7.123l-5.72.572a10.814,10.814,0,0,0,5.366-9.383V24.514l-.068-.082A13.39,13.39,0,0,0,43.69,19.067h-.109V13.619c6.4,0,11.862-1.457,14-3.514l2.084,3.119.368.613-4.195,2.506,2.724,5.448,3.01-1.294q.552-.245,1.062-.531c.014.15.014.313.014.463Z" fill="#b27946"/>
            </g>
            <g id="Grupo_1100893" data-name="Grupo 1100893">
              <path id="Trazado_911348" data-name="Trazado 911348" d="M62.634,19.965q-.511.286-1.062.531l-3.01,1.294-2.724-5.448,4.195-2.506.395-.245a5.451,5.451,0,0,0,2.588-3.9l.79-5.584a1.618,1.618,0,0,1,3.187-.1l.9,4.467a10.98,10.98,0,0,1,.2,2.111,10.763,10.763,0,0,1-5.461,9.37Z" fill="#969faa"/>
            </g>
            <g id="Grupo_1100894" data-name="Grupo 1100894">
              <path id="Trazado_911349" data-name="Trazado 911349" d="M43.581,8.171v5.448c-5.8,0-10.841-1.2-13.319-2.969A3.2,3.2,0,0,1,28.6,8.171c0-3.01,6.7-5.448,14.981-5.448Z" fill="#e6e9ed"/>
            </g>
            <g id="Grupo_1100895" data-name="Grupo 1100895">
              <path id="Trazado_911350" data-name="Trazado 911350" d="M43.581,2.724c8.28,0,14.981,2.438,14.981,5.448a2.679,2.679,0,0,1-.981,1.934c-2.138,2.056-7.6,3.514-14,3.514V2.724Z" fill="#e6e9ed"/>
            </g>
            <g id="Grupo_1100896" data-name="Grupo 1100896">
              <path id="Trazado_911351" data-name="Trazado 911351" d="M47.666,73.542H57.2v10.9H43.581V69.457A4.08,4.08,0,0,0,47.666,73.542Z" fill="#ff826e"/>
            </g>
            <g id="Grupo_1100897" data-name="Grupo 1100897">
              <path id="Trazado_911352" data-name="Trazado 911352" d="M49.028,65.371V64.009a4.08,4.08,0,0,0-4.086-4.086,1.366,1.366,0,0,0-1.362,1.362V46.3l6.809,5.448L52.9,44.234l3.228.531,1.28.218a9.508,9.508,0,0,1,7.858,7.981,9.77,9.77,0,0,1,.109,1.416V68.095a5.446,5.446,0,0,1-4.195,5.3,5.351,5.351,0,0,1-1.253.15h-10.9Z" fill="#ff826e"/>
            </g>
            <g id="Grupo_1100898" data-name="Grupo 1100898">
              <path id="Trazado_911353" data-name="Trazado 911353" d="M52.9,44.221v.014L50.39,51.752,43.581,46.3l5.448-2.724Z" fill="#fc6e51"/>
            </g>
            <g id="Grupo_1100899" data-name="Grupo 1100899">
              <path id="Trazado_911354" data-name="Trazado 911354" d="M38.133,64.009v9.533h-10.9a5.446,5.446,0,0,1-5.448-5.448V54.381a7.815,7.815,0,0,1,.1-1.267,9.49,9.49,0,0,1,7.872-8.131l2.315-.395,2.193-.354,2.506,7.518L43.581,46.3V61.285a1.366,1.366,0,0,0-1.362-1.362A4.08,4.08,0,0,0,38.133,64.009Z" fill="#fcd770"/>
            </g>
            <g id="Grupo_1100900" data-name="Grupo 1100900">
              <path id="Trazado_911355" data-name="Trazado 911355" d="M43.581,69.457V84.438H29.962v-10.9h9.533A4.08,4.08,0,0,0,43.581,69.457Z" fill="#fcd770"/>
            </g>
            <g id="Grupo_1100901" data-name="Grupo 1100901">
              <path id="Trazado_911356" data-name="Trazado 911356" d="M43.581,46.3l-6.809,5.448-2.506-7.518v-.014l3.868-.64Z" fill="#ffc729"/>
            </g>
            <g id="Grupo_1100902" data-name="Grupo 1100902">
              <path id="Trazado_911357" data-name="Trazado 911357" d="M21.79,68.095V54.381a7.815,7.815,0,0,1,.1-1.267,9.49,9.49,0,0,1,7.872-8.131l2.315-.395a23.134,23.134,0,0,1-10.99-15.43l-.994-5a6.357,6.357,0,0,0-6.224-5.093,5.691,5.691,0,0,0-5.488,4.167L3.282,41.579a15.244,15.244,0,0,0-.558,4.086A9.864,9.864,0,0,0,4.195,50.84a10.055,10.055,0,0,0,3.977,3.636,10.862,10.862,0,0,0,1.1,4.794,11.034,11.034,0,0,0,3.023,3.8h.014a7.248,7.248,0,0,0-.054.94A11.027,11.027,0,0,0,18.1,73.733a10.406,10.406,0,0,0,1.253,2.874,10.828,10.828,0,0,0,4.453,4.072l2.07,1.035.681-.463a7.636,7.636,0,0,0,3.4-6.346V73.542H27.238a5.446,5.446,0,0,1-5.448-5.448Z" fill="#e6e9ed"/>
            </g>
            <g id="Grupo_1100903" data-name="Grupo 1100903">
              <path id="Trazado_911358" data-name="Trazado 911358" d="M80.2,43.09a11.444,11.444,0,0,1,4.235-3.6,64.072,64.072,0,0,1-6.374-14.422l-1.049-3.5a3.51,3.51,0,0,0-6.8.272l-1.675,7.831a20.432,20.432,0,0,1-9.152,13.047l-3.269,2.043,1.28.218a9.508,9.508,0,0,1,7.858,7.981,9.77,9.77,0,0,1,.109,1.416V68.095a5.446,5.446,0,0,1-4.195,5.3l5.557,6.959,1.253-4.985A13.144,13.144,0,0,1,74.9,66.733l-1.28-1.839.272-1.689a11.979,11.979,0,0,1,6.455-8.73l-2.588-3.691.368-2.533A11.555,11.555,0,0,1,80.2,43.09Z" fill="#656d78"/>
            </g>
            <g id="Grupo_1100904" data-name="Grupo 1100904">
              <path id="Trazado_911359" data-name="Trazado 911359" d="M49.028,65.371v8.171H47.666a4.08,4.08,0,0,1-4.086-4.086V61.285a1.366,1.366,0,0,1,1.362-1.362,4.08,4.08,0,0,1,4.086,4.086Z" fill="#f0d0b4"/>
            </g>
            <g id="Grupo_1100905" data-name="Grupo 1100905">
              <path id="Trazado_911360" data-name="Trazado 911360" d="M43.581,61.285v8.171a4.08,4.08,0,0,1-4.086,4.086H38.133V64.009a4.08,4.08,0,0,1,4.086-4.086A1.366,1.366,0,0,1,43.581,61.285Z" fill="#f0d0b4"/>
            </g>
            <g id="Grupo_1100906" data-name="Grupo 1100906">
              <path id="Trazado_911361" data-name="Trazado 911361" d="M43.581,40.857l4.208-.844,1.239,3.568L43.581,46.3Z" fill="#f0d0b4"/>
            </g>
            <g id="Grupo_1100907" data-name="Grupo 1100907">
              <path id="Trazado_911362" data-name="Trazado 911362" d="M43.581,40.857V46.3l-5.448-2.724,1.239-3.568a10.848,10.848,0,0,0,4.208.844Z" fill="#f0d0b4"/>
            </g>
            <g id="Grupo_1100908" data-name="Grupo 1100908">
              <path id="Trazado_911363" data-name="Trazado 911363" d="M54.408,24.432A13.39,13.39,0,0,0,43.69,19.067h-.109a13.417,13.417,0,0,0-9.37,3.922l-1.525,1.525v5.448a10.776,10.776,0,0,0,.327,2.669,10.9,10.9,0,0,0,10.568,8.226l4.208-.844a10.007,10.007,0,0,0,1.321-.667,10.814,10.814,0,0,0,5.366-9.383V24.514Z" fill="#f0d0b4"/>
            </g>
            <g id="Grupo_1100909" data-name="Grupo 1100909">
              <path id="Trazado_911364" data-name="Trazado 911364" d="M31.324,32.686a4.086,4.086,0,0,1,0-8.171h1.362v5.448a10.776,10.776,0,0,0,.327,2.669l-.232.054Z" fill="#f0d0b4"/>
            </g>
          </g>
          <g id="Grupo_1100911" data-name="Grupo 1100911">
            <path id="Trazado_911365" data-name="Trazado 911365" d="M49.427,23.551l-3.687,3.687,3.687,3.687L51.353,29l-1.761-1.761,1.761-1.761Z"/>
            <circle id="Elipse_11525" data-name="Elipse 11525" cx="1.362" cy="1.362" r="1.362" transform="translate(36.771 25.876)"/>
            <path id="Trazado_911366" data-name="Trazado 911366" d="M85.046,40.714l1.316-.658L85.6,38.795a62.115,62.115,0,0,1-6.231-14.107L78.32,21.177a4.871,4.871,0,0,0-9.428.377L67.214,29.39a19.167,19.167,0,0,1-8.539,12.173l-2.835,1.773-5.791-.964-.579-1.664.044-.026,5.46-.546a8.525,8.525,0,0,0,6.774-12.3l-.253-.505.775-1.162a10.322,10.322,0,0,0,1.719-5.457,12.1,12.1,0,0,0,5.234-12.5l-.893-4.466a2.977,2.977,0,0,0-5.866.163l-.8,5.581a4.063,4.063,0,0,1-1.252,2.4l-1.136-1.7a3.642,3.642,0,0,0,.647-2.022c0-4.471-8.222-6.809-16.343-6.809S27.238,3.7,27.238,8.171A3.887,3.887,0,0,0,28.4,10.846a14.015,14.015,0,0,0-2.1,11.426l.749,3a5.394,5.394,0,0,0-1.169,3.33,5.453,5.453,0,0,0,5.448,5.448h.715a12.315,12.315,0,0,0,5.653,6.658l-.579,1.664-4.738.79a21.8,21.8,0,0,1-9.953-14.266l-1-5A7.731,7.731,0,0,0,13.865,17.7a7.084,7.084,0,0,0-6.8,5.171L1.968,41.211a16.679,16.679,0,0,0-.606,4.451,11.128,11.128,0,0,0,5.493,9.615,12.291,12.291,0,0,0,4.063,8.382c0,.114-.022.23-.022.346a12.346,12.346,0,0,0,6.063,10.621,12.309,12.309,0,0,0,6.232,7.268l2.784,1.39,1.344-.9A8.928,8.928,0,0,0,28.6,81.331V85.8H58.562V74.9h1.362a6.508,6.508,0,0,0,.655-.067l6.809,8.512L69.3,75.7a11.87,11.87,0,0,1,6.213-7.745l1.412-.707-1.87-2.671.191-1.143a10.629,10.629,0,0,1,5.715-7.737l1.412-.707-3.183-4.546.286-2a10.258,10.258,0,0,1,5.569-7.726ZM51.1,45.306l-1.388,4.162-3.623-2.9L49.241,45ZM47.666,65.371V72.18a2.727,2.727,0,0,1-2.724-2.724V61.285a2.727,2.727,0,0,1,2.724,2.724Zm-8.171,1.362V64.009a2.727,2.727,0,0,1,2.724-2.724v8.171a2.727,2.727,0,0,1-2.724,2.724Zm-2.724-2.724H31.324V58.24l-1.5-3.011-2.436,1.219L28.6,58.883v5.924l-2.325,2.325L28.2,69.058l2.325-2.325h6.246V72.18H27.238a4.091,4.091,0,0,1-4.086-4.086V54.381a8.145,8.145,0,0,1,6.829-8.06l3.357-.56L36.1,54.036l6.122-4.9v9.424A5.453,5.453,0,0,0,36.771,64.009ZM53.114,29.962a9.54,9.54,0,0,1-8.171,9.424V36.649a7.878,7.878,0,0,0,4.25-2.2l.8-.8-1.926-1.926-.8.8A5.018,5.018,0,0,1,44.943,33.8V20.5a12.178,12.178,0,0,1,8.171,4.482ZM47.349,42.9l-2.406,1.2V42.138a12.175,12.175,0,0,0,2-.4ZM59.311,29.059A5.8,5.8,0,0,1,54.7,37.422l-1.533.154a12.19,12.19,0,0,0,2.669-7.614V24.514l-.064-.539-.272-.364a14.83,14.83,0,0,0-10.559-5.833V14.955c4.82-.155,9.5-1.136,12.307-2.893l.878,1.317-4.072,2.443,3.862,7.723L61.058,22.2A7.6,7.6,0,0,1,60,24.661l-1.651,2.477ZM64.362,9.883l.8-5.581a.261.261,0,0,1,.5-.014l.893,4.466a9.414,9.414,0,0,1-5.522,10.5l-1.822.782L57.62,16.862l3.506-2.1a6.782,6.782,0,0,0,3.236-4.876ZM57.2,8.171c0,1.535-4.836,3.808-12.257,4.06v-2.7H50.39V6.809H44.943v-2.7C52.364,4.364,57.2,6.637,57.2,8.171ZM42.219,4.112v2.7H36.771V9.533h5.448v2.7c-7.421-.252-12.257-2.525-12.257-4.06S34.8,4.364,42.219,4.112Zm-10.9,27.212a2.724,2.724,0,0,1,0-5.448v4.086a12.168,12.168,0,0,0,.08,1.362Zm.8-8.171h-.8a5.4,5.4,0,0,0-1.909.364l-.477-1.9a11.29,11.29,0,0,1,1.66-9.153c2.853,1.509,7.176,2.355,11.621,2.5v2.819a14.659,14.659,0,0,0-8.975,4.255Zm1.926,6.809V25.078l1.122-1.122a11.948,11.948,0,0,1,7.049-3.429V33.8a5.011,5.011,0,0,1-2.325-1.284l-.8-.8L37.17,33.648l.8.8a7.878,7.878,0,0,0,4.25,2.2v2.739A9.542,9.542,0,0,1,34.047,29.962Zm8.171,12.177V44.1l-2.406-1.2.4-1.16A12.22,12.22,0,0,0,42.219,42.138ZM37.919,45l3.149,1.574-3.623,2.9-1.388-4.162Zm-24.3,19.008a9.639,9.639,0,0,1,.289-2.344l3.756-15.026-2.642-.661L11.455,60.241a9.631,9.631,0,0,1-1.633-8.113L13.578,37.1l-2.642-.661L7.179,51.467c-.052.21-.076.424-.118.636a8.433,8.433,0,0,1-2.974-6.442,13.92,13.92,0,0,1,.507-3.721L9.686,23.606a4.352,4.352,0,0,1,4.18-3.177,4.994,4.994,0,0,1,4.885,4.005l1,5a24.519,24.519,0,0,0,8.856,14.4,10.843,10.843,0,0,0-8.05,8.946L16.713,67.81a12.4,12.4,0,0,0-.364,2.9,9.63,9.63,0,0,1-2.731-6.709ZM25.807,80.123l-.029.019-1.37-.685a9.667,9.667,0,0,1-5.055-10.98l1.076-4.208v3.826A6.817,6.817,0,0,0,27.238,74.9H28.6a6.261,6.261,0,0,1-2.793,5.219ZM31.324,74.9h8.171a5.392,5.392,0,0,0,2.724-.757v8.929h-10.9Zm24.514,8.171h-10.9V74.147a5.392,5.392,0,0,0,2.724.757h8.171ZM50.39,72.18V66.733h6.246l2.325,2.325,1.926-1.926-2.325-2.325V58.883l1.219-2.436-2.436-1.219L55.838,58.24v5.769H50.39a5.453,5.453,0,0,0-5.448-5.448V49.137l6.122,4.9,2.759-8.275,3.357.56a8.147,8.147,0,0,1,6.829,8.061V68.095a4.091,4.091,0,0,1-4.086,4.086Zm16.268,2.855-.58,2.319L63.35,73.946a6.789,6.789,0,0,0,3.383-5.851V57.434l6.2,8.856a14.587,14.587,0,0,0-6.274,8.745Zm5.276-34.959L69.7,41.637l8.682,12.4A13.382,13.382,0,0,0,72.9,61.5l-6.342-9.059a10.847,10.847,0,0,0-6.92-8.267l.478-.3a21.909,21.909,0,0,0,9.759-13.912l1.678-7.834a2.148,2.148,0,0,1,4.158-.169l1.054,3.511A64.893,64.893,0,0,0,82.569,39a12.976,12.976,0,0,0-5.625,8.235Z"/>
          </g>
        </g>
      </g>
    </g>
  </g>
</svg>
