<svg xmlns="http://www.w3.org/2000/svg" width="82.977" height="85" viewBox="0 0 82.977 85">
  <g id="Grupo_1106535" data-name="Grupo 1106535" transform="translate(-758.512 -2109.663)">
    <path id="Rectángulo_402870" data-name="Rectángulo 402870" d="M37.5,0h0A37.5,37.5,0,0,1,75,37.5V80a0,0,0,0,1,0,0H0a0,0,0,0,1,0,0V37.5A37.5,37.5,0,0,1,37.5,0Z" transform="translate(761.551 2114.663)" fill="#eacf5a"/>
    <g id="obediente" transform="translate(752.416 2109.663)">
      <g id="Grupo_1101695" data-name="Grupo 1101695" transform="translate(11.585 1.245)">
        <g id="Grupo_1101693" data-name="Grupo 1101693">
          <g id="Grupo_1101690" data-name="Grupo 1101690" transform="translate(0 32.529)">
            <g id="Grupo_1101683" data-name="Grupo 1101683" transform="translate(0 0)">
              <path id="Trazado_912167" data-name="Trazado 912167" d="M39.228,204.187l2.99,5.18a.5.5,0,0,0,.431.249H63.14a.5.5,0,0,0,.431-.249l2.99-5.18a.5.5,0,0,0-.431-.747H39.659A.5.5,0,0,0,39.228,204.187Z" transform="translate(-39.16 -203.44)" fill="#fed402"/>
            </g>
            <g id="Grupo_1101689" data-name="Grupo 1101689">
              <g id="Grupo_1101684" data-name="Grupo 1101684" transform="translate(44.529 0)">
                <path id="Trazado_912168" data-name="Trazado 912168" d="M307.449,204.187l2.99,5.18a.5.5,0,0,0,.431.249h20.49a.5.5,0,0,0,.431-.249l2.99-5.18a.5.5,0,0,0-.431-.747H307.881A.5.5,0,0,0,307.449,204.187Z" transform="translate(-307.382 -203.44)" fill="#fed402"/>
              </g>
              <g id="Grupo_1101685" data-name="Grupo 1101685" transform="translate(0 0)">
                <path id="Trazado_912169" data-name="Trazado 912169" d="M39.228,204.187l2.99,5.18a.5.5,0,0,0,.431.249H63.14a.5.5,0,0,0,.431-.249l2.99-5.18a.5.5,0,0,0-.431-.747H39.659A.5.5,0,0,0,39.228,204.187Z" transform="translate(-39.16 -203.44)" fill="#ca6e59"/>
              </g>
              <g id="Grupo_1101686" data-name="Grupo 1101686" transform="translate(0)">
                <path id="Trazado_912170" data-name="Trazado 912170" d="M49.255,209.366l-2.99-5.18a.5.5,0,0,1,.431-.747H39.659a.5.5,0,0,0-.431.747l2.99,5.18a.5.5,0,0,0,.431.249h7.036A.5.5,0,0,1,49.255,209.366Z" transform="translate(-39.161 -203.439)" fill="#bb5d4c"/>
              </g>
              <g id="Grupo_1101687" data-name="Grupo 1101687" transform="translate(44.529 0)">
                <path id="Trazado_912171" data-name="Trazado 912171" d="M307.449,204.187l2.99,5.18a.5.5,0,0,0,.431.249h20.49a.5.5,0,0,0,.431-.249l2.99-5.18a.5.5,0,0,0-.431-.747H307.881A.5.5,0,0,0,307.449,204.187Z" transform="translate(-307.382 -203.44)" fill="#ca6e59"/>
              </g>
              <g id="Grupo_1101688" data-name="Grupo 1101688" transform="translate(44.529)">
                <path id="Trazado_912172" data-name="Trazado 912172" d="M318.346,209.366l-2.99-5.18a.5.5,0,0,1,.431-.747h-7.905a.5.5,0,0,0-.431.747l2.99,5.18a.5.5,0,0,0,.431.249h7.905A.5.5,0,0,1,318.346,209.366Z" transform="translate(-307.383 -203.439)" fill="#bb5d4c"/>
              </g>
            </g>
          </g>
          <path id="Trazado_912173" data-name="Trazado 912173" d="M242.618,134.394V103.953a.83.83,0,0,0-.83-.83H236.8a.83.83,0,0,0-.83.83v30.441h6.652Z" transform="translate(-203.293 -87.248)" fill="#bb5d4c"/>
          <path id="Trazado_912174" data-name="Trazado 912174" d="M238.783,134.394V103.953a.83.83,0,0,1,.83-.83H236.8a.83.83,0,0,0-.83.83v30.441h2.817Z" transform="translate(-203.293 -87.248)" fill="#a44f3e"/>
          <g id="Grupo_1101691" data-name="Grupo 1101691" transform="translate(31.351 0)">
            <circle id="Elipse_11529" data-name="Elipse 11529" cx="4.648" cy="4.648" r="4.648" fill="#883f2e"/>
          </g>
          <g id="Grupo_1101692" data-name="Grupo 1101692" transform="translate(31.351)">
            <path id="Trazado_912175" data-name="Trazado 912175" d="M232.156,12.148a4.646,4.646,0,0,1,2.572-4.158,4.648,4.648,0,1,0,0,8.316A4.647,4.647,0,0,1,232.156,12.148Z" transform="translate(-228.005 -7.5)" fill="#6d3326"/>
          </g>
        </g>
        <g id="Grupo_1101694" data-name="Grupo 1101694" transform="translate(6.399 47.146)">
          <path id="Trazado_912176" data-name="Trazado 912176" d="M224.777,298.619v-3.814a3.32,3.32,0,0,0-3.32-3.32h-8.88a3.32,3.32,0,0,0-3.32,3.32v3.814Z" transform="translate(-187.416 -291.485)" fill="#883f2e"/>
          <path id="Trazado_912177" data-name="Trazado 912177" d="M214.857,298.619v-3.814a3.32,3.32,0,0,1,3.32-3.32h-5.6a3.32,3.32,0,0,0-3.32,3.32v3.814Z" transform="translate(-187.415 -291.485)" fill="#6d3326"/>
          <path id="Trazado_912178" data-name="Trazado 912178" d="M199.338,342.019V337.3a2.846,2.846,0,0,0-2.846-2.846H174.018a2.846,2.846,0,0,0-2.846,2.846v4.716Z" transform="translate(-155.655 -327.323)" fill="#bb5d4c"/>
          <path id="Trazado_912179" data-name="Trazado 912179" d="M178.174,342.019V337.3a2.846,2.846,0,0,1,2.846-2.846h-7a2.846,2.846,0,0,0-2.846,2.846v4.716Z" transform="translate(-155.655 -327.323)" fill="#a44f3e"/>
          <path id="Trazado_912180" data-name="Trazado 912180" d="M82.137,379.006a4.434,4.434,0,0,0-4.434,4.434v8.426a4.434,4.434,0,0,0,4.434,4.434h1.8V384.549H93V396.3h50.775V379.006Z" transform="translate(-77.703 -364.476)" fill="#fff3de"/>
        </g>
      </g>
      <g id="Grupo_1101704" data-name="Grupo 1101704" transform="translate(7.341 62.921)">
        <g id="Grupo_1101699" data-name="Grupo 1101699" transform="translate(0)">
          <g id="Grupo_1101696" data-name="Grupo 1101696">
            <path id="Trazado_912181" data-name="Trazado 912181" d="M28.673,396.3a4.435,4.435,0,0,1-4.434-4.434V383.44a4.435,4.435,0,0,1,4.434-4.434h-6.43a8.647,8.647,0,0,0,0,17.295h6.43Z" transform="translate(-13.596 -379.006)" fill="#3675bb"/>
          </g>
          <g id="Grupo_1101697" data-name="Grupo 1101697">
            <path id="Trazado_912182" data-name="Trazado 912182" d="M17.8,387.653a8.647,8.647,0,0,1,8.647-8.647h-4.2a8.647,8.647,0,0,0,0,17.295h4.2A8.647,8.647,0,0,1,17.8,387.653Z" transform="translate(-13.596 -379.006)" fill="#2b68b6"/>
          </g>
          <g id="Grupo_1101698" data-name="Grupo 1101698" transform="translate(10.643 0.006)">
            <path id="Trazado_912183" data-name="Trazado 912183" d="M83.935,391.47a4.43,4.43,0,0,1-2.032-3.726v-8.426c0-.093,0-.186.009-.277A4.435,4.435,0,0,0,77.7,383.47V391.9a4.434,4.434,0,0,0,4.434,4.434h1.8Z" transform="translate(-77.703 -379.041)" fill="#ffe5c2"/>
            <path id="Trazado_912184" data-name="Trazado 912184" d="M169.857,458.174h50.775v4.151H169.857Z" transform="translate(-154.558 -445.037)" fill="#ffe5c2"/>
          </g>
        </g>
        <g id="Grupo_1101703" data-name="Grupo 1101703" transform="translate(16.875 5.543)">
          <g id="Grupo_1101700" data-name="Grupo 1101700" transform="translate(0)">
            <path id="Trazado_912185" data-name="Trazado 912185" d="M124.307,427.187V412.395H115.24v14.792a.5.5,0,0,0,.781.41l3.752-2.6,3.752,2.6A.5.5,0,0,0,124.307,427.187Z" transform="translate(-115.24 -412.395)" fill="#fb2b3a"/>
          </g>
          <g id="Grupo_1101702" data-name="Grupo 1101702" transform="translate(0)">
            <g id="Grupo_1101701" data-name="Grupo 1101701">
              <path id="Trazado_912186" data-name="Trazado 912186" d="M119.414,412.395H115.24v14.792a.5.5,0,0,0,.781.41l3.393-2.348Z" transform="translate(-115.24 -412.395)" fill="#e41f2d"/>
            </g>
          </g>
        </g>
      </g>
      <path id="Trazado_912187" data-name="Trazado 912187" d="M87.827,78.971H85.3v-14.8h2.524a1.245,1.245,0,0,0,0-2.49H62.912V58.371a4.1,4.1,0,0,0-4.091-4.091H56.59V51.712a4.57,4.57,0,0,0-4.434-4.562V27.061a1.245,1.245,0,1,0-2.49,0V47.146H45.5V18.365h4.161V21.25a1.245,1.245,0,1,0,2.49,0v-3.3a2.077,2.077,0,0,0-2.075-2.075H48.829V11.652a5.909,5.909,0,0,0,4.514-4.514H68.6V9.409L56.429,32.542a1.74,1.74,0,0,0-1.325,2.6l2.99,5.179a1.748,1.748,0,0,0,1.51.872H71.325a1.245,1.245,0,0,0,0-2.49H60.035l-2.128-3.686H81.791L79.663,38.7H77.135a1.245,1.245,0,1,0,0,2.49h2.959a1.748,1.748,0,0,0,1.51-.872l2.991-5.18a1.74,1.74,0,0,0-1.326-2.6L71.094,9.409V7.138h4.661a1.245,1.245,0,0,0,0-2.49H53.344a5.892,5.892,0,0,0-11.518,0H19.414a1.245,1.245,0,1,0,0,2.49h4.661V9.409L11.9,32.542a1.74,1.74,0,0,0-1.326,2.6h0l2.991,5.18a1.748,1.748,0,0,0,1.51.871h20.49a1.748,1.748,0,0,0,1.51-.872l2.99-5.18a1.74,1.74,0,0,0-1.325-2.6L26.565,9.409V7.138h15.26a5.91,5.91,0,0,0,4.514,4.514v4.223H45.088a2.077,2.077,0,0,0-2.075,2.075v29.2a4.57,4.57,0,0,0-4.434,4.562V54.28H36.347a4.1,4.1,0,0,0-4.091,4.091v3.305H15.988a9.892,9.892,0,1,0,0,19.785h6.982v1.8a1.743,1.743,0,0,0,2.735,1.433l3.044-2.106,3.044,2.106a1.743,1.743,0,0,0,2.735-1.434v-1.8h53.3a1.245,1.245,0,1,0,0-2.49ZM68.6,32.529H59.25L68.6,14.756Zm2.49-17.773,9.354,17.773H71.094Zm-47.02,0V32.529H14.72ZM35.133,38.7H15.506l-2.128-3.686H37.261Zm.786-6.176H26.565V14.756ZM44.182,5.893a3.4,3.4,0,1,1,3.4,3.4A3.406,3.406,0,0,1,44.182,5.893ZM41.069,51.712a2.077,2.077,0,0,1,2.075-2.075h8.88A2.077,2.077,0,0,1,54.1,51.712V54.28H41.069ZM15.988,78.971a7.4,7.4,0,1,1,0-14.8h1.733a5.647,5.647,0,0,0-.983,3.189v8.426a5.646,5.646,0,0,0,.983,3.189Zm16.049,2.86-2.58-1.785a1.245,1.245,0,0,0-1.417,0l-2.58,1.785V69.709h6.577ZM82.813,67.219H55.9a1.245,1.245,0,0,0,0,2.49H82.813v3.718H55.9a1.245,1.245,0,0,0,0,2.49H82.813v3.053H34.528V69.71H45.034a1.245,1.245,0,1,0,0-2.49H22.418a1.245,1.245,0,0,0,0,2.49h.552v9.261h-.552a3.193,3.193,0,0,1-3.189-3.189V67.356a3.193,3.193,0,0,1,3.189-3.189H42.438a1.245,1.245,0,1,0,0-2.49H34.746V58.371a1.6,1.6,0,0,1,1.6-1.6H58.822a1.6,1.6,0,0,1,1.6,1.6v3.305H48.248a1.245,1.245,0,0,0,0,2.49H82.813Z"/>
    </g>
  </g>
</svg>
