<svg xmlns="http://www.w3.org/2000/svg" width="88.528" height="85" viewBox="0 0 88.528 85">
  <g id="Grupo_1106536" data-name="Grupo 1106536" transform="translate(-236.743 -3097.136)">
    <path id="Rectángulo_402870" data-name="Rectángulo 402870" d="M37.5,0h0A37.5,37.5,0,0,1,75,37.5V80a0,0,0,0,1,0,0H0a0,0,0,0,1,0,0V37.5A37.5,37.5,0,0,1,37.5,0Z" transform="translate(243.508 3102.137)" fill="#eacf5a"/>
    <g id="Grupo_1106535" data-name="Grupo 1106535">
      <g id="etica" transform="translate(195.23 3047.313)">
        <path id="Trazado_912205" data-name="Trazado 912205" d="M228.77,166.742h9.014v20.925H228.77Z" transform="translate(-147.5 -92.095)" fill="#96d5ca" fill-rule="evenodd"/>
        <path id="Trazado_912206" data-name="Trazado 912206" d="M248.34,241.171a6.36,6.36,0,0,0-2.943.727c.2-3.961-2.45-7.352-5.853-7.352-3.238,0-5.864,3.1-5.864,6.931l-4.4,3.159v25.516l4.4,1.9c0,3.828,2.625,6.931,5.864,6.931,3.4,0,6.054-3.394,5.852-7.352a6.358,6.358,0,0,0,2.943.728c4.048,0,7.329-4.855,7.329-8.664s-2.278-5.351-4.058-6.931c1.78-1.581,4.058-3.122,4.058-6.931S252.388,241.171,248.34,241.171Z" transform="translate(-147.904 -145.503)" fill="#6bae99" fill-rule="evenodd"/>
        <path id="Trazado_912207" data-name="Trazado 912207" d="M153.761,241.171a6.36,6.36,0,0,1,2.943.727c-.2-3.961,2.45-7.352,5.853-7.352,3.238,0,5.864,3.1,5.864,6.931v30.578c0,3.828-2.625,6.931-5.864,6.931-3.4,0-6.054-3.394-5.852-7.352a6.358,6.358,0,0,1-2.943.728c-4.048,0-7.329-4.855-7.329-8.664s2.278-5.351,4.058-6.931c-1.78-1.581-4.058-3.122-4.058-6.931S149.713,241.171,153.761,241.171Z" transform="translate(-82.643 -145.503)" fill="#ffbf31" fill-rule="evenodd"/>
        <path id="Trazado_912208" data-name="Trazado 912208" d="M376.9,204.7a10.144,10.144,0,1,1-20.288,0Z" transform="translate(-248.2 -121.995)" fill="#96d5ca" fill-rule="evenodd"/>
        <path id="Trazado_912209" data-name="Trazado 912209" d="M68.116,204.7a10.144,10.144,0,1,1-20.287,0Z" transform="translate(-4.975 -121.995)" fill="#96d5ca" fill-rule="evenodd"/>
        <path id="Trazado_912210" data-name="Trazado 912210" d="M197.9,56.139A9.064,9.064,0,0,1,206.96,65.2c0,8.227-8.636,17.6-15.881,20.8C183.835,82.8,175.2,73.43,175.2,65.2A9.064,9.064,0,0,1,191.08,59.23,9.041,9.041,0,0,1,197.9,56.139Z" transform="translate(-105.303 -4.974)" fill="#ef674f" fill-rule="evenodd"/>
        <path id="Trazado_912211" data-name="Trazado 912211" d="M94.1,58.227a1.338,1.338,0,0,1,.082,1.893L84.94,70.2A1.341,1.341,0,0,1,83,70.245L77.963,65.2a1.341,1.341,0,0,1,1.9-1.9l4.05,4.049,8.3-9.048A1.338,1.338,0,0,1,94.1,58.227Zm24.457,33.281a8.817,8.817,0,0,1-8.7-7.462h17.4a8.816,8.816,0,0,1-8.7,7.462ZM126.7,81.364H110.413l8.143-19.847ZM85.777,79.548c6.975-3.35,14.54-12.116,14.54-19.321a7.722,7.722,0,0,0-13.531-5.088,1.345,1.345,0,0,1-2.017,0,7.723,7.723,0,0,0-13.532,5.088C71.236,67.432,78.8,76.2,85.777,79.548ZM88.942,88.3a7.514,7.514,0,0,0-3.166,2.87,7.505,7.505,0,0,0-3.166-2.87V80.879a23.559,23.559,0,0,0,2.624,1.371,1.328,1.328,0,0,0,1.084,0,23.546,23.546,0,0,0,2.623-1.371Zm7.22,7.669c0-3.083-2.029-5.591-4.521-5.591s-4.524,2.508-4.524,5.591v13.948H93.08a6.5,6.5,0,0,1,5.4-5.066,1.341,1.341,0,1,1,.381,2.656,3.791,3.791,0,0,0,0,7.5,1.341,1.341,0,0,1-.379,2.656A6.506,6.506,0,0,1,93.08,112.6H87.118v13.947c0,3.083,2.029,5.59,4.524,5.59,2.629,0,4.671-2.754,4.511-5.942a1.342,1.342,0,0,1,1.956-1.259,5.026,5.026,0,0,0,2.327.577c3.168,0,5.988-4.1,5.988-7.323,0-3.129-1.822-4.348-3.607-5.929a1.341,1.341,0,0,1,0-2.006c1.78-1.581,3.607-2.792,3.607-5.929,0-3.228-2.821-7.323-5.988-7.323a5.011,5.011,0,0,0-2.327.577,1.342,1.342,0,0,1-1.956-1.259c.006-.116.009-.234.009-.352Zm-16.25,36.168c2.5,0,4.523-2.507,4.523-5.59V112.6h-5.96a6.506,6.506,0,0,1-5.407,5.065,1.341,1.341,0,0,1-.379-2.656,3.791,3.791,0,0,0,0-7.5,1.341,1.341,0,1,1,.381-2.656,6.5,6.5,0,0,1,5.4,5.066h5.96V95.974c0-3.083-2.027-5.591-4.523-5.591-2.627,0-4.662,2.739-4.513,5.943a1.341,1.341,0,0,1-1.956,1.259,5.005,5.005,0,0,0-2.326-.577c-3.168,0-5.988,4.1-5.988,7.323,0,3.138,1.827,4.347,3.607,5.929a1.341,1.341,0,0,1,0,2.006c-1.786,1.581-3.607,2.8-3.607,5.929,0,3.228,2.821,7.323,5.988,7.323a5.019,5.019,0,0,0,2.326-.577A1.341,1.341,0,0,1,75.4,126.2c-.149,3.2,1.886,5.942,4.513,5.942ZM53,91.508a8.816,8.816,0,0,1-8.7-7.462H61.7A8.818,8.818,0,0,1,53,91.508Zm0-29.991,8.143,19.847H44.854ZM129.941,82.2,119.8,57.475a1.342,1.342,0,0,0-1.241-.834H102.361a10.415,10.415,0,0,0-16.585-4.274,10.416,10.416,0,0,0-16.585,4.274H53a1.342,1.342,0,0,0-1.241.834L41.62,82.176l-.107.528a11.485,11.485,0,1,0,22.971,0l-.11-.528L55,59.324H68.6c-.027.3-.043.6-.043.9,0,6.714,5.308,14.186,11.374,18.82V87.7c-3.56,0-6.507,2.94-7.108,6.816a7.52,7.52,0,0,0-1.7-.193c-4.8,0-8.671,5.474-8.671,10.006a8.611,8.611,0,0,0,3.358,6.932,8.607,8.607,0,0,0-3.358,6.931c0,4.532,3.868,10.006,8.671,10.006a7.532,7.532,0,0,0,1.7-.193c.6,3.87,3.553,6.817,7.093,6.817a6.971,6.971,0,0,0,5.864-3.474,6.973,6.973,0,0,0,5.865,3.474c3.538,0,6.491-2.947,7.093-6.817a7.52,7.52,0,0,0,1.7.193c4.8,0,8.67-5.474,8.67-10.006a8.607,8.607,0,0,0-3.356-6.931,8.608,8.608,0,0,0,3.356-6.932c0-4.532-3.867-10.006-8.67-10.006a7.52,7.52,0,0,0-1.7.193c-.6-3.876-3.549-6.816-7.11-6.816V79.047C97.694,74.414,103,66.941,103,60.227c0-.3-.016-.6-.043-.9h13.6l-9.378,22.852a1.377,1.377,0,0,0-.108.528,11.485,11.485,0,1,0,22.971,0A1.322,1.322,0,0,0,129.941,82.2Z" transform="translate(0 0)" fill="#1e2f3f" fill-rule="evenodd"/>
      </g>
    </g>
  </g>
</svg>
