<svg xmlns="http://www.w3.org/2000/svg" width="84.863" height="85" viewBox="0 0 84.863 85">
  <g id="Grupo_1106537" data-name="Grupo 1106537" transform="translate(-848.576 -3097.137)">
    <path id="Rectángulo_402870" data-name="Rectángulo 402870" d="M37.5,0h0A37.5,37.5,0,0,1,75,37.5V80a0,0,0,0,1,0,0H0a0,0,0,0,1,0,0V37.5A37.5,37.5,0,0,1,37.5,0Z" transform="translate(853.508 3102.137)" fill="#eacf5a"/>
    <g id="justa" transform="translate(847.576 3096.137)">
      <g id="Grupo_1101722" data-name="Grupo 1101722" transform="translate(2.369 2.369)">
        <g id="Grupo_1101707" data-name="Grupo 1101707" transform="translate(0 10.95)">
          <path id="Trazado_912212" data-name="Trazado 912212" d="M11.267,15.461l-.014.014H3.369A1.373,1.373,0,0,1,2,14.106V11.369A1.373,1.373,0,0,1,3.369,10h7.884l.014.014a4.047,4.047,0,0,0,0,5.448Z" transform="translate(-2 -10)" fill="#cf9e76"/>
        </g>
        <g id="Grupo_1101708" data-name="Grupo 1101708" transform="translate(15.371 10.95)">
          <path id="Trazado_912213" data-name="Trazado 912213" d="M25.467,10h.014a3.794,3.794,0,0,0-.246,1.369v4.106H13.244l-.014-.014a4.047,4.047,0,0,0,0-5.448L13.244,10Z" transform="translate(-13.23 -10)" fill="#cf9e76"/>
        </g>
        <g id="Grupo_1101709" data-name="Grupo 1101709" transform="translate(35.588 10.95)">
          <path id="Trazado_912214" data-name="Trazado 912214" d="M59.167,15.461l-.014.014H28l6.967-1.738A5.284,5.284,0,0,0,38.772,10H59.153l.014.014a4.047,4.047,0,0,0,0,5.448Z" transform="translate(-28 -10)" fill="#cf9e76"/>
        </g>
        <g id="Grupo_1101710" data-name="Grupo 1101710" transform="translate(72.859 10.95)">
          <path id="Trazado_912215" data-name="Trazado 912215" d="M64.5,11.369v2.738a1.373,1.373,0,0,1-1.369,1.369H55.244l-.014-.014a4.047,4.047,0,0,0,0-5.448L55.244,10h7.884A1.373,1.373,0,0,1,64.5,11.369Z" transform="translate(-55.23 -10)" fill="#cf9e76"/>
        </g>
        <g id="Grupo_1101711" data-name="Grupo 1101711" transform="translate(8.213 9.581)">
          <path id="Trazado_912216" data-name="Trazado 912216" d="M15.159,10.382a4.047,4.047,0,0,1,0,5.448,3.815,3.815,0,0,1-1.766,1.163,3.889,3.889,0,0,1-2.573,0A3.815,3.815,0,0,1,9.054,15.83a4.091,4.091,0,1,1,6.1-5.448Z" transform="translate(-8 -9)" fill="#fcd770"/>
        </g>
        <g id="Grupo_1101712" data-name="Grupo 1101712" transform="translate(65.701 9.581)">
          <path id="Trazado_912217" data-name="Trazado 912217" d="M57.159,10.382a4.047,4.047,0,0,1,0,5.448,3.815,3.815,0,0,1-1.766,1.163,3.889,3.889,0,0,1-2.573,0,3.815,3.815,0,0,1-1.766-1.163,4.091,4.091,0,1,1,6.1-5.448Z" transform="translate(-50 -9)" fill="#fcd770"/>
        </g>
        <g id="Grupo_1101713" data-name="Grupo 1101713" transform="translate(27.375 8.213)">
          <path id="Trazado_912218" data-name="Trazado 912218" d="M30.213,16.213H49.375v4.106a20.5,20.5,0,0,1-4.106,12.319H26.106A20.5,20.5,0,0,1,22,20.319V12.106a3.794,3.794,0,0,1,.246-1.369A4.062,4.062,0,0,1,26.106,8H39.794a1.373,1.373,0,0,1,1.369,1.369,5.685,5.685,0,0,1-.178,1.369,5.284,5.284,0,0,1-3.805,3.737Z" transform="translate(-22 -8)" fill="#f0d0b4"/>
        </g>
        <g id="Grupo_1101714" data-name="Grupo 1101714" transform="translate(32.85)">
          <path id="Trazado_912219" data-name="Trazado 912219" d="M31.475,4.738v5.475H26V4.738A2.746,2.746,0,0,1,28.738,2a2.676,2.676,0,0,1,1.93.808A2.676,2.676,0,0,1,31.475,4.738Z" transform="translate(-26 -2)" fill="#f0d0b4"/>
        </g>
        <g id="Grupo_1101715" data-name="Grupo 1101715" transform="translate(43.8)">
          <path id="Trazado_912220" data-name="Trazado 912220" d="M39.475,7.475v2.738a2.746,2.746,0,0,1-2.738,2.738H36.56a5.685,5.685,0,0,0,.178-1.369,1.373,1.373,0,0,0-1.369-1.369H34V4.738A2.746,2.746,0,0,1,36.738,2a2.676,2.676,0,0,1,1.93.808,2.676,2.676,0,0,1,.808,1.93Z" transform="translate(-34 -2)" fill="#f0d0b4"/>
        </g>
        <g id="Grupo_1101716" data-name="Grupo 1101716" transform="translate(38.325)">
          <path id="Trazado_912221" data-name="Trazado 912221" d="M35.475,4.738v5.475H30V4.738A2.746,2.746,0,0,1,32.738,2a2.676,2.676,0,0,1,1.93.808A2.676,2.676,0,0,1,35.475,4.738Z" transform="translate(-30 -2)" fill="#f0d0b4"/>
        </g>
        <g id="Grupo_1101717" data-name="Grupo 1101717" transform="translate(49.275 2.738)">
          <path id="Trazado_912222" data-name="Trazado 912222" d="M43.475,6.738V9.475a2.746,2.746,0,0,1-2.738,2.738A2.757,2.757,0,0,1,38,9.475V6.738A2.746,2.746,0,0,1,40.738,4a2.757,2.757,0,0,1,2.738,2.738Z" transform="translate(-38 -4)" fill="#f0d0b4"/>
        </g>
        <g id="Grupo_1101718" data-name="Grupo 1101718" transform="translate(30.113 32.85)">
          <path id="Trazado_912223" data-name="Trazado 912223" d="M45.9,27.369V43.26l-.3-.3-1.027,1.027a3.979,3.979,0,0,1-4.366.849c-.014,0-.041-.014-.055-.014a3.985,3.985,0,0,1-2.464-3.7V39.688H32.213v1.437a3.985,3.985,0,0,1-2.464,3.7c-.014,0-.041.014-.055.014a3.979,3.979,0,0,1-4.366-.849L24.3,42.959l-.3.3V27.369A1.373,1.373,0,0,1,25.369,26H44.531A1.373,1.373,0,0,1,45.9,27.369Z" transform="translate(-24 -26)" fill="#ef674f"/>
        </g>
        <g id="Grupo_1101719" data-name="Grupo 1101719" transform="translate(23.269 46.538)">
          <path id="Trazado_912224" data-name="Trazado 912224" d="M54.588,51.056v5.475H53.151A3.985,3.985,0,0,0,49.455,59c0,.014-.014.041-.014.055a3.979,3.979,0,0,0,.849,4.366l1.027,1.027-3.874,3.874L46.416,67.29a3.979,3.979,0,0,0-4.366-.849c-.014,0-.041.014-.055.014a3.985,3.985,0,0,0-2.464,3.7v1.437H34.056V70.151a3.985,3.985,0,0,0-2.464-3.7c-.014,0-.041-.014-.055-.014a3.979,3.979,0,0,0-4.366.849l-1.027,1.027-3.874-3.874L23.3,63.416a3.979,3.979,0,0,0,.849-4.366c0-.014-.014-.041-.014-.055a3.985,3.985,0,0,0-3.7-2.464H19V51.056h1.437a3.985,3.985,0,0,0,3.7-2.464c0-.014.014-.041.014-.055a3.979,3.979,0,0,0-.849-4.366l-1.027-1.027,3.572-3.572.3-.3L27.172,40.3a3.979,3.979,0,0,0,4.366.849c.014,0,.041-.014.055-.014a3.985,3.985,0,0,0,2.464-3.7V36h5.475v1.437A3.985,3.985,0,0,0,42,41.133c.014,0,.041.014.055.014a3.979,3.979,0,0,0,4.366-.849l1.027-1.027.3.3,3.572,3.572L50.29,44.172a3.979,3.979,0,0,0-.849,4.366c0,.014.014.041.014.055a3.985,3.985,0,0,0,3.7,2.464Zm-9.581,2.738a8.213,8.213,0,1,0-8.213,8.213A8.219,8.219,0,0,0,45.006,53.794Z" transform="translate(-19 -36)" fill="#43b869"/>
        </g>
        <g id="Grupo_1101720" data-name="Grupo 1101720" transform="translate(0 41.063)">
          <path id="Trazado_912225" data-name="Trazado 912225" d="M26.638,32v1.369A12.319,12.319,0,0,1,2,33.369V32Z" transform="translate(-2 -32)" fill="#96d5ca"/>
        </g>
        <g id="Grupo_1101721" data-name="Grupo 1101721" transform="translate(57.488 41.063)">
          <path id="Trazado_912226" data-name="Trazado 912226" d="M68.638,32v1.369a12.319,12.319,0,0,1-24.638,0V32Z" transform="translate(-44 -32)" fill="#96d5ca"/>
        </g>
      </g>
      <g id="Grupo_1101723" data-name="Grupo 1101723" transform="translate(1 1)">
        <path id="Trazado_912227" data-name="Trazado 912227" d="M40.258,19.647l-.866-2.6a10.074,10.074,0,0,0-6.34,6.34l2.6.866A7.337,7.337,0,0,1,40.258,19.647Z" transform="translate(10.819 4.919)"/>
        <path id="Trazado_912228" data-name="Trazado 912228" d="M83.126,20.163a2.74,2.74,0,0,0,2.738-2.738V14.688a2.74,2.74,0,0,0-2.738-2.738H75.759a5.375,5.375,0,0,0-7.167,0H58.236a4.06,4.06,0,0,0,.252-1.369V7.844a4.093,4.093,0,0,0-5.634-3.805,4.07,4.07,0,0,0-6.685-1.971,4.043,4.043,0,0,0-5.475,0A4.089,4.089,0,0,0,33.85,5.106V9.213a5.457,5.457,0,0,0-4.714,2.738H18.271a5.375,5.375,0,0,0-7.167,0H3.738A2.74,2.74,0,0,0,1,14.688v2.738a2.74,2.74,0,0,0,2.738,2.738H11.1a5.676,5.676,0,0,0,.505.417L1,43.125V44.8a13.688,13.688,0,1,0,27.375,0V43.125L17.766,20.579a5.449,5.449,0,0,0,.505-.417h10.1V22.9a22.046,22.046,0,0,0,3.478,11.827,2.728,2.728,0,0,0-.741,1.862V51.911L26.974,56.05l1.993,1.993a2.65,2.65,0,0,1,.539,2.931,2.618,2.618,0,0,1-2.424,1.621H24.269v8.213h2.813a2.683,2.683,0,0,1,1.885,4.551l-1.993,1.993,5.809,5.809,1.993-1.993a2.681,2.681,0,0,1,4.55,1.883v2.813h8.213V83.05a2.683,2.683,0,0,1,4.551-1.885l1.993,1.993,5.809-5.809L57.9,75.357a2.65,2.65,0,0,1-.539-2.931,2.616,2.616,0,0,1,2.423-1.619h2.813V62.594H59.782A2.683,2.683,0,0,1,57.9,58.043L59.89,56.05l-4.139-4.139V36.588a2.722,2.722,0,0,0-.741-1.86A22.046,22.046,0,0,0,58.488,22.9V20.163h10.1a5.677,5.677,0,0,0,.505.417L58.488,43.125V44.8a13.688,13.688,0,0,0,27.375,0V43.125L75.254,20.579a5.449,5.449,0,0,0,.505-.417h7.367ZM14.688,13.319a2.738,2.738,0,1,1-2.738,2.738A2.74,2.74,0,0,1,14.688,13.319ZM3.738,14.688H9.407a4.917,4.917,0,0,0,0,2.738H3.738Zm10.95,41.063A10.963,10.963,0,0,1,3.738,44.8h21.9A10.963,10.963,0,0,1,14.688,55.751ZM24.849,42.063H4.526l9.685-20.579c.159.014.313.048.476.048s.318-.034.476-.048ZM19.968,17.425a4.917,4.917,0,0,0,0-2.738h8.407v2.738Zm63.157,0H77.456a4.917,4.917,0,0,0,0-2.738h5.669Zm-10.95-4.106a2.738,2.738,0,1,1-2.738,2.738A2.74,2.74,0,0,1,72.176,13.319Zm-5.281,4.106H47.372a6.6,6.6,0,0,0,2.29-2.738H66.895a4.917,4.917,0,0,0,0,2.738ZM54.382,6.475a1.369,1.369,0,0,1,1.369,1.369v2.738a1.369,1.369,0,0,1-2.738,0V7.844A1.369,1.369,0,0,1,54.382,6.475ZM48.907,3.738a1.369,1.369,0,0,1,1.369,1.369v5.475a1.344,1.344,0,0,1-.133.569,2.733,2.733,0,0,0-2.6-1.938V5.106a1.369,1.369,0,0,1,1.369-1.369Zm-5.475,0A1.369,1.369,0,0,1,44.8,5.106V9.213H42.063V5.106A1.369,1.369,0,0,1,43.432,3.738ZM36.588,5.106a1.369,1.369,0,0,1,2.738,0V9.213H36.588ZM53.013,36.588V51.31l-.925.925a2.642,2.642,0,0,1-2.931.537,2.613,2.613,0,0,1-1.619-2.421V47.538H39.325v2.813a2.684,2.684,0,0,1-4.551,1.885l-.924-.925V36.588Zm1.816,25.432a5.342,5.342,0,0,0,4.952,3.312h.075v2.738h-.075a5.419,5.419,0,0,0-3.82,9.223l.057.057-1.938,1.938-.057-.057A5.42,5.42,0,0,0,44.8,83.05v.075H42.063V83.05a5.419,5.419,0,0,0-9.223-3.82l-.057.057L30.845,77.35l.057-.057a5.42,5.42,0,0,0-3.82-9.223h-.075V65.332h.075a5.419,5.419,0,0,0,3.82-9.223l-.057-.057,1.938-1.938.057.057a5.42,5.42,0,0,0,9.223-3.82v-.075H44.8v.075a5.42,5.42,0,0,0,9.223,3.82l.057-.057,1.938,1.938-.057.057A5.367,5.367,0,0,0,54.829,62.019ZM55.751,22.9A19.285,19.285,0,0,1,52.3,33.85H34.568A19.285,19.285,0,0,1,31.113,22.9V14.688A2.74,2.74,0,0,1,33.85,11.95H47.538a3.888,3.888,0,0,1-2.946,3.775l-8.852,2.212,1.077,1.617a14.889,14.889,0,0,1,2.508,8.281v.541h2.738v-.541a17.584,17.584,0,0,0-1.778-7.672H55.751Zm16.425,32.85A10.963,10.963,0,0,1,61.226,44.8h21.9A10.963,10.963,0,0,1,72.176,55.751ZM82.337,42.063H62.014L71.7,21.484c.159.014.313.048.476.048s.318-.034.476-.048Z" transform="translate(-1 -1)"/>
        <path id="Trazado_912229" data-name="Trazado 912229" d="M34.581,42a9.581,9.581,0,1,0,9.581,9.581A9.594,9.594,0,0,0,34.581,42Zm0,16.425a6.844,6.844,0,1,1,6.844-6.844A6.852,6.852,0,0,1,34.581,58.425Z" transform="translate(7.85 14.119)"/>
      </g>
    </g>
  </g>
</svg>
